<svg width="180" height="48" viewBox="0 0 180 48" fill="none" xmlns="http://www.w3.org/2000/svg">
<path d="M179.824 38.2569C179.737 37.2397 179.651 36.286 179.564 35.2688C179.477 34.2516 179.39 33.1708 179.303 32.1536C179.216 31.4542 179.129 30.6913 179.129 29.9284C179.129 29.2926 179.477 28.2754 178.956 27.7668C178.695 27.4489 178.087 27.3218 177.566 27.2582C176.871 27.1946 176.176 27.0675 175.568 27.0039C176.437 26.8767 177.392 26.6224 178.261 26.4317C178.435 26.3681 178.695 26.3046 178.782 26.1774C178.869 26.0503 178.956 25.9231 178.956 25.7959C179.216 24.4608 179.043 22.9986 179.043 21.5999C179.043 20.2012 179.043 18.8025 179.043 17.4039C179.043 16.0688 179.043 14.7337 179.043 13.3986C179.043 12.9535 179.303 11.9999 178.956 11.6184C178.695 11.3005 178.174 11.3005 177.74 11.3005C177.306 11.237 176.871 11.237 176.35 11.3005C175.655 11.3005 175.047 11.4277 174.352 11.4913C175.221 11.3005 176.09 11.237 177.045 11.0462C177.653 10.9191 178.174 10.7919 178.695 10.6012C179.043 10.4741 179.39 10.3469 179.564 10.1562C179.651 10.029 179.651 9.90186 179.737 9.83829C179.824 9.58398 179.824 9.32968 179.824 9.07537C179.911 8.37603 179.911 7.67669 179.911 6.97735C179.911 6.65947 179.911 6.27802 179.911 5.96014C179.911 5.70583 179.824 5.5151 179.737 5.26079C179.651 4.30715 179.129 3.41708 178.261 2.71774C177.392 2.0184 176.35 1.44621 175.047 1.25548C174.613 1.19191 174.092 1.12833 173.658 1.12833C117.55 -0.206769 62.5711 -0.270345 8.80828 1.12833C8.63457 1.12833 8.374 1.12833 8.2003 1.12833C7.93973 1.19191 7.76603 1.25549 7.59232 1.31906C7.15805 1.44622 6.72378 1.57337 6.2895 1.70053C5.50782 2.01841 4.72613 2.39986 4.205 2.90847C3.85758 3.22635 3.68387 3.60782 3.42331 3.9257C3.2496 4.11643 3.07589 4.24358 2.98904 4.37073C2.38106 5.19722 1.85994 6.02372 1.07825 6.78663C0.29656 7.48597 0.0359967 8.63034 0.122851 9.5204C0.209705 10.7284 0.29656 11.9363 0.383415 13.1443C0.643977 15.0516 0.383414 16.9588 0.643977 18.9297C0.643977 19.184 0.730831 19.5019 0.991393 19.6926C1.1651 19.8198 1.42566 19.8834 1.68623 19.8834C2.55477 20.0105 3.33646 20.1376 4.205 20.2648C3.16275 20.7734 1.68623 20.7734 1.07825 21.5999C0.904539 21.8542 0.90454 22.1721 0.817686 22.4264C0.730832 23.4436 0.557124 24.4608 0.470269 25.4781C0.470269 25.9231 0.383415 26.3681 0.383415 26.8767C0.383415 27.3218 0.29656 27.7668 0.29656 28.1483C0.122852 29.1655 -0.224566 30.5006 0.209706 31.5178C0.643977 32.4715 2.29421 32.535 3.42331 32.7258C2.81533 32.7893 2.38106 33.1072 2.03365 33.4887C1.85994 33.6794 1.77308 33.8701 1.59937 34.0609C1.42567 34.2516 1.33881 34.3787 1.1651 34.5695C0.90454 34.8873 0.730831 35.2688 0.557122 35.6503C0.470268 35.9046 0.383415 36.0953 0.383415 36.3496C0.383415 36.6039 0.383415 36.7947 0.383415 37.049C0.383415 37.494 0.383414 38.0026 0.29656 38.4476C0.29656 39.4013 0.29656 40.2913 0.29656 41.245C0.29656 42.135 0.0359967 43.0251 0.557122 43.9152C1.07825 44.8053 1.94679 45.5682 3.0759 46.0768C3.94444 46.4582 4.98669 46.7125 6.02894 46.7125C60.1391 48.4291 115.118 48.4291 171.052 46.7125C172.529 46.649 173.918 46.2039 175.047 45.5046C175.568 45.1231 176.003 44.8688 176.437 44.4238C176.871 43.9152 177.392 43.343 177.74 42.7708C178.695 41.3721 179.911 39.8463 179.824 38.2569Z" fill="url(#paint0_linear_217_1284)"/>
<path d="M173.745 43.216C117.897 44.9326 62.8316 44.9961 8.72145 43.216C6.28953 43.216 4.03132 41.9445 3.16278 40.3551C2.72851 39.6557 2.64165 38.8928 2.72851 38.1299C2.72851 38.0027 2.72851 37.8756 2.81536 37.7484C2.90222 37.5577 2.98907 37.367 3.07593 37.1762C3.07593 37.0491 3.07593 36.9855 3.16278 36.8584C3.24963 36.2862 3.24963 35.6504 3.33649 35.0147C3.42334 34.6968 3.42334 34.3153 3.59705 33.9974C3.77076 33.616 3.94447 33.2981 4.37874 33.0438C6.20268 32.0901 9.67685 32.0901 12.2825 32.0266C12.8036 32.0266 13.2379 32.0266 13.6721 31.963C14.8013 31.8994 15.9304 31.8994 17.0595 31.8994C14.367 31.8994 11.6745 31.7087 9.06887 31.3908C7.85291 31.2636 6.5501 31.0093 5.33414 30.8186C5.07357 30.755 4.72616 30.6915 4.46559 30.5643C4.11818 30.4372 3.77076 30.2464 3.59705 29.9921C3.42334 29.7378 3.42334 29.4835 3.5102 29.2292C3.5102 28.9749 3.5102 28.7206 3.5102 28.4663C3.5102 27.9577 3.59705 27.4491 3.68391 26.9405C3.77076 26.4954 3.85761 26.114 3.85761 25.6689C3.94447 24.5246 4.03132 23.4438 4.20503 22.2994C4.20503 21.9815 4.29189 21.6001 4.6393 21.3457C4.81301 21.2186 5.07357 21.155 5.33414 21.0914C6.02897 20.9007 6.7238 20.7736 7.41864 20.71C7.76606 20.6464 8.11347 20.6464 8.46089 20.5828C8.80831 20.5192 9.15572 20.4557 9.59 20.3921C13.4984 20.0742 17.4937 19.6928 21.4022 19.3749C21.8364 19.3113 22.3576 19.3113 22.7918 19.2477C16.7989 18.7391 10.8928 18.1669 4.89986 17.6583C4.6393 17.6583 4.37874 17.5947 4.11818 17.5947C3.85762 17.5947 3.59705 17.5312 3.5102 17.404C3.42334 17.2769 3.33649 17.1497 3.33649 17.0226C3.07593 14.6702 3.33649 12.2543 3.16278 9.83843C3.16278 9.71128 3.07593 9.01194 3.07593 8.3126C2.98907 7.23181 2.90222 5.96028 2.81536 5.96028C2.5548 3.35365 5.33414 1.0649 8.89516 1.00133C62.6579 -0.333776 117.724 -0.333776 173.745 1.00133C177.306 1.0649 180.085 3.35365 179.824 5.96028C179.737 6.85035 179.998 7.74042 179.651 8.63048C179.564 8.82121 179.477 9.07551 179.303 9.20267C179.129 9.32982 178.869 9.3934 178.608 9.3934C177.914 9.52055 177.219 9.64771 176.611 9.77486C175.742 9.90201 174.787 10.0927 173.918 10.1563C168.533 10.6013 163.148 10.9828 157.676 11.4278C157.503 11.4278 157.416 11.4278 157.242 11.4914C157.069 11.4914 156.895 11.4914 156.721 11.555C157.155 11.555 157.59 11.555 158.024 11.555C164.799 11.4914 171.573 11.3643 178.348 11.3007C178.522 11.3007 178.782 11.3007 178.869 11.3643C179.043 11.4278 179.043 11.6186 179.129 11.8093C179.129 12 179.216 12.2543 179.129 12.4451C179.129 13.0808 178.956 13.653 178.956 14.2888C178.956 14.861 179.129 15.4332 179.129 16.0053C179.129 16.8318 179.043 17.6583 179.043 18.5484C178.956 20.4557 178.782 22.363 178.435 24.2703C178.348 24.5246 178.348 24.8424 178.087 25.0332C177.914 25.1603 177.566 25.2875 177.306 25.351C177.132 25.4146 176.958 25.4146 176.784 25.4782C172.789 26.3047 168.446 25.6689 164.364 26.1776C164.104 26.1776 163.843 26.2411 163.583 26.3047C163.496 26.3047 163.409 26.3683 163.322 26.3683C163.669 26.3683 164.017 26.4319 164.364 26.4319C168.794 26.6862 173.31 27.004 177.74 27.3855C178.261 27.4491 178.869 27.5127 179.129 27.8305C179.39 28.0848 179.39 28.4027 179.39 28.657V29.6107C179.39 30.5643 179.39 31.5815 179.477 32.5352C179.564 33.8067 179.651 35.0782 179.824 36.4133C179.911 37.0491 179.911 37.6849 179.998 38.3206C180.085 40.8637 177.306 43.1524 173.745 43.216Z" fill="url(#paint1_linear_217_1284)"/>
<path d="M179.043 16.0053C179.043 16.8318 178.956 17.6583 178.956 18.5483C176.698 18.6755 174.44 18.8026 172.181 18.9934C171.66 19.0569 171.139 19.0569 170.618 19.1205C168.707 19.2477 166.796 19.3748 164.886 19.502C163.93 19.5656 162.975 19.6291 162.019 19.6927C161.411 19.7563 160.89 19.8834 160.282 19.947C159.414 20.0106 158.545 19.8834 157.764 19.8199C156.808 19.7563 155.94 19.7563 154.984 19.7563C153.16 19.7563 151.249 19.8834 149.426 20.0106C145.691 20.3285 142.043 20.8371 138.395 21.2821C132.489 21.9814 126.583 22.5536 120.59 22.9351C123.804 23.1894 127.104 23.5708 130.231 24.0795C129.015 24.143 127.886 24.2066 126.67 24.2702C122.848 24.4609 119.113 24.5245 115.292 24.5881C111.47 24.6517 107.649 24.6517 103.914 24.6517C100.092 24.6517 96.2707 24.6517 92.536 24.6517C88.7144 24.6517 84.9797 24.7152 81.1581 24.8424C79.2473 24.906 77.3365 24.9695 75.5126 25.0967C75.0783 25.0967 74.5572 25.1603 74.1229 25.1603C73.5149 25.2238 72.9938 25.2874 72.3858 25.351C67.8694 25.7324 63.353 26.2411 58.8365 26.8768C51.8882 27.894 44.853 28.8477 37.8178 29.2291C36.515 29.2927 35.299 29.3563 33.9962 29.4199C27.9164 30.3099 21.3155 30.5007 15.3226 31.0093C13.3249 31.2 11.2404 31.2636 9.15591 31.3272C7.93995 31.2 6.63714 30.9457 5.42118 30.755C5.16062 30.6914 4.8132 30.6278 4.55264 30.5007C4.20522 30.3735 3.8578 30.1828 3.68409 29.9285C3.51039 29.6742 3.51038 29.4199 3.59724 29.1656C3.59724 28.9113 3.59724 28.657 3.59724 28.4027C3.59724 27.894 3.68409 27.3854 3.77095 26.8768C9.24277 26.5589 14.8883 25.4146 20.0995 24.8424C26.8742 24.143 33.7357 23.698 40.5972 23.4437C48.3272 23.1258 55.9704 23.8252 63.7004 23.8252C70.8224 23.8252 77.9445 23.3801 84.9797 22.9351C98.7895 22.1086 112.599 21.2821 126.409 20.392C123.369 20.3285 120.416 20.2649 117.376 20.2013C113.555 20.0742 109.733 19.947 105.912 19.8199C105.043 19.7563 104.088 19.6927 103.219 19.7563C102.351 19.8199 101.395 19.8834 100.44 19.8199C98.6158 19.8199 96.7919 19.6291 95.0548 19.3112C94.0125 19.1205 92.9703 18.8662 91.928 18.7391C90.1041 18.4847 88.367 18.6119 86.543 18.5483C79.7684 18.4848 73.1675 17.1496 66.3929 17.2132C64.6558 17.2132 62.8318 17.3404 61.0948 17.4675C59.184 17.5947 57.36 17.7218 55.4492 17.7854C54.5807 17.7854 53.7121 17.849 52.9305 17.7218C52.3225 17.5947 51.6276 17.6583 50.9328 17.6583C49.8037 17.6583 48.6746 17.5947 47.5455 17.5947C45.2873 17.5311 42.9422 17.5311 40.684 17.5311C31.9986 17.4675 23.4 17.849 14.7146 17.7854C10.9798 17.7854 7.24512 17.7218 3.59724 17.3404C3.51038 17.2132 3.42353 17.0861 3.42353 16.9589C3.16297 14.6066 3.42353 12.1907 3.24982 9.7748C3.24982 9.64765 3.16297 8.9483 3.16297 8.24896C7.59253 7.99466 12.0221 7.86751 16.4517 7.67678C25.1371 7.23174 33.7357 7.04102 42.4211 7.04102C59.6182 7.10459 76.8154 7.93108 94.0125 8.88472C111.21 9.83837 128.32 11.0463 145.517 11.9364C154.203 12.3814 162.888 12.6357 171.573 12.6357C174.092 12.6357 176.698 12.5086 179.303 12.3814C179.303 13.0172 179.13 13.5894 179.13 14.2251C178.869 14.9245 179.043 15.4331 179.043 16.0053ZM179.303 32.5351C179.217 31.5815 179.217 30.5642 179.217 29.6106C173.745 29.1656 168.273 28.7205 162.714 28.4662C153.247 28.0212 143.78 28.0848 134.313 28.3391C132.315 28.4027 130.404 28.4026 128.494 28.5934C127.538 28.657 126.583 28.7841 125.627 28.8477C121.893 29.1656 118.071 29.4199 114.25 29.6742C112.773 29.7378 111.297 29.8013 109.82 29.8649C113.642 29.8649 117.463 29.8013 121.285 29.8013C125.106 29.8013 128.928 29.7378 132.75 29.7378C134.66 29.7378 136.571 29.7378 138.482 29.7378C139.437 29.7378 140.393 29.7378 141.348 29.7378C141.782 29.7378 142.13 29.7378 142.564 29.6742C142.825 29.6106 142.998 29.547 143.259 29.547C144.127 29.4834 145.083 29.6106 145.951 29.6106C146.907 29.6742 147.862 29.6742 148.818 29.7378C150.728 29.8013 152.639 29.9285 154.55 29.9921C157.503 30.1828 160.543 30.3099 163.496 30.5642C166.796 30.755 170.01 31.0729 173.224 31.3272C165.841 31.8358 158.458 32.408 151.076 32.6623C134.052 33.3616 117.029 34.1881 100.005 33.9974C83.2426 33.7431 66.3929 33.0437 49.63 33.1073C40.7709 33.1073 31.9117 33.2345 23.0526 33.4252C16.5385 33.5523 9.9376 33.5523 3.42353 34.0609C3.33667 34.3788 3.24982 34.7603 3.16297 35.0782C3.07611 35.6504 3.07611 36.2861 2.98926 36.9219C10.285 37.1126 17.5808 36.7947 24.7897 36.7947C33.6488 36.7947 42.5079 36.8583 51.3671 36.9855C68.1299 37.3033 84.8928 37.9391 101.656 38.1934C118.679 38.4477 135.789 37.4941 152.813 36.9219C161.585 36.604 170.444 36.604 179.217 36.5404H179.39C179.477 35.0782 179.39 33.8066 179.303 32.5351Z" fill="url(#paint2_linear_217_1284)"/>
<path d="M133.705 9.96567C130.231 8.50342 124.412 8.94845 121.632 10.9193C119.895 12.1273 119.809 14.416 121.632 15.624C125.715 18.2942 132.75 17.1498 135.355 13.8438C135.442 13.7803 135.442 13.7802 135.529 13.7167C137.44 12.4451 136.05 10.2836 133.705 9.96567Z" fill="#EB924D"/>
<path d="M134.574 8.69419C131.1 7.23193 125.28 7.67697 122.501 9.64783C120.764 10.8558 120.677 13.1445 122.501 14.3525C126.583 17.0227 133.618 15.8783 136.224 12.5723C136.311 12.5088 136.311 12.5088 136.398 12.4452C138.309 11.1737 136.832 9.01207 134.574 8.69419Z" fill="url(#paint3_linear_217_1284)"/>
<path d="M133.705 9.52036C130.231 8.05811 124.412 8.50314 121.632 10.474C119.895 11.682 119.809 13.9707 121.632 15.1786C125.715 17.8489 132.75 16.7045 135.355 13.3985C135.442 13.3349 135.442 13.3349 135.529 13.2714C137.44 11.9998 136.05 9.83824 133.705 9.52036Z" fill="url(#paint4_linear_217_1284)"/>
<path d="M68.0431 31.264C64.5689 29.8018 58.7497 30.2468 55.9703 32.2177C54.2333 33.4256 54.1464 35.7144 55.9703 36.9223C60.0525 39.5925 67.0877 38.4481 69.6933 35.1422C69.7802 35.0786 69.7802 35.0786 69.867 35.015C71.7778 33.7435 70.3882 31.5819 68.0431 31.264Z" fill="#EB924D"/>
<path d="M68.9117 30.056C65.4376 28.5938 59.6183 29.0388 56.839 31.0097C55.1019 32.2176 55.0151 34.5063 56.839 35.7143C60.9211 38.3845 67.9563 37.2401 70.562 33.9341C70.6488 33.8706 70.6488 33.8706 70.7357 33.807C72.5596 32.4719 71.1699 30.3739 68.9117 30.056Z" fill="url(#paint5_linear_217_1284)"/>
<path d="M68.0431 30.8192C64.5689 29.3569 58.7497 29.802 55.9703 31.7728C54.2333 32.9808 54.1464 35.2695 55.9703 36.4775C60.0525 39.1477 67.0877 38.0033 69.6933 34.6973C69.7802 34.6338 69.7802 34.6338 69.867 34.5702C71.7778 33.2987 70.3882 31.1371 68.0431 30.8192Z" fill="url(#paint6_linear_217_1284)"/>
<path d="M4.20544 29.2291C4.20544 29.7377 4.20544 30.1828 4.37915 30.6914C4.03173 30.5642 3.68431 30.3735 3.51061 30.1192C3.3369 29.8649 3.33689 29.6106 3.42375 29.3563C3.42375 29.102 3.42375 28.8477 3.42375 28.5934C3.5106 27.6397 3.68431 26.7496 3.77117 25.796C3.85802 24.6516 3.94488 23.5708 4.11859 22.4265C4.11859 22.1086 4.20544 21.7271 4.55286 21.4728C4.72657 21.3457 4.98713 21.2821 5.24769 21.2185C5.94252 21.0278 6.63736 20.9006 7.33219 20.8371C7.67961 20.7735 8.02703 20.7735 8.37444 20.7099C8.72186 20.6463 9.06928 20.5828 9.50355 20.5192C13.412 20.2013 17.4073 19.8198 21.3157 19.502C17.0599 20.1377 12.804 20.7735 8.635 21.3457C7.76646 21.4728 6.72421 21.4728 6.02938 21.8543C5.76881 21.9814 5.50825 22.2357 5.33454 22.4265C5.24769 22.49 4.63971 23.3801 4.90027 23.3801C8.02702 23.4437 11.1538 23.5073 14.2805 23.6344C11.9355 23.8887 9.67726 24.2066 7.41905 24.5245C6.28994 24.7152 4.98713 24.9695 4.466 25.7324C4.11858 26.241 4.20544 26.8768 4.29229 27.3854C4.29229 27.5761 4.37915 27.7033 4.466 27.894C4.37915 28.339 4.29229 28.7841 4.20544 29.2291Z" fill="#EB924D"/>
<path d="M157.068 11.5553C156.808 11.5553 156.547 11.5553 156.374 11.4917H157.503C157.416 11.5553 157.242 11.5553 157.068 11.5553Z" fill="#EB924D"/>
<path d="M160.977 25.9868C162.106 26.0504 163.148 26.114 164.277 26.1776C164.016 26.1776 163.756 26.2411 163.495 26.3047C162.627 26.1775 161.845 26.0504 160.977 25.9868Z" fill="#EB924D"/>
<path d="M177.218 24.7789C177.392 24.2702 177.305 23.7616 177.305 23.253C177.218 22.2994 177.131 21.3457 177.045 20.3921C177.045 20.2014 176.958 20.0106 176.784 19.8835C176.61 19.8199 176.437 19.8199 176.176 19.8199C174.526 19.8835 172.876 19.8835 171.312 19.947C173.049 19.8199 174.786 19.502 176.437 18.9298C176.871 18.7391 177.392 18.5484 177.566 18.2305C177.652 18.0398 177.652 17.849 177.652 17.6583C177.652 16.1325 177.305 14.4795 177.045 12.9537C176.263 12.445 175.134 12.3179 174.091 12.3179C169.836 12.1272 165.58 11.9364 161.237 11.7457C160.195 11.6821 159.066 11.6821 158.023 11.6186C164.798 11.555 171.573 11.4278 178.347 11.3643C178.521 11.3643 178.782 11.3643 178.868 11.4278C179.042 11.4914 179.042 11.6821 179.129 11.8729C179.303 12.6994 179.042 13.5259 179.042 14.3523C179.042 14.9245 179.216 15.4967 179.216 16.0689C179.129 18.7391 178.955 21.6 178.521 24.3338C178.434 24.5881 178.434 24.906 178.174 25.0967C178 25.2239 177.652 25.351 177.392 25.4146C177.218 25.4782 177.045 25.4782 176.871 25.5418C176.958 25.2875 177.131 25.0332 177.218 24.7789Z" fill="#EB924D"/>
<path d="M3.07578 9.90191C3.07578 9.58403 2.81521 6.02375 2.72836 6.02375C2.4678 3.41712 5.24713 1.12838 8.80816 1.0648C62.5709 -0.270299 117.637 -0.270299 173.658 1.0648C177.219 1.12838 179.998 3.41712 179.737 6.02375C179.65 6.91382 179.911 7.80389 179.564 8.69396C179.477 8.88469 179.39 9.13899 179.216 9.26614C179.042 9.3933 178.782 9.45687 178.521 9.45687C177.827 9.58403 177.219 9.71117 176.524 9.83833C177.132 9.45687 177.74 9.01184 178.087 8.43965C178.261 8.05819 178.087 7.74031 177.913 7.35885C177.653 6.78667 177.566 6.27806 177.566 5.6423C177.566 4.94296 177.74 3.86216 176.871 3.28997C176.263 2.84494 175.481 2.46347 174.787 2.20917C172.963 1.57341 170.791 1.38268 168.794 1.3191C168.707 1.3191 168.62 1.3191 168.446 1.3191C164.712 1.25553 160.977 1.19195 157.242 1.50984C156.808 1.57341 156.374 1.63699 155.939 1.70057C155.418 1.76414 154.723 1.70056 154.202 1.63699C152.899 1.57341 151.683 1.57341 150.381 1.50984C147.862 1.44626 145.256 1.38268 142.737 1.38268C140.827 1.38268 138.916 1.38268 137.005 1.38268C136.397 1.38268 135.789 1.38268 135.181 1.38268C134.052 1.38268 132.836 1.38268 131.707 1.38268C130.144 1.38268 128.493 1.38268 126.93 1.38268C126.843 1.38268 126.756 1.38268 126.669 1.38268C124.151 1.38268 121.545 1.38268 119.026 1.38268C117.723 1.38268 116.507 1.38268 115.205 1.38268C114.597 1.38268 113.989 1.44626 113.381 1.38268C112.773 1.31911 112.338 1.0648 111.73 1.00122C111.209 0.937647 110.601 1.0648 110.08 1.0648C108.691 1.12838 107.301 1.25553 105.911 1.38268C105.303 1.44626 104.608 1.50984 104.174 1.82772C104 1.95487 103.914 2.08202 103.74 2.20917C103.392 2.3999 102.784 2.27275 102.35 2.1456C101.482 1.89129 100.526 1.76414 99.5709 1.76414C98.7023 1.76414 97.8338 1.82772 96.9652 1.82772C96.4441 1.82772 95.923 1.70056 95.4019 1.63699C93.3173 1.3191 91.146 1.31911 88.9746 1.19195C87.4113 1.12838 85.8479 1.0648 84.2845 1.00122C79.1601 0.874071 74.1226 0.937645 68.9982 1.12837C66.4794 1.19195 63.8738 1.3191 61.355 1.44626C60.2259 1.50983 58.9231 1.70056 57.7071 1.57341C57.3597 1.57341 57.0991 1.44626 56.7517 1.38268C56.4043 1.31911 56.0569 1.3191 55.7095 1.3191C54.3198 1.3191 52.8433 1.3191 51.4536 1.3191C49.8034 1.3191 48.1531 1.3191 46.5029 1.3191C45.9818 1.3191 45.3738 1.38268 44.8527 1.38268C44.3316 1.38268 43.8973 1.3191 43.3762 1.3191C42.3339 1.3191 41.2916 1.44626 40.3363 1.76414C39.9888 1.89129 39.5546 2.01845 39.2072 2.01845C38.4255 2.01845 37.9912 1.44625 37.2964 1.25552C35.733 0.683338 34.0827 1.76414 32.4325 1.3191C31.6508 1.12838 30.7823 1.12837 29.9137 1.12837C28.7846 1.12837 27.7424 1.12837 26.6133 1.12837C22.9654 1.12837 19.2307 1.25553 15.5828 1.50984C13.7588 1.63699 11.9349 1.82771 10.111 2.08202C9.24243 2.20917 8.37389 2.3999 7.41849 2.46348C7.15793 2.46348 6.89736 2.46348 6.72366 2.59063C5.68141 3.16282 2.64151 6.27806 4.81286 7.35885C5.5077 7.74031 6.37624 7.74032 7.24478 7.74032C12.7166 7.67674 18.1016 7.61316 23.5734 7.54959C17.7541 7.86747 11.8481 8.24892 6.02882 8.5668C5.6814 8.5668 5.24713 8.63038 4.89971 8.75753C3.77061 9.20257 4.11803 10.2198 4.03117 10.9827C3.85746 11.9999 4.11803 13.0171 4.20488 14.0344C4.37859 15.3059 4.5523 16.5774 4.81286 17.8489C4.5523 17.8489 4.29174 17.7854 4.03117 17.7854C3.77061 17.7854 3.51005 17.7218 3.33634 17.5946C3.24948 17.4675 3.16263 17.3403 3.16263 17.2132C2.90207 14.7337 3.24949 12.3178 3.07578 9.90191Z" fill="#EB924D"/>
<path d="M173.745 43.2159C117.897 44.9325 62.8316 44.996 8.72145 43.2159C6.28953 43.2159 4.03132 41.9444 3.16278 40.355C2.72851 39.6556 2.64165 38.8927 2.72851 38.1298C2.72851 38.0026 2.72851 37.8755 2.81536 37.7483C2.90222 37.5576 2.98907 37.3669 3.07593 37.1761C3.24964 36.4768 3.24963 35.7139 3.33649 35.0146C3.42334 34.3152 3.59705 33.4887 4.37874 33.0437C6.20268 32.09 9.67685 32.09 12.2825 32.0265C14.367 32.0265 16.5383 32.09 18.6228 32.1536C18.0149 32.1536 17.4069 32.3443 16.7989 32.4079C15.9304 32.4715 15.1487 32.4715 14.2801 32.5351C12.6299 32.5987 10.9797 32.6622 9.32943 32.7258C8.20033 32.7894 7.07122 32.853 5.94212 33.1073C5.50784 33.2344 5.16043 33.3616 4.81301 33.5523C4.46559 33.8066 4.37874 34.1245 4.20503 34.506C3.94447 35.1417 3.6839 35.9046 3.85761 36.604C3.85761 36.7947 4.03132 36.9854 4.03132 37.1761C4.03132 37.3669 4.03132 37.6212 4.03132 37.8119C4.03132 38.5748 4.03132 39.3377 4.46559 40.0371C5.50784 41.6901 8.11347 42.3894 10.5454 42.7073C13.4984 43.0888 16.0172 43.4702 18.9703 43.1523C23.313 43.2159 27.7425 43.2159 32.0852 43.2795C34.604 43.2795 37.2096 43.3431 39.7284 43.3431C40.1627 43.3431 40.5101 43.2159 40.9444 43.2159C41.5524 43.2159 42.1603 43.2795 42.7683 43.3431C43.9843 43.4066 45.2871 43.4702 46.503 43.4702C49.6298 43.5338 52.6697 43.5338 55.7965 43.3431C56.4913 43.2795 57.273 43.2159 57.9678 43.3431C59.0101 43.5974 60.0523 43.5338 61.1814 43.5974C63.7002 43.6609 66.219 43.6609 68.8246 43.5974C69.4326 43.5974 70.0406 43.5338 70.6485 43.5338C71.6039 43.4702 72.6462 43.4702 73.5147 43.1523C73.949 43.0252 74.3833 42.8344 74.9044 42.7073C76.2941 42.453 77.6837 42.9616 79.0734 43.2795C80.8105 43.7245 82.7213 43.5338 84.5452 43.5974C87.064 43.7245 89.409 43.8517 91.9278 43.5974H92.0147C93.1438 43.4702 94.3597 43.2795 95.402 42.898C95.9231 42.7073 96.5311 42.453 97.1391 42.453C97.9208 42.453 98.5287 42.8345 99.1367 43.0888C101.134 43.9788 103.653 43.9152 105.998 43.7881C107.996 43.5974 109.994 43.3431 111.991 43.5338C112.86 43.5974 113.641 43.5338 114.423 43.5338C115.465 43.5338 116.508 43.5338 117.55 43.5338C126.062 43.5974 134.573 43.5974 143.172 43.4066C146.733 43.3431 150.381 43.2159 153.942 43.0252C155.853 42.9616 157.763 42.8344 159.674 42.7073C160.63 42.6437 161.585 42.5801 162.54 42.5166C165.407 42.3258 168.273 42.3258 171.139 42.1987C172.876 42.1351 174.7 41.9444 176.09 41.245C176.958 40.8636 177.566 40.2278 177.827 39.5285C178 39.2106 178 38.8291 177.914 38.4477C177.827 38.2569 177.74 38.1298 177.74 37.9391C177.74 37.3669 177.74 36.7311 177.74 36.1589C177.74 35.2053 177.827 34.2516 177.653 33.298C177.653 33.1708 177.566 33.1073 177.479 32.9801C177.392 32.9165 177.306 32.9165 177.132 32.853C176.611 32.7258 176.176 32.6622 175.655 32.5351C176.263 32.2808 177.045 32.0265 177.219 31.5179C177.306 31.2636 177.306 31.0728 177.306 30.8185C177.306 30.2463 177.219 29.6741 176.958 29.1655C176.611 28.6569 176.611 28.2119 175.829 28.0847C172.007 27.3218 167.925 26.6225 163.93 26.0503C168.36 26.3046 172.876 26.6225 177.306 27.0039C177.827 27.0675 178.435 27.1311 178.695 27.449C178.956 27.7033 178.956 28.0212 178.956 28.2755C178.956 29.547 178.956 30.8821 179.043 32.1536C179.129 34.0609 179.303 35.9682 179.564 37.8755C180.085 40.8636 177.306 43.1523 173.745 43.2159Z" fill="#EB924D"/>
<path d="M76.7284 7.8678C70.8223 8.63071 64.7425 8.56714 58.8364 7.74065C64.8294 7.48634 70.8223 7.74065 76.7284 7.8678Z" fill="#EB924D"/>
<path d="M125.019 11.4278C122.066 11.8093 119.026 11.6821 115.986 11.555C107.735 11.3007 99.3101 10.9828 91.5801 8.88477C96.2702 8.88477 100.873 9.45696 105.564 9.90199C111.904 10.5378 118.592 10.9828 125.019 11.4278Z" fill="#EB924D"/>
<path d="M128.754 11.237C126.582 11.1734 124.411 10.9827 122.24 10.8555C112.425 10.0926 102.524 9.26611 92.7092 8.5032C82.0262 7.6767 71.2563 6.78663 60.5732 7.35882C59.1835 7.35882 57.6201 7.48597 56.2305 7.48597C62.8314 7.99458 69.4323 8.18531 76.0332 7.99458C78.6389 7.93101 81.2445 7.80386 83.8501 7.99458C85.9346 8.12174 87.9323 8.5032 90.0168 8.82108C93.8384 9.45684 97.66 9.90188 101.568 10.2833C112.425 11.3641 123.282 11.7456 134.226 11.7456C132.054 11.4913 130.751 11.3006 128.754 11.237Z" fill="url(#paint7_linear_217_1284)"/>
<path d="M42.0736 18.2939C36.8624 18.7389 31.5643 18.7389 26.353 18.2939C31.5643 17.8489 36.7755 17.976 42.0736 18.2939Z" fill="#EB924D"/>
<path d="M46.1556 18.294C38.773 18.1669 31.3035 18.1669 23.9209 18.2305C24.7894 18.2305 25.7448 18.1033 26.6134 17.9762C27.5688 17.9126 28.4373 17.7854 29.3927 17.7218C31.2167 17.5947 33.1274 17.5311 34.9514 17.6583C35.2988 17.6583 35.5594 17.6583 35.8199 17.5947C36.2542 17.5311 36.6885 17.5947 37.1227 17.6583C38.0781 17.7218 39.0335 17.7218 39.9889 17.7854C41.8997 17.9126 43.8105 18.0397 45.6345 18.2305C45.895 18.294 45.9819 18.294 46.1556 18.294Z" fill="url(#paint8_linear_217_1284)"/>
<path d="M60.5737 27.1309C58.5761 27.703 56.5784 28.2752 54.4939 28.8474C53.1911 29.2289 51.9751 29.5467 50.5855 29.8011C48.8484 30.1189 47.1113 30.1825 45.3742 30.3097C40.9446 30.564 36.4282 30.7547 32.1724 29.9282C41.8132 29.8646 51.1934 28.5295 60.5737 27.1309Z" fill="#EB924D"/>
<path d="M69.519 25.4785C64.3946 26.4322 59.2702 27.4494 54.1458 28.403C51.7139 28.8481 49.282 29.3567 46.7632 29.611C43.6364 29.9289 40.5097 29.9924 37.3829 30.056C34.6036 30.056 31.8243 30.056 29.0449 30.056C30.0872 29.9289 31.2163 29.8017 32.2585 29.7381C32.6928 29.6746 33.1271 29.7381 33.5613 29.6746C35.8196 29.4203 37.9909 29.5474 40.2491 29.4838C42.681 29.4202 45.0261 28.9752 47.3712 28.6573C51.1059 28.2123 54.8406 27.7037 58.5754 27.1315C62.397 26.6229 65.958 26.0507 69.519 25.4785Z" fill="url(#paint9_linear_217_1284)"/>
<path d="M158.719 32.7896C154.463 33.9339 149.859 33.6796 145.343 33.4889C144.388 33.4253 143.432 33.4253 142.477 33.4889C141.869 33.5525 141.261 33.616 140.653 33.7432C137.96 34.1247 135.268 34.5061 132.575 34.6333C129.883 34.7604 127.104 34.5697 124.498 33.8704C131.62 34.6968 138.916 33.1074 146.125 32.9803C147.949 32.9803 149.686 33.0439 151.51 32.9167C153.942 32.8531 156.2 32.8531 158.719 32.7896Z" fill="#EB924D"/>
<path d="M121.805 33.6795C125.714 34.061 129.622 34.506 133.53 34.2517C136.049 34.1246 138.568 33.6795 141.087 33.4888C144.04 33.2345 147.08 33.2981 150.12 33.2345C155.505 33.1709 160.89 32.853 166.275 32.2173C164.798 32.2173 163.321 32.2173 161.758 32.2173C160.455 32.2809 159.152 32.2173 157.85 32.2173C154.897 32.2809 152.03 32.408 149.077 32.5987C146.124 32.7895 143.258 32.9802 140.305 33.1709C137.352 33.3617 134.486 33.5524 131.533 33.616C128.58 33.7431 125.714 33.7431 122.761 33.616C122.5 33.6795 122.153 33.6795 121.805 33.6795Z" fill="url(#paint10_linear_217_1284)"/>
<defs>
<linearGradient id="paint0_linear_217_1284" x1="137.935" y1="-70.899" x2="120.161" y2="-5.55497" gradientUnits="userSpaceOnUse">
<stop stop-color="#CF5C2B"/>
<stop offset="1" stop-color="#59173E"/>
</linearGradient>
<linearGradient id="paint1_linear_217_1284" x1="102.454" y1="-21.1382" x2="86.9121" y2="90.8482" gradientUnits="userSpaceOnUse">
<stop stop-color="#CF5C2B"/>
<stop offset="1" stop-color="#59173E"/>
</linearGradient>
<linearGradient id="paint2_linear_217_1284" x1="101.992" y1="-17.7133" x2="82.0409" y2="121.48" gradientUnits="userSpaceOnUse">
<stop stop-color="#CF5C2B"/>
<stop offset="1" stop-color="#59173E"/>
</linearGradient>
<linearGradient id="paint3_linear_217_1284" x1="135.326" y1="-0.67371" x2="130.317" y2="17.6193" gradientUnits="userSpaceOnUse">
<stop stop-color="#CF5C2B"/>
<stop offset="1" stop-color="#59173E"/>
</linearGradient>
<linearGradient id="paint4_linear_217_1284" x1="136.577" y1="-1.81777" x2="124.473" y2="36.523" gradientUnits="userSpaceOnUse">
<stop stop-color="#CF5C2B"/>
<stop offset="1" stop-color="#59173E"/>
</linearGradient>
<linearGradient id="paint5_linear_217_1284" x1="71.2867" y1="17.4661" x2="66.2779" y2="35.7591" gradientUnits="userSpaceOnUse">
<stop stop-color="#CF5C2B"/>
<stop offset="1" stop-color="#59173E"/>
</linearGradient>
<linearGradient id="paint6_linear_217_1284" x1="90.8533" y1="-13.4498" x2="61.1616" y2="78.8495" gradientUnits="userSpaceOnUse">
<stop stop-color="#CF5C2B"/>
<stop offset="1" stop-color="#59173E"/>
</linearGradient>
<linearGradient id="paint7_linear_217_1284" x1="117.794" y1="-21.8885" x2="108.942" y2="0.985561" gradientUnits="userSpaceOnUse">
<stop stop-color="#CF5C2B"/>
<stop offset="1" stop-color="#59173E"/>
</linearGradient>
<linearGradient id="paint8_linear_217_1284" x1="71.1619" y1="-46.9289" x2="58.4935" y2="-4.20323" gradientUnits="userSpaceOnUse">
<stop stop-color="#CF5C2B"/>
<stop offset="1" stop-color="#59173E"/>
</linearGradient>
<linearGradient id="paint9_linear_217_1284" x1="87.964" y1="-41.9459" x2="75.2958" y2="0.779568" gradientUnits="userSpaceOnUse">
<stop stop-color="#CF5C2B"/>
<stop offset="1" stop-color="#59173E"/>
</linearGradient>
<linearGradient id="paint10_linear_217_1284" x1="173.598" y1="-16.5426" x2="159.957" y2="26.1134" gradientUnits="userSpaceOnUse">
<stop stop-color="#CF5C2B"/>
<stop offset="1" stop-color="#59173E"/>
</linearGradient>
</defs>
</svg>
