<svg width="139" height="40" viewBox="0 0 139 40" fill="none" xmlns="http://www.w3.org/2000/svg">
<path d="M138.864 31.8808C138.797 31.0331 138.73 30.2384 138.663 29.3908C138.596 28.5431 138.529 27.6424 138.462 26.7947C138.395 26.2119 138.328 25.5762 138.328 24.9404C138.328 24.4106 138.596 23.5629 138.194 23.1391C137.992 22.8742 137.523 22.7682 137.12 22.7152C136.584 22.6623 136.047 22.5563 135.578 22.5033C136.249 22.3974 136.986 22.1854 137.657 22.0265C137.791 21.9735 137.992 21.9205 138.059 21.8146C138.127 21.7086 138.194 21.6027 138.194 21.4967C138.395 20.3841 138.261 19.1656 138.261 18C138.261 16.8344 138.261 15.6689 138.261 14.5033C138.261 13.3907 138.261 12.2781 138.261 11.1655C138.261 10.7947 138.462 9.99998 138.194 9.6821C137.992 9.4172 137.59 9.4172 137.255 9.4172C136.919 9.36422 136.584 9.36422 136.181 9.4172C135.645 9.4172 135.175 9.52316 134.639 9.57614C135.31 9.4172 135.98 9.36422 136.718 9.20528C137.188 9.09932 137.59 8.99336 137.992 8.83442C138.261 8.72846 138.529 8.62249 138.663 8.46355C138.73 8.35759 138.73 8.25163 138.797 8.19865C138.864 7.98673 138.864 7.77481 138.864 7.56289C138.931 6.98011 138.931 6.39732 138.931 5.81454C138.931 5.54964 138.931 5.23176 138.931 4.96686C138.931 4.75494 138.864 4.596 138.797 4.38408C138.73 3.58937 138.328 2.84765 137.657 2.26487C136.986 1.68208 136.181 1.20526 135.175 1.04632C134.84 0.993338 134.438 0.94036 134.102 0.94036C90.7746 -0.172226 48.3188 -0.225206 6.80195 0.94036C6.6678 0.94036 6.46659 0.94036 6.33245 0.94036C6.13124 0.99334 5.9971 1.04632 5.86296 1.0993C5.5276 1.20526 5.19225 1.31123 4.85689 1.41719C4.25326 1.68209 3.64962 1.99997 3.2472 2.42381C2.97891 2.68871 2.84477 3.00659 2.64356 3.2715C2.50942 3.43044 2.37527 3.5364 2.3082 3.64236C1.83871 4.3311 1.43628 5.01984 0.832647 5.65561C0.22901 6.23839 0.0277975 7.19203 0.0948683 7.93375C0.161939 8.94038 0.229011 9.94701 0.296081 10.9536C0.497294 12.543 0.296081 14.1325 0.497293 15.7748C0.497293 15.9868 0.564364 16.2516 0.765576 16.4106C0.899718 16.5166 1.10093 16.5695 1.30214 16.5695C1.97285 16.6755 2.57649 16.7815 3.2472 16.8874C2.44235 17.3113 1.30214 17.3113 0.832647 18C0.698505 18.2119 0.698506 18.4768 0.631435 18.6888C0.564364 19.5364 0.430223 20.3841 0.363152 21.2318C0.363152 21.6027 0.296081 21.9735 0.296081 22.3974C0.296081 22.7682 0.22901 23.1391 0.22901 23.457C0.0948688 24.3047 -0.173415 25.4172 0.161939 26.2649C0.497293 27.0596 1.77164 27.1126 2.64356 27.2715C2.17406 27.3245 1.83871 27.5894 1.57043 27.9073C1.43628 28.0663 1.36921 28.2252 1.23507 28.3841C1.10093 28.5431 1.03386 28.649 0.899718 28.808C0.698506 29.0729 0.564364 29.3908 0.430222 29.7086C0.363151 29.9206 0.296081 30.0795 0.296081 30.2914C0.296081 30.5033 0.296081 30.6623 0.296081 30.8742C0.296081 31.2451 0.296081 31.6689 0.22901 32.0398C0.22901 32.8345 0.22901 33.5762 0.22901 34.3709C0.22901 35.1126 0.0277975 35.8543 0.430222 36.5961C0.832647 37.3378 1.50336 37.9736 2.37528 38.3974C3.04598 38.7153 3.85083 38.9272 4.65568 38.9272C46.4408 40.3577 88.8966 40.3577 132.09 38.9272C133.23 38.8742 134.303 38.5034 135.175 37.9206C135.578 37.6027 135.913 37.3908 136.249 37.0199C136.584 36.5961 136.986 36.1193 137.255 35.6424C137.992 34.4769 138.931 33.2053 138.864 31.8808Z" fill="url(#paint0_linear_217_215)"/>
<path d="M134.169 36.0133C91.0427 37.4438 48.5198 37.4968 6.73475 36.0133C4.85677 36.0133 3.11293 34.9537 2.44222 33.6292C2.10687 33.0464 2.0398 32.4107 2.10687 31.7749C2.10687 31.6689 2.10687 31.563 2.17394 31.457C2.24101 31.2981 2.30808 31.1391 2.37515 30.9802C2.37515 30.8742 2.37515 30.8213 2.44222 30.7153C2.50929 30.2385 2.50929 29.7087 2.57636 29.1789C2.64343 28.914 2.64343 28.5961 2.77758 28.3312C2.91172 28.0133 3.04586 27.7484 3.38121 27.5365C4.7897 26.7418 7.47253 26.7418 9.48465 26.6888C9.88708 26.6888 10.2224 26.6888 10.5578 26.6358C11.4297 26.5828 12.3016 26.5828 13.1735 26.5828C11.0944 26.5828 9.01516 26.4239 7.00303 26.159C6.06404 26.053 5.05798 25.8411 4.11899 25.6822C3.91778 25.6292 3.6495 25.5762 3.44828 25.4703C3.18 25.3643 2.91172 25.2054 2.77758 24.9934C2.64343 24.7815 2.64344 24.5696 2.71051 24.3577C2.71051 24.1457 2.71051 23.9338 2.71051 23.7219C2.71051 23.2981 2.77758 22.8742 2.84465 22.4504C2.91172 22.0795 2.97879 21.7616 2.97879 21.3908C3.04586 20.4371 3.11293 19.5365 3.24707 18.5828C3.24707 18.3179 3.31414 18 3.58243 17.7881C3.71657 17.6822 3.91778 17.6292 4.11899 17.5762C4.65556 17.4173 5.19212 17.3113 5.72869 17.2583C5.99697 17.2053 6.26526 17.2053 6.53354 17.1523C6.80182 17.0994 7.07011 17.0464 7.40546 16.9934C10.4236 16.7285 13.5089 16.4106 16.5271 16.1457C16.8624 16.0927 17.2649 16.0928 17.6002 16.0398C12.9723 15.6159 8.41152 15.1391 3.78364 14.7153C3.58243 14.7153 3.38121 14.6623 3.18 14.6623C2.97879 14.6623 2.77758 14.6093 2.71051 14.5033C2.64344 14.3974 2.57636 14.2914 2.57636 14.1855C2.37515 12.2252 2.57636 10.2119 2.44222 8.19869C2.44222 8.09273 2.37515 7.50995 2.37515 6.92717C2.30808 6.0265 2.24101 4.9669 2.17394 4.9669C1.97273 2.79471 4.11899 0.887419 6.86889 0.834439C48.3857 -0.278146 90.9086 -0.278146 134.169 0.834439C136.919 0.887419 139.065 2.79471 138.864 4.9669C138.797 5.70862 138.998 6.45035 138.73 7.19207C138.663 7.35101 138.596 7.56293 138.462 7.66889C138.328 7.77485 138.126 7.82783 137.925 7.82783C137.389 7.93379 136.852 8.03975 136.383 8.14571C135.712 8.25168 134.974 8.41061 134.303 8.46359C130.145 8.83445 125.987 9.15234 121.761 9.5232C121.627 9.5232 121.56 9.5232 121.426 9.57618C121.292 9.57618 121.158 9.57618 121.023 9.62916C121.359 9.62916 121.694 9.62916 122.029 9.62916C127.261 9.57618 132.492 9.47022 137.724 9.41724C137.858 9.41724 138.059 9.41724 138.126 9.47022C138.261 9.5232 138.261 9.68214 138.328 9.84108C138.328 10 138.395 10.2119 138.328 10.3709C138.328 10.9007 138.193 11.3775 138.193 11.9073C138.193 12.3841 138.328 12.861 138.328 13.3378C138.328 14.0265 138.261 14.7153 138.261 15.457C138.193 17.0464 138.059 18.6358 137.791 20.2252C137.724 20.4371 137.724 20.702 137.523 20.861C137.389 20.9669 137.12 21.0729 136.919 21.1259C136.785 21.1788 136.651 21.1789 136.517 21.2318C133.431 21.9206 130.078 21.3908 126.926 21.8146C126.724 21.8146 126.523 21.8676 126.322 21.9206C126.255 21.9206 126.188 21.9736 126.121 21.9736C126.389 21.9736 126.657 22.0265 126.926 22.0265C130.346 22.2385 133.834 22.5034 137.254 22.8212C137.657 22.8742 138.126 22.9272 138.328 23.1921C138.529 23.404 138.529 23.6689 138.529 23.8808V24.6756C138.529 25.4703 138.529 26.3179 138.596 27.1126C138.663 28.1723 138.73 29.2319 138.864 30.3444C138.931 30.8742 138.931 31.4041 138.998 31.9339C139.065 34.0531 136.919 35.9603 134.169 36.0133Z" fill="url(#paint1_linear_217_215)"/>
<path d="M138.261 13.3379C138.261 14.0266 138.194 14.7154 138.194 15.4571C136.45 15.5631 134.706 15.669 132.962 15.828C132.56 15.8809 132.157 15.8809 131.755 15.9339C130.279 16.0399 128.804 16.1458 127.328 16.2518C126.59 16.3048 125.852 16.3578 125.115 16.4107C124.645 16.4637 124.243 16.5697 123.773 16.6227C123.103 16.6756 122.432 16.5697 121.828 16.5167C121.09 16.4637 120.42 16.4637 119.682 16.4637C118.273 16.4637 116.798 16.5697 115.389 16.6756C112.505 16.9405 109.688 17.3644 106.871 17.7352C102.311 18.318 97.7498 18.7949 93.1219 19.1127C95.6036 19.3247 98.1523 19.6425 100.567 20.0664C99.6278 20.1194 98.7559 20.1723 97.8169 20.2253C94.8658 20.3843 91.9817 20.4372 89.0306 20.4902C86.0795 20.5432 83.1284 20.5432 80.2444 20.5432C77.2932 20.5432 74.3421 20.5432 71.4581 20.5432C68.507 20.5432 65.6229 20.5962 62.6718 20.7021C61.1963 20.7551 59.7207 20.8081 58.3122 20.9141C57.9769 20.9141 57.5744 20.967 57.2391 20.967C56.7696 21.02 56.3672 21.073 55.8977 21.126C52.41 21.4439 48.9223 21.8677 45.4346 22.3975C40.069 23.2452 34.6362 24.0399 29.2035 24.3578C28.1974 24.4108 27.2584 24.4638 26.2524 24.5167C21.5574 25.2585 16.46 25.4174 11.8322 25.8412C10.2895 26.0002 8.67983 26.0532 7.07013 26.1061C6.13114 26.0002 5.12508 25.7882 4.18609 25.6293C3.98488 25.5763 3.71659 25.5233 3.51538 25.4174C3.2471 25.3114 2.97882 25.1525 2.84467 24.9406C2.71053 24.7286 2.71053 24.5167 2.7776 24.3048C2.7776 24.0929 2.7776 23.881 2.7776 23.669C2.7776 23.2452 2.84467 22.8214 2.91174 22.3975C7.1372 22.1326 11.4968 21.179 15.5211 20.7021C20.7526 20.1194 26.0512 19.7485 31.3498 19.5366C37.3191 19.2717 43.2213 19.8545 49.1906 19.8545C54.6904 19.8545 60.1902 19.4836 65.6229 19.1127C76.2872 18.424 86.9514 17.7353 97.6157 16.9935C95.2682 16.9405 92.9878 16.8876 90.6403 16.8346C87.6892 16.7286 84.7381 16.6227 81.787 16.5167C81.1163 16.4637 80.3785 16.4107 79.7078 16.4637C79.0371 16.5167 78.2993 16.5697 77.5615 16.5167C76.153 16.5167 74.7446 16.3578 73.4031 16.0929C72.5983 15.9339 71.7934 15.722 70.9886 15.616C69.5801 15.4041 68.2387 15.5101 66.8302 15.4571C61.5987 15.4041 56.5013 14.2915 51.2698 14.3445C49.9284 14.3445 48.5199 14.4505 47.1785 14.5564C45.7029 14.6624 44.2944 14.7684 42.8189 14.8213C42.1482 14.8213 41.4774 14.8743 40.8738 14.7684C40.4043 14.6624 39.8677 14.7154 39.3312 14.7154C38.4593 14.7154 37.5873 14.6624 36.7154 14.6624C34.9716 14.6094 33.1607 14.6094 31.4168 14.6094C24.7097 14.5564 18.0697 14.8743 11.3627 14.8213C8.47862 14.8213 5.59457 14.7684 2.7776 14.4505C2.71053 14.3445 2.64346 14.2386 2.64346 14.1326C2.44225 12.1723 2.64346 10.1591 2.50932 8.14583C2.50932 8.03987 2.44225 7.45708 2.44225 6.8743C5.86286 6.66238 9.28347 6.55642 12.7041 6.39748C19.4112 6.02662 26.0512 5.86768 32.7582 5.86768C46.0383 5.92066 59.3183 6.6094 72.5983 7.4041C85.8783 8.1988 99.0912 9.20543 112.371 9.94715C119.078 10.318 125.785 10.5299 132.492 10.5299C134.438 10.5299 136.45 10.424 138.462 10.318C138.462 10.8478 138.328 11.3246 138.328 11.8544C138.126 12.4372 138.261 12.8611 138.261 13.3379ZM138.462 27.1128C138.395 26.3181 138.395 25.4704 138.395 24.6757C134.169 24.3048 129.944 23.9339 125.651 23.722C118.341 23.3512 111.03 23.4041 103.719 23.6161C102.177 23.669 100.701 23.669 99.2254 23.828C98.4876 23.881 97.7498 23.9869 97.0121 24.0399C94.128 24.3048 91.1769 24.5167 88.2258 24.7286C87.0856 24.7816 85.9454 24.8346 84.8052 24.8876C87.7563 24.8876 90.7074 24.8346 93.6585 24.8346C96.6096 24.8346 99.5607 24.7816 102.512 24.7816C103.987 24.7816 105.463 24.7816 106.939 24.7816C107.676 24.7816 108.414 24.7816 109.152 24.7816C109.487 24.7816 109.756 24.7816 110.091 24.7286C110.292 24.6757 110.426 24.6227 110.627 24.6227C111.298 24.5697 112.036 24.6757 112.707 24.6757C113.444 24.7286 114.182 24.7287 114.92 24.7816C116.396 24.8346 117.871 24.9406 119.347 24.9935C121.627 25.1525 123.974 25.2584 126.255 25.4704C128.804 25.6293 131.285 25.8942 133.767 26.1061C128.066 26.53 122.365 27.0068 116.664 27.2187C103.518 27.8015 90.372 28.4902 77.2262 28.3313C64.2815 28.1194 51.2698 27.5366 38.3251 27.5896C31.4839 27.5896 24.6427 27.6955 17.8015 27.8545C12.7711 27.9604 7.67377 27.9604 2.64346 28.3843C2.57639 28.6492 2.50932 28.9671 2.44225 29.232C2.37518 29.7088 2.37518 30.2386 2.30811 30.7684C7.94205 30.9273 13.576 30.6624 19.1429 30.6624C25.9841 30.6624 32.8253 30.7154 39.6665 30.8214C52.6112 31.0863 65.5559 31.6161 78.5005 31.828C91.6464 32.0399 104.859 31.2452 118.005 30.7684C124.779 30.5035 131.621 30.5035 138.395 30.4505H138.529C138.596 29.232 138.529 28.1724 138.462 27.1128Z" fill="url(#paint2_linear_217_215)"/>
<path d="M103.25 8.30465C100.567 7.0861 96.0736 7.45696 93.9274 9.09935C92.5859 10.106 92.5189 12.0133 93.9274 13.0199C97.0797 15.2451 102.512 14.2914 104.525 11.5364C104.592 11.4835 104.592 11.4835 104.659 11.4305C106.134 10.3709 105.061 8.56955 103.25 8.30465Z" fill="#EB924D"/>
<path d="M103.921 7.24508C101.238 6.02653 96.7445 6.39739 94.5983 8.03978C93.2568 9.04641 93.1898 10.9537 94.5983 11.9603C97.7506 14.1855 103.183 13.2318 105.195 10.4769C105.263 10.4239 105.263 10.4239 105.33 10.3709C106.805 9.3113 105.665 7.50998 103.921 7.24508Z" fill="url(#paint3_linear_217_215)"/>
<path d="M103.25 7.93355C100.567 6.71501 96.0736 7.08587 93.9274 8.72826C92.5859 9.73488 92.5189 11.6422 93.9274 12.6488C97.0797 14.874 102.512 13.9203 104.525 11.1654C104.592 11.1124 104.592 11.1124 104.659 11.0594C106.134 9.99978 105.061 8.19845 103.25 7.93355Z" fill="url(#paint4_linear_217_215)"/>
<path d="M52.5441 26.0527C49.8613 24.8341 45.3676 25.205 43.2213 26.8474C41.8799 27.854 41.8128 29.7613 43.2213 30.7679C46.3736 32.9931 51.8064 32.0395 53.8185 29.2845C53.8856 29.2315 53.8856 29.2315 53.9526 29.1785C55.4282 28.1189 54.3551 26.3176 52.5441 26.0527Z" fill="#EB924D"/>
<path d="M53.215 25.0463C50.5322 23.8278 46.0385 24.1987 43.8922 25.841C42.5508 26.8477 42.4837 28.755 43.8922 29.7616C47.0445 31.9868 52.4773 31.0331 54.4894 28.2781C54.5565 28.2251 54.5565 28.2252 54.6235 28.1722C56.032 27.0596 54.9589 25.3112 53.215 25.0463Z" fill="url(#paint5_linear_217_215)"/>
<path d="M52.5441 25.6821C49.8613 24.4635 45.3676 24.8344 43.2213 26.4768C41.8799 27.4834 41.8128 29.3907 43.2213 30.3973C46.3736 32.6225 51.8064 31.6689 53.8185 28.9139C53.8856 28.8609 53.8856 28.8609 53.9526 28.8079C55.4282 27.7483 54.3551 25.947 52.5441 25.6821Z" fill="url(#paint6_linear_217_215)"/>
<path d="M3.2473 24.3574C3.2473 24.7813 3.2473 25.1522 3.38144 25.576C3.11316 25.47 2.84488 25.3111 2.71074 25.0992C2.5766 24.8872 2.57659 24.6753 2.64366 24.4634C2.64366 24.2515 2.64366 24.0396 2.64366 23.8276C2.71074 23.0329 2.84488 22.2912 2.91195 21.4965C2.97902 20.5429 3.04609 19.6422 3.18023 18.6886C3.18023 18.4237 3.2473 18.1058 3.51559 17.8939C3.64973 17.7879 3.85094 17.7349 4.05215 17.6819C4.58872 17.523 5.12528 17.417 5.66185 17.3641C5.93013 17.3111 6.19842 17.3111 6.4667 17.2581C6.73498 17.2051 7.00327 17.1521 7.33862 17.0992C10.3568 16.8343 13.4421 16.5164 16.4602 16.2515C13.1738 16.7813 9.88731 17.3111 6.66791 17.7879C5.9972 17.8938 5.19235 17.8938 4.65579 18.2117C4.45458 18.3177 4.25336 18.5296 4.11922 18.6886C4.05215 18.7415 3.58266 19.4833 3.78387 19.4833C6.19842 19.5362 8.61296 19.5892 11.0275 19.6952C9.2166 19.9071 7.47276 20.172 5.72892 20.4369C4.857 20.5958 3.85094 20.8078 3.44851 21.4435C3.18023 21.8674 3.2473 22.3972 3.31437 22.821C3.31437 22.98 3.38144 23.0859 3.44851 23.2448C3.38144 23.6157 3.31437 23.9866 3.2473 24.3574Z" fill="#EB924D"/>
<path d="M121.292 9.62916C121.091 9.62916 120.89 9.62915 120.755 9.57617H121.627C121.56 9.62915 121.426 9.62916 121.292 9.62916Z" fill="#EB924D"/>
<path d="M124.31 21.6558C125.182 21.7087 125.987 21.7617 126.859 21.8147C126.658 21.8147 126.456 21.8677 126.255 21.9207C125.584 21.8147 124.981 21.7087 124.31 21.6558Z" fill="#EB924D"/>
<path d="M136.852 20.649C136.986 20.2252 136.919 19.8014 136.919 19.3775C136.852 18.5828 136.785 17.7881 136.718 16.9934C136.718 16.8345 136.651 16.6755 136.517 16.5696C136.382 16.5166 136.248 16.5166 136.047 16.5166C134.773 16.5696 133.498 16.5696 132.291 16.6225C133.633 16.5166 134.974 16.2517 136.248 15.7749C136.584 15.6159 136.986 15.457 137.12 15.1921C137.187 15.0331 137.187 14.8742 137.187 14.7153C137.187 13.4437 136.919 12.0662 136.718 10.7947C136.114 10.3709 135.242 10.2649 134.437 10.2649C131.151 10.106 127.864 9.94703 124.511 9.78809C123.706 9.73511 122.834 9.73511 122.029 9.68213C127.261 9.62915 132.492 9.5232 137.724 9.47021C137.858 9.47021 138.059 9.47021 138.126 9.52319C138.26 9.57617 138.26 9.73512 138.327 9.89406C138.462 10.5828 138.26 11.2715 138.26 11.9603C138.26 12.4371 138.395 12.9139 138.395 13.3908C138.327 15.6159 138.193 18 137.858 20.2782C137.791 20.4901 137.791 20.755 137.59 20.9139C137.456 21.0199 137.187 21.1259 136.986 21.1788C136.852 21.2318 136.718 21.2318 136.584 21.2848C136.651 21.0729 136.785 20.861 136.852 20.649Z" fill="#EB924D"/>
<path d="M2.3756 8.25191C2.3756 7.98701 2.17438 5.02011 2.10731 5.02011C1.9061 2.84792 4.05237 0.940642 6.80227 0.887662C48.3191 -0.224924 90.842 -0.224924 134.103 0.887662C136.853 0.940642 138.999 2.84792 138.798 5.02011C138.731 5.76184 138.932 6.50357 138.663 7.24529C138.596 7.40423 138.529 7.61615 138.395 7.72211C138.261 7.82807 138.06 7.88105 137.859 7.88105C137.322 7.98701 136.853 8.09297 136.316 8.19893C136.785 7.88105 137.255 7.51019 137.523 7.03337C137.657 6.71548 137.523 6.45058 137.389 6.1327C137.188 5.65588 137.121 5.23204 137.121 4.70224C137.121 4.11946 137.255 3.21879 136.584 2.74197C136.115 2.37111 135.511 2.05322 134.975 1.8413C133.566 1.3115 131.889 1.15256 130.347 1.09958C130.28 1.09958 130.213 1.09958 130.078 1.09958C127.194 1.0466 124.31 0.99362 121.426 1.25852C121.091 1.3115 120.756 1.36448 120.42 1.41746C120.018 1.47044 119.481 1.41746 119.079 1.36448C118.073 1.3115 117.134 1.3115 116.128 1.25852C114.183 1.20554 112.17 1.15256 110.225 1.15256C108.75 1.15256 107.274 1.15256 105.799 1.15256C105.329 1.15256 104.86 1.15256 104.39 1.15256C103.518 1.15256 102.579 1.15256 101.707 1.15256C100.5 1.15256 99.2258 1.15256 98.0185 1.15256C97.9515 1.15256 97.8844 1.15256 97.8173 1.15256C95.8723 1.15256 93.8602 1.15256 91.9151 1.15256C90.909 1.15256 89.97 1.15256 88.964 1.15256C88.4945 1.15256 88.025 1.20554 87.5555 1.15256C87.086 1.09958 86.7506 0.887658 86.2812 0.834678C85.8787 0.781698 85.4092 0.887662 85.0068 0.887662C83.9337 0.940642 82.8605 1.0466 81.7874 1.15256C81.3179 1.20554 80.7814 1.25852 80.446 1.52342C80.3119 1.62938 80.2448 1.73534 80.1106 1.8413C79.8424 2.00024 79.3729 1.89428 79.0375 1.78832C78.3668 1.5764 77.629 1.47044 76.8912 1.47044C76.2205 1.47044 75.5498 1.52342 74.8791 1.52342C74.4767 1.52342 74.0743 1.41746 73.6718 1.36448C72.0621 1.09958 70.3854 1.09958 68.7086 0.99362C67.5013 0.94064 66.2941 0.887658 65.0868 0.834678C61.1296 0.728718 57.2395 0.781696 53.2823 0.940637C51.3373 0.993617 49.3252 1.09958 47.3801 1.20554C46.5082 1.25852 45.5021 1.41746 44.5631 1.3115C44.2948 1.3115 44.0936 1.20554 43.8253 1.15256C43.5571 1.09958 43.2888 1.09958 43.0205 1.09958C41.9474 1.09958 40.8072 1.09958 39.734 1.09958C38.4597 1.09958 37.1853 1.09958 35.911 1.09958C35.5086 1.09958 35.0391 1.15256 34.6367 1.15256C34.2342 1.15256 33.8989 1.09958 33.4964 1.09958C32.6916 1.09958 31.8867 1.20554 31.149 1.47044C30.8807 1.5764 30.5453 1.68237 30.277 1.68237C29.6734 1.68237 29.3381 1.20554 28.8015 1.0466C27.5942 0.569774 26.3199 1.47044 25.0455 1.09958C24.4419 0.940639 23.7712 0.940637 23.1005 0.940637C22.2285 0.940637 21.4237 0.940637 20.5518 0.940637C17.7348 0.940637 14.8508 1.0466 12.0338 1.25852C10.6253 1.36448 9.21682 1.52342 7.80833 1.73534C7.13762 1.8413 6.46692 2.00025 5.72914 2.05323C5.52793 2.05323 5.32671 2.05322 5.19257 2.15918C4.38772 2.63601 2.04024 5.23204 3.71701 6.1327C4.25358 6.45058 4.92429 6.45059 5.595 6.45059C9.82046 6.39761 13.9788 6.34463 18.2043 6.29165C13.7106 6.55655 9.14975 6.87442 4.656 7.13932C4.38772 7.13932 4.05237 7.19231 3.78408 7.29827C2.91216 7.66913 3.18045 8.51681 3.11338 9.15258C2.97923 10.0003 3.18045 10.8479 3.24752 11.6956C3.38166 12.7552 3.5158 13.8148 3.71701 14.8744C3.5158 14.8744 3.31459 14.8215 3.11338 14.8215C2.91216 14.8215 2.71095 14.7685 2.57681 14.6625C2.50974 14.5566 2.44267 14.4506 2.44267 14.3446C2.24146 12.2784 2.50974 10.2652 2.3756 8.25191Z" fill="#EB924D"/>
<path d="M134.169 36.0132C91.0427 37.4436 48.5198 37.4966 6.73475 36.0132C4.85677 36.0132 3.11293 34.9536 2.44222 33.6291C2.10687 33.0463 2.0398 32.4105 2.10687 31.7747C2.10687 31.6688 2.10687 31.5628 2.17394 31.4569C2.24101 31.2979 2.30808 31.139 2.37515 30.98C2.50929 30.3973 2.50929 29.7615 2.57636 29.1787C2.64343 28.5959 2.77758 27.9072 3.38121 27.5363C4.7897 26.7416 7.47253 26.7416 9.48465 26.6886C11.0944 26.6886 12.7711 26.7416 14.3808 26.7946C13.9113 26.7946 13.4418 26.9535 12.9723 27.0065C12.3016 27.0595 11.698 27.0595 11.0273 27.1125C9.75294 27.1655 8.47859 27.2184 7.20425 27.2714C6.33233 27.3244 5.46041 27.3774 4.58849 27.5893C4.25313 27.6953 3.98485 27.8012 3.71657 27.9602C3.44828 28.1721 3.38121 28.437 3.24707 28.7549C3.04586 29.2847 2.84465 29.9204 2.97879 30.5032C2.97879 30.6622 3.11293 30.8211 3.11293 30.98C3.11293 31.139 3.11293 31.3509 3.11293 31.5098C3.11293 32.1456 3.11293 32.7814 3.44828 33.3642C4.25313 34.7416 6.26526 35.3244 8.14324 35.5893C10.4236 35.9072 12.3687 36.2251 14.6491 35.9602C18.0026 36.0132 21.4233 36.0132 24.7768 36.0662C26.7218 36.0662 28.734 36.1191 30.679 36.1191C31.0144 36.1191 31.2827 36.0132 31.618 36.0132C32.0875 36.0132 32.557 36.0662 33.0265 36.1191C33.9655 36.1721 34.9715 36.2251 35.9105 36.2251C38.3251 36.2781 40.6726 36.2781 43.0871 36.1191C43.6237 36.0662 44.2273 36.0132 44.7639 36.1191C45.5687 36.3311 46.3736 36.2781 47.2455 36.3311C49.1906 36.384 51.1356 36.384 53.1477 36.3311C53.6172 36.3311 54.0867 36.2781 54.5562 36.2781C55.294 36.2251 56.0988 36.2251 56.7696 35.9602C57.1049 35.8542 57.4403 35.6953 57.8427 35.5893C58.9158 35.3774 59.9889 35.8012 61.0621 36.0662C62.4035 36.437 63.8791 36.2781 65.2875 36.3311C67.2326 36.437 69.0435 36.543 70.9886 36.3311H71.0556C71.9276 36.2251 72.8665 36.0661 73.6714 35.7483C74.0738 35.5893 74.5433 35.3774 75.0128 35.3774C75.6164 35.3774 76.0859 35.6953 76.5554 35.9072C78.0981 36.6489 80.0431 36.5959 81.854 36.49C83.3966 36.331 84.9393 36.1191 86.4819 36.2781C87.1526 36.331 87.7562 36.2781 88.3599 36.2781C89.1647 36.2781 89.9696 36.2781 90.7744 36.2781C97.3474 36.331 103.92 36.3311 110.56 36.1721C113.31 36.1191 116.127 36.0132 118.877 35.8542C120.353 35.8013 121.828 35.6953 123.304 35.5893C124.042 35.5364 124.779 35.4834 125.517 35.4304C127.73 35.2714 129.944 35.2714 132.157 35.1655C133.499 35.1125 134.907 34.9536 135.98 34.3708C136.651 34.0529 137.12 33.5231 137.322 32.9403C137.456 32.6754 137.456 32.3575 137.389 32.0396C137.322 31.8807 137.254 31.7748 137.254 31.6158C137.254 31.139 137.254 30.6092 137.254 30.1324C137.254 29.3377 137.322 28.5429 137.187 27.7482C137.187 27.6423 137.12 27.5893 137.053 27.4833C136.986 27.4304 136.919 27.4304 136.785 27.3774C136.383 27.2714 136.047 27.2184 135.645 27.1125C136.114 26.9006 136.718 26.6886 136.852 26.2648C136.919 26.0529 136.919 25.8939 136.919 25.682C136.919 25.2052 136.852 24.7284 136.651 24.3045C136.383 23.8807 136.383 23.5098 135.779 23.4039C132.828 22.7681 129.675 22.1853 126.59 21.7085C130.011 21.9204 133.499 22.1853 136.919 22.5032C137.322 22.5562 137.791 22.6092 137.992 22.8741C138.193 23.086 138.193 23.3509 138.193 23.5628C138.193 24.6224 138.193 25.735 138.261 26.7946C138.328 28.384 138.462 29.9734 138.663 31.5628C139.065 34.0529 136.919 35.9602 134.169 36.0132Z" fill="#EB924D"/>
<path d="M59.2511 6.5565C54.6903 7.19226 49.9954 7.13928 45.4346 6.45054C50.0625 6.23862 54.6903 6.45054 59.2511 6.5565Z" fill="#EB924D"/>
<path d="M96.5425 9.52302C94.2621 9.8409 91.9146 9.73495 89.5671 9.62899C83.1954 9.41706 76.6895 9.15216 70.7202 7.40381C74.342 7.40381 77.8968 7.88063 81.5186 8.2515C86.4148 8.7813 91.5792 9.15216 96.5425 9.52302Z" fill="#EB924D"/>
<path d="M99.4265 9.36456C97.7497 9.31158 96.0729 9.15263 94.3962 9.04667C86.8172 8.41091 79.1711 7.72217 71.5921 7.0864C63.3424 6.39766 55.0256 5.65594 46.7759 6.13276C45.7028 6.13276 44.4955 6.23872 43.4224 6.23872C48.5197 6.66256 53.6171 6.8215 58.7145 6.66256C60.7266 6.60958 62.7387 6.50362 64.7509 6.66256C66.3606 6.76852 67.9032 7.0864 69.5129 7.35131C72.464 7.88111 75.4151 8.25197 78.4333 8.56985C86.8172 9.47052 95.201 9.78839 103.652 9.78839C101.975 9.57647 100.969 9.41754 99.4265 9.36456Z" fill="url(#paint7_linear_217_215)"/>
<path d="M32.4899 15.2449C28.4657 15.6158 24.3743 15.6158 20.3501 15.2449C24.3743 14.8741 28.3986 14.98 32.4899 15.2449Z" fill="#EB924D"/>
<path d="M35.6423 15.2454C29.9413 15.1394 24.1732 15.1394 18.4722 15.1924C19.1429 15.1924 19.8807 15.0864 20.5514 14.9805C21.2891 14.9275 21.9598 14.8215 22.6976 14.7685C24.1061 14.6626 25.5817 14.6096 26.9902 14.7156C27.2584 14.7156 27.4597 14.7155 27.6609 14.6626C27.9962 14.6096 28.3316 14.6626 28.6669 14.7156C29.4047 14.7685 30.1425 14.7685 30.8803 14.8215C32.3558 14.9275 33.8314 15.0334 35.2399 15.1924C35.4411 15.2454 35.5081 15.2454 35.6423 15.2454Z" fill="url(#paint8_linear_217_215)"/>
<path d="M46.7764 22.6094C45.2338 23.0862 43.6911 23.563 42.0814 24.0398C41.0754 24.3577 40.1364 24.6226 39.0632 24.8345C37.7218 25.0994 36.3804 25.1524 35.039 25.2584C31.6184 25.4703 28.1307 25.6292 24.8442 24.9405C32.2891 24.8875 39.5327 23.7749 46.7764 22.6094Z" fill="#EB924D"/>
<path d="M53.6842 21.2319C49.727 22.0266 45.7698 22.8743 41.8127 23.669C39.9347 24.0399 38.0567 24.4637 36.1116 24.6757C33.6971 24.9406 31.2825 24.9935 28.868 25.0465C26.7217 25.0465 24.5755 25.0465 22.4292 25.0465C23.234 24.9406 24.106 24.8346 24.9108 24.7816C25.2462 24.7286 25.5815 24.7816 25.9169 24.7286C27.6607 24.5167 29.3375 24.6227 31.0813 24.5697C32.9593 24.5167 34.7702 24.1458 36.5811 23.8809C39.4652 23.5101 42.3492 23.0862 45.2333 22.6094C48.1844 22.1856 50.9343 21.7088 53.6842 21.2319Z" fill="url(#paint9_linear_217_215)"/>
<path d="M122.566 27.3247C119.28 28.2784 115.725 28.0664 112.237 27.9075C111.499 27.8545 110.762 27.8545 110.024 27.9075C109.554 27.9605 109.085 28.0135 108.615 28.1194C106.536 28.4373 104.457 28.7552 102.378 28.8611C100.299 28.9671 98.1523 28.8082 96.1401 28.2254C101.64 28.9141 107.274 27.5896 112.841 27.4836C114.249 27.4836 115.591 27.5366 116.999 27.4307C118.877 27.3777 120.621 27.3777 122.566 27.3247Z" fill="#EB924D"/>
<path d="M94.0605 28.0662C97.0787 28.3841 100.097 28.7549 103.115 28.543C105.06 28.4371 107.005 28.0662 108.95 27.9073C111.231 27.6953 113.578 27.7483 115.926 27.6953C120.084 27.6424 124.242 27.3775 128.401 26.8477C127.261 26.8477 126.12 26.8477 124.913 26.8477C123.907 26.9006 122.901 26.8477 121.895 26.8477C119.614 26.9006 117.401 27.0066 115.121 27.1655C112.84 27.3245 110.627 27.4834 108.347 27.6424C106.066 27.8013 103.853 27.9602 101.572 28.0132C99.2921 28.1192 97.0787 28.1192 94.7983 28.0132C94.5971 28.0662 94.3288 28.0662 94.0605 28.0662Z" fill="url(#paint10_linear_217_215)"/>
<defs>
<linearGradient id="paint0_linear_217_215" x1="106.516" y1="-59.0824" x2="90.7121" y2="-5.23933" gradientUnits="userSpaceOnUse">
<stop stop-color="#CF5C2B"/>
<stop offset="1" stop-color="#59173E"/>
</linearGradient>
<linearGradient id="paint1_linear_217_215" x1="79.1174" y1="-17.6151" x2="65.1839" y2="75.4176" gradientUnits="userSpaceOnUse">
<stop stop-color="#CF5C2B"/>
<stop offset="1" stop-color="#59173E"/>
</linearGradient>
<linearGradient id="paint2_linear_217_215" x1="78.7601" y1="-14.7609" x2="60.8779" y2="100.85" gradientUnits="userSpaceOnUse">
<stop stop-color="#CF5C2B"/>
<stop offset="1" stop-color="#59173E"/>
</linearGradient>
<linearGradient id="paint3_linear_217_215" x1="104.502" y1="-0.561506" x2="100.049" y2="14.5097" gradientUnits="userSpaceOnUse">
<stop stop-color="#CF5C2B"/>
<stop offset="1" stop-color="#59173E"/>
</linearGradient>
<linearGradient id="paint4_linear_217_215" x1="105.468" y1="-1.51489" x2="94.7431" y2="29.9663" gradientUnits="userSpaceOnUse">
<stop stop-color="#CF5C2B"/>
<stop offset="1" stop-color="#59173E"/>
</linearGradient>
<linearGradient id="paint5_linear_217_215" x1="55.049" y1="14.5548" x2="50.5958" y2="29.626" gradientUnits="userSpaceOnUse">
<stop stop-color="#CF5C2B"/>
<stop offset="1" stop-color="#59173E"/>
</linearGradient>
<linearGradient id="paint6_linear_217_215" x1="70.1587" y1="-11.2087" x2="43.8633" y2="64.5386" gradientUnits="userSpaceOnUse">
<stop stop-color="#CF5C2B"/>
<stop offset="1" stop-color="#59173E"/>
</linearGradient>
<linearGradient id="paint7_linear_217_215" x1="90.9633" y1="-18.24" x2="83.1698" y2="0.421752" gradientUnits="userSpaceOnUse">
<stop stop-color="#CF5C2B"/>
<stop offset="1" stop-color="#59173E"/>
</linearGradient>
<linearGradient id="paint8_linear_217_215" x1="54.9527" y1="-39.1071" x2="43.7098" y2="-3.96957" gradientUnits="userSpaceOnUse">
<stop stop-color="#CF5C2B"/>
<stop offset="1" stop-color="#59173E"/>
</linearGradient>
<linearGradient id="paint9_linear_217_215" x1="67.9278" y1="-34.9551" x2="56.685" y2="0.182287" gradientUnits="userSpaceOnUse">
<stop stop-color="#CF5C2B"/>
<stop offset="1" stop-color="#59173E"/>
</linearGradient>
<linearGradient id="paint10_linear_217_215" x1="134.056" y1="-13.7856" x2="121.974" y2="21.2267" gradientUnits="userSpaceOnUse">
<stop stop-color="#CF5C2B"/>
<stop offset="1" stop-color="#59173E"/>
</linearGradient>
</defs>
</svg>
