<svg width="81" height="40" viewBox="0 0 81 40" fill="none" xmlns="http://www.w3.org/2000/svg">
<path d="M23.7921 17.9099C23.0867 19.4641 23.5905 20.8939 24.3161 21.3083C25.0416 21.7228 27.1376 21.4741 27.5205 20.8317C28.0042 19.9821 24.5378 16.2106 23.7921 17.9099Z" fill="white"/>
<path d="M25.3237 9.55876C23.7315 9.64165 21.4944 11.2787 22.9052 13.5582C24.2958 15.8376 26.6941 14.4285 28.1049 13.2473C30.3218 11.3823 26.9158 9.47587 25.3237 9.55876ZM26.0694 12.6878C25.626 12.3977 24.9407 12.5221 25.2834 12.004C25.626 11.5067 26.2507 11.3409 26.674 11.631C27.1174 11.9418 27.198 12.5842 26.8554 13.0816C26.5329 13.6203 26.5127 12.9987 26.0694 12.6878Z" fill="white"/>
<path d="M34.4736 18.9049C34.0906 16.9984 31.3296 13.6829 30.201 16.957C29.4956 19.0292 28.8708 22.3448 31.4102 23.1737C33.9496 24.0233 34.8565 20.8114 34.4736 18.9049ZM31.1482 18.8013C30.9063 18.1589 30.2413 17.8688 30.866 17.6408C31.4908 17.3922 32.176 17.703 32.4179 18.3454C32.6597 18.9878 32.3574 19.6924 31.7326 19.941C31.1079 20.169 31.39 19.4437 31.1482 18.8013Z" fill="white"/>
<path d="M37.2348 5.5387C38.2223 1.35278 35.3806 0.0679967 33.9497 0.00582955C32.1358 -0.0770599 29.9189 0.689668 29.5562 4.52331C29.5562 4.54403 33.1637 2.78263 37.2348 5.5387Z" fill="white"/>
<path d="M14.7027 24.0645C16.5166 35.0474 20.1241 40 22.5224 40C24.9207 40 25.9083 40 25.9083 40C27.3593 40 27.9035 38.9846 26.4121 37.4304C25.5455 36.5394 25.8276 34.5086 26.1098 33.2031C27.6818 33.1616 27.843 33.058 29.1933 32.8715C32.8412 32.1048 34.0101 29.8875 34.1109 28.0225C34.2116 25.9088 31.3095 25.4115 29.2941 25.8052C22.7441 27.1107 21.0915 23.4636 21.9783 19.4434C22.7038 16.1278 19.4792 16.8117 20.628 12.7501C21.8977 8.33623 24.7393 6.61628 28.7298 4.73054C26.5935 4.17104 23.5906 3.83948 20.6481 4.97921C15.388 6.96856 12.8486 12.8744 14.7027 24.0645Z" fill="white"/>
<path d="M3.19494 18.2002C-1.74274 20.4382 -0.311827 26.4892 3.13448 26.7793C3.73909 31.9392 6.15755 40.0002 10.9139 40.0002C12.6471 40.0002 14.7028 40.0002 14.7028 40.0002C16.1337 40.0002 16.8391 37.7829 15.2066 37.2234C13.7959 36.7467 11.9014 35.7935 12.1432 30.385C12.5463 21.2671 5.29094 19.6093 11.2363 10.1807C8.4954 11.8385 4.60571 14.7189 3.19494 18.2002Z" fill="white"/>
<path d="M31.0474 33.9075C31.4505 34.9643 31.7125 36.6221 30.9063 37.3889C29.6971 38.5493 29.8583 39.9999 31.1885 39.9999C31.1885 39.9999 33.1837 39.9999 34.5542 39.9999C38.0005 39.9999 43.5428 30.364 42.5754 21.9507C40.4189 28.4368 36.7912 31.4001 31.0474 33.9075Z" fill="white"/>
<path d="M47.0497 12.3356C46.4653 10.7814 44.8933 9.55878 41.709 10.6571C41.709 10.6571 44.3491 13.2266 43.1198 17.3089C47.0901 16.5215 47.5133 13.5789 47.0497 12.3356Z" fill="white"/>
<path d="M65.4482 11.424C66.4082 11.952 67.0722 12.592 67.4402 13.344C67.8242 14.096 67.9522 14.872 67.8242 15.672C67.7122 16.456 67.3602 17.216 66.7682 17.952C66.1762 18.688 65.3922 19.296 64.4162 19.776C65.1522 20.192 65.6402 20.704 65.8802 21.312C66.1362 21.904 66.2002 22.504 66.0722 23.112C65.9602 23.704 65.6962 24.272 65.2802 24.816C64.8642 25.344 64.3602 25.76 63.7682 26.064C63.4322 26.24 62.9762 26.4 62.4002 26.544C61.8402 26.688 61.2322 26.8 60.5762 26.88C59.9362 26.96 59.2802 27.008 58.6082 27.024C57.9522 27.04 57.3762 27 56.8802 26.904C56.6242 26.84 56.4082 26.712 56.2322 26.52C56.0722 26.312 55.9922 26.072 55.9922 25.8C55.9602 24.392 55.9522 23.08 55.9682 21.864C56.0002 20.632 56.0242 19.44 56.0402 18.288C56.0722 17.12 56.0962 15.96 56.1122 14.808C56.1282 13.656 56.1122 12.448 56.0642 11.184C56.0482 10.896 56.1122 10.68 56.2562 10.536C56.4162 10.392 56.6162 10.296 56.8562 10.248C57.0962 10.184 57.3602 10.16 57.6482 10.176C57.9522 10.192 58.2482 10.224 58.5362 10.272C58.8242 10.32 59.0882 10.376 59.3282 10.44C59.5682 10.488 59.7602 10.52 59.9042 10.536C60.3842 10.552 60.8642 10.568 61.3442 10.584C61.8402 10.584 62.3202 10.616 62.7842 10.68C63.2642 10.728 63.7282 10.808 64.1762 10.92C64.6242 11.032 65.0482 11.2 65.4482 11.424ZM60.0002 19.104C60.7682 19.024 61.4002 18.792 61.8962 18.408C62.3922 18.008 62.7522 17.544 62.9762 17.016C63.2002 16.488 63.2962 15.92 63.2642 15.312C63.2322 14.704 63.0722 14.144 62.7842 13.632C62.4962 13.12 62.0882 12.696 61.5602 12.36C61.0482 12.008 60.4162 11.824 59.6642 11.808C59.7282 13.024 59.7842 14.24 59.8322 15.456C59.8802 16.656 59.9362 17.872 60.0002 19.104ZM60.1682 25.536C60.7922 25.28 61.2722 24.888 61.6082 24.36C61.9442 23.832 62.1202 23.28 62.1362 22.704C62.1522 22.128 61.9842 21.592 61.6322 21.096C61.2962 20.584 60.7602 20.224 60.0242 20.016C60.0562 20.96 60.0802 21.888 60.0962 22.8C60.1122 23.696 60.1362 24.608 60.1682 25.536ZM70.2291 10.416C72.2931 10.048 74.0131 10.032 75.3891 10.368C76.7811 10.704 77.8371 11.24 78.5571 11.976C79.2771 12.696 79.6851 13.528 79.7811 14.472C79.8771 15.4 79.6691 16.288 79.1571 17.136C78.6451 17.968 77.8451 18.664 76.7571 19.224C75.6691 19.784 74.3171 20.048 72.7011 20.016C72.7331 21.232 72.7651 22.248 72.7971 23.064C72.8291 23.864 72.8371 24.52 72.8211 25.032C72.8211 25.528 72.7971 25.912 72.7491 26.184C72.7011 26.44 72.6051 26.624 72.4611 26.736C72.3331 26.832 72.1491 26.896 71.9091 26.928C71.6691 26.944 71.3651 26.96 70.9971 26.976C70.7091 26.992 70.4291 27 70.1571 27C69.9011 26.984 69.6771 26.952 69.4851 26.904C69.2931 26.84 69.1411 26.744 69.0291 26.616C68.9171 26.472 68.8611 26.28 68.8611 26.04C68.8611 24.504 68.8451 23.088 68.8131 21.792C68.7971 20.48 68.7811 19.248 68.7651 18.096C68.7651 16.944 68.7651 15.856 68.7651 14.832C68.7811 13.792 68.8211 12.784 68.8851 11.808C68.9171 11.44 69.0611 11.136 69.3171 10.896C69.5731 10.64 69.8771 10.48 70.2291 10.416ZM72.3411 11.52C72.3091 12.24 72.3171 13.248 72.3651 14.544C72.4131 15.84 72.4931 17.28 72.6051 18.864C73.0851 18.816 73.5251 18.624 73.9251 18.288C74.3251 17.952 74.6611 17.552 74.9331 17.088C75.2211 16.608 75.4291 16.112 75.5571 15.6C75.7011 15.072 75.7651 14.6 75.7491 14.184C75.7331 13.832 75.6531 13.48 75.5091 13.128C75.3811 12.776 75.1731 12.472 74.8851 12.216C74.6131 11.96 74.2691 11.768 73.8531 11.64C73.4371 11.496 72.9331 11.456 72.3411 11.52Z" fill="white"/>
</svg>
