<svg width="177" height="50" viewBox="0 0 177 50" fill="none" xmlns="http://www.w3.org/2000/svg">
<path d="M29.7401 22.3872C28.8584 24.3299 29.4882 26.1172 30.3951 26.6353C31.302 27.1534 33.922 26.8425 34.4007 26.0395C35.0053 24.9775 30.6722 20.2632 29.7401 22.3872Z" fill="white"/>
<path d="M31.6548 11.9486C29.6646 12.0522 26.8683 14.0985 28.6318 16.9478C30.37 19.7972 33.3679 18.0358 35.1314 16.5593C37.9025 14.228 33.645 11.845 31.6548 11.9486ZM32.5869 15.8599C32.0327 15.4973 31.1762 15.6527 31.6044 15.0051C32.0327 14.3834 32.8137 14.1762 33.3427 14.5389C33.8969 14.9274 33.9977 15.7304 33.5694 16.3521C33.1664 17.0256 33.1412 16.2485 32.5869 15.8599Z" fill="white"/>
<path d="M43.0923 23.6309C42.6137 21.2478 39.1623 17.1033 37.7516 21.196C36.8698 23.7863 36.0889 27.9308 39.2631 28.9669C42.4373 30.0289 43.571 26.014 43.0923 23.6309ZM38.9356 23.5014C38.6333 22.6984 37.8019 22.3357 38.5829 22.0508C39.3639 21.74 40.2204 22.1285 40.5227 22.9315C40.825 23.7345 40.4471 24.6152 39.6662 24.926C38.8852 25.211 39.2379 24.3044 38.9356 23.5014Z" fill="white"/>
<path d="M46.5436 6.92337C47.778 1.69098 44.2259 0.0849958 42.4372 0.00728694C40.1699 -0.0963248 37.3988 0.862085 36.9453 5.65413C36.9453 5.68003 41.4547 3.47828 46.5436 6.92337Z" fill="white"/>
<path d="M18.3785 30.0805C20.6458 43.8091 25.1553 49.9999 28.1531 49.9999C31.151 49.9999 32.3854 49.9999 32.3854 49.9999C34.1993 49.9999 34.8795 48.7306 33.0152 46.7879C31.932 45.6741 32.2847 43.1356 32.6374 41.5037C34.6024 41.4519 34.8039 41.3224 36.4918 41.0892C41.0516 40.1308 42.5127 37.3592 42.6387 35.028C42.7647 32.3859 39.137 31.7642 36.6177 32.2563C28.4303 33.8882 26.3645 29.3293 27.4729 24.3041C28.3799 20.1597 24.3491 21.0145 25.7851 15.9375C27.3722 10.4202 30.9243 8.27022 35.9124 5.91305C33.242 5.21367 29.4883 4.79923 25.8103 6.22389C19.2351 8.71057 16.0608 16.0929 18.3785 30.0805Z" fill="white"/>
<path d="M3.99368 22.75C-2.17843 25.5475 -0.389783 33.1112 3.91809 33.4738C4.67386 39.9237 7.69694 49.9999 13.6423 49.9999C15.8088 49.9999 18.3785 49.9999 18.3785 49.9999C20.1671 49.9999 21.0488 47.2283 19.0083 46.5289C17.2448 45.9332 14.8767 44.7416 15.179 37.981C15.6829 26.5837 6.61367 24.5114 14.0454 12.7256C10.6192 14.7978 5.75713 18.3983 3.99368 22.75Z" fill="white"/>
<path d="M38.8097 42.3845C39.3136 43.7055 39.6411 45.7778 38.6334 46.7362C37.1219 48.1867 37.3234 49.9999 38.9861 49.9999C38.9861 49.9999 41.4801 49.9999 43.1932 49.9999C47.5011 49.9999 54.4289 37.9551 53.2197 27.4385C50.5241 35.5461 45.9895 39.2502 38.8097 42.3845Z" fill="white"/>
<path d="M58.8117 15.4196C58.0811 13.4769 56.1161 11.9486 52.1357 13.3215C52.1357 13.3215 55.4359 16.5334 53.8992 21.6363C58.8621 20.652 59.3911 16.9738 58.8117 15.4196Z" fill="white"/>
<path d="M77.248 16.424C78.208 16.952 78.872 17.592 79.24 18.344C79.624 19.096 79.752 19.872 79.624 20.672C79.512 21.456 79.16 22.216 78.568 22.952C77.976 23.688 77.192 24.296 76.216 24.776C76.952 25.192 77.44 25.704 77.68 26.312C77.936 26.904 78 27.504 77.872 28.112C77.76 28.704 77.496 29.272 77.08 29.816C76.664 30.344 76.16 30.76 75.568 31.064C75.232 31.24 74.776 31.4 74.2 31.544C73.64 31.688 73.032 31.8 72.376 31.88C71.736 31.96 71.08 32.008 70.408 32.024C69.752 32.04 69.176 32 68.68 31.904C68.424 31.84 68.208 31.712 68.032 31.52C67.872 31.312 67.792 31.072 67.792 30.8C67.76 29.392 67.752 28.08 67.768 26.864C67.8 25.632 67.824 24.44 67.84 23.288C67.872 22.12 67.896 20.96 67.912 19.808C67.928 18.656 67.912 17.448 67.864 16.184C67.848 15.896 67.912 15.68 68.056 15.536C68.216 15.392 68.416 15.296 68.656 15.248C68.896 15.184 69.16 15.16 69.448 15.176C69.752 15.192 70.048 15.224 70.336 15.272C70.624 15.32 70.888 15.376 71.128 15.44C71.368 15.488 71.56 15.52 71.704 15.536C72.184 15.552 72.664 15.568 73.144 15.584C73.64 15.584 74.12 15.616 74.584 15.68C75.064 15.728 75.528 15.808 75.976 15.92C76.424 16.032 76.848 16.2 77.248 16.424ZM71.8 24.104C72.568 24.024 73.2 23.792 73.696 23.408C74.192 23.008 74.552 22.544 74.776 22.016C75 21.488 75.096 20.92 75.064 20.312C75.032 19.704 74.872 19.144 74.584 18.632C74.296 18.12 73.888 17.696 73.36 17.36C72.848 17.008 72.216 16.824 71.464 16.808C71.528 18.024 71.584 19.24 71.632 20.456C71.68 21.656 71.736 22.872 71.8 24.104ZM71.968 30.536C72.592 30.28 73.072 29.888 73.408 29.36C73.744 28.832 73.92 28.28 73.936 27.704C73.952 27.128 73.784 26.592 73.432 26.096C73.096 25.584 72.56 25.224 71.824 25.016C71.856 25.96 71.88 26.888 71.896 27.8C71.912 28.696 71.936 29.608 71.968 30.536ZM84.0211 21.848C84.8371 21.848 85.5091 21.992 86.0371 22.28C86.5651 22.568 86.9731 23.048 87.2611 23.72C87.5651 24.376 87.7731 25.248 87.8851 26.336C88.0131 27.424 88.0771 28.76 88.0771 30.344C88.0771 30.76 87.9971 31.08 87.8371 31.304C87.6931 31.512 87.5091 31.648 87.2851 31.712C87.0611 31.76 86.8211 31.736 86.5651 31.64C86.3251 31.544 86.1171 31.384 85.9411 31.16C85.4931 31.432 84.9571 31.648 84.3331 31.808C83.7091 31.952 83.0851 32.008 82.4611 31.976C81.8371 31.944 81.2451 31.792 80.6851 31.52C80.1411 31.248 79.7251 30.824 79.4371 30.248C79.0851 29.576 78.9811 28.976 79.1251 28.448C79.2691 27.904 79.5811 27.464 80.0611 27.128C80.5571 26.792 81.1811 26.568 81.9331 26.456C82.6851 26.344 83.4931 26.368 84.3571 26.528C84.3571 26.064 84.3331 25.616 84.2851 25.184C84.2371 24.736 84.1411 24.288 83.9971 23.84C83.9491 23.664 83.8211 23.56 83.6131 23.528C83.4051 23.496 83.2291 23.544 83.0851 23.672C82.7971 23.944 82.5171 24.232 82.2451 24.536C81.9731 24.84 81.7091 25.128 81.4531 25.4C81.2131 25.496 80.9731 25.552 80.7331 25.568C80.5091 25.584 80.3011 25.576 80.1091 25.544C79.9331 25.512 79.7891 25.456 79.6771 25.376C79.5651 25.296 79.5091 25.208 79.5091 25.112C79.5411 24.808 79.6611 24.472 79.8691 24.104C80.0771 23.72 80.3651 23.36 80.7331 23.024C81.1171 22.688 81.5811 22.408 82.1251 22.184C82.6851 21.96 83.3171 21.848 84.0211 21.848ZM82.8211 30.848C83.0611 30.688 83.2931 30.536 83.5171 30.392C83.7411 30.248 83.9491 30.104 84.1411 29.96C84.1091 29.752 84.0771 29.544 84.0451 29.336C84.0291 29.112 83.9971 28.896 83.9491 28.688C83.9011 28.464 83.8291 28.256 83.7331 28.064C83.6371 27.856 83.5011 27.664 83.3251 27.488C83.0691 27.68 82.8611 27.92 82.7011 28.208C82.5571 28.48 82.4611 28.776 82.4131 29.096C82.3651 29.4 82.3731 29.712 82.4371 30.032C82.5011 30.336 82.6291 30.608 82.8211 30.848ZM96.4345 22.112C96.7705 22.016 97.0505 22.2 97.2745 22.664C97.4985 23.128 97.6745 23.736 97.8025 24.488C97.9465 25.224 98.0425 26.04 98.0905 26.936C98.1545 27.832 98.1785 28.656 98.1625 29.408C98.1465 30.16 98.0985 30.784 98.0185 31.28C97.9385 31.76 97.8425 31.968 97.7305 31.904C96.8505 32.032 96.2185 32.072 95.8345 32.024C95.4505 31.992 95.2025 31.888 95.0905 31.712C94.9785 31.536 94.9465 31.312 94.9945 31.04C95.0425 30.752 95.0585 30.432 95.0425 30.08C95.0905 29.168 95.1065 28.28 95.0905 27.416C95.0745 26.536 95.0265 25.64 94.9465 24.728C94.9305 24.728 94.9145 24.728 94.8985 24.728C94.8825 24.712 94.8665 24.704 94.8505 24.704C94.1305 25.952 93.6025 27 93.2665 27.848C92.9465 28.68 92.7225 29.36 92.5945 29.888C92.4825 30.4 92.4185 30.792 92.4025 31.064C92.4025 31.336 92.3545 31.528 92.2585 31.64C92.1625 31.752 91.9785 31.816 91.7065 31.832C91.4505 31.848 91.0025 31.856 90.3625 31.856C90.2345 31.84 90.0985 31.824 89.9545 31.808C89.8105 31.792 89.6825 31.768 89.5705 31.736C89.4585 31.688 89.3705 31.624 89.3065 31.544C89.2425 31.448 89.2265 31.32 89.2585 31.16C89.2425 30.344 89.2265 29.56 89.2105 28.808C89.2105 28.056 89.2105 27.312 89.2105 26.576C89.2265 25.84 89.2585 25.104 89.3065 24.368C89.3705 23.616 89.4585 22.84 89.5705 22.04C90.3865 21.864 90.9785 21.784 91.3465 21.8C91.7305 21.8 91.9865 21.896 92.1145 22.088C92.2585 22.28 92.3225 22.56 92.3065 22.928C92.2905 23.28 92.2985 23.704 92.3305 24.2C92.3465 24.2 92.3545 24.208 92.3545 24.224C92.3545 24.224 92.3625 24.224 92.3785 24.224C92.7625 23.712 93.0745 23.304 93.3145 23C93.5545 22.696 93.7945 22.472 94.0345 22.328C94.2905 22.168 94.5945 22.08 94.9465 22.064C95.3145 22.048 95.8105 22.064 96.4345 22.112ZM108.359 25.808C108.343 26.896 108.367 27.8 108.431 28.52C108.495 29.224 108.551 29.8 108.599 30.248C108.663 30.696 108.695 31.04 108.695 31.28C108.695 31.504 108.631 31.672 108.503 31.784C108.231 31.864 107.927 31.92 107.591 31.952C107.271 31.984 106.951 31.992 106.631 31.976C106.327 31.96 106.047 31.92 105.791 31.856C105.535 31.792 105.343 31.696 105.215 31.568C104.079 31.936 103.095 32.056 102.263 31.928C101.447 31.784 100.783 31.456 100.271 30.944C99.7749 30.416 99.4309 29.736 99.2389 28.904C99.0629 28.072 99.0469 27.144 99.1909 26.12C99.2869 25.368 99.4789 24.64 99.7669 23.936C100.071 23.216 100.471 22.664 100.967 22.28C101.479 21.88 102.095 21.704 102.815 21.752C103.551 21.8 104.415 22.216 105.407 23C105.439 22.904 105.455 22.664 105.455 22.28C105.471 21.88 105.487 21.416 105.503 20.888C105.519 20.344 105.527 19.768 105.527 19.16C105.543 18.552 105.559 17.984 105.575 17.456C105.591 16.928 105.615 16.472 105.647 16.088C105.695 15.688 105.751 15.44 105.815 15.344C105.991 15.28 106.207 15.232 106.463 15.2C106.719 15.168 106.967 15.16 107.207 15.176C107.463 15.176 107.687 15.2 107.879 15.248C108.071 15.296 108.199 15.36 108.263 15.44C108.295 15.632 108.319 16 108.335 16.544C108.351 17.072 108.359 17.688 108.359 18.392C108.359 19.08 108.359 19.816 108.359 20.6C108.359 21.384 108.359 22.128 108.359 22.832C108.359 23.52 108.351 24.136 108.335 24.68C108.335 25.224 108.343 25.6 108.359 25.808ZM102.983 30.584C103.575 29.944 104.047 29.28 104.399 28.592C104.767 27.888 104.983 27.224 105.047 26.6C105.111 25.96 104.999 25.392 104.711 24.896C104.423 24.4 103.919 24.032 103.199 23.792C102.895 23.952 102.655 24.2 102.479 24.536C102.319 24.872 102.207 25.256 102.143 25.688C102.079 26.12 102.055 26.576 102.071 27.056C102.087 27.536 102.135 28.008 102.215 28.472C102.295 28.92 102.399 29.336 102.527 29.72C102.671 30.088 102.823 30.376 102.983 30.584ZM114.42 21.848C115.236 21.848 115.908 21.992 116.436 22.28C116.964 22.568 117.372 23.048 117.66 23.72C117.964 24.376 118.172 25.248 118.284 26.336C118.412 27.424 118.476 28.76 118.476 30.344C118.476 30.76 118.396 31.08 118.236 31.304C118.092 31.512 117.908 31.648 117.684 31.712C117.46 31.76 117.22 31.736 116.964 31.64C116.724 31.544 116.516 31.384 116.34 31.16C115.892 31.432 115.356 31.648 114.732 31.808C114.108 31.952 113.484 32.008 112.86 31.976C112.236 31.944 111.644 31.792 111.084 31.52C110.54 31.248 110.124 30.824 109.836 30.248C109.484 29.576 109.38 28.976 109.524 28.448C109.668 27.904 109.98 27.464 110.46 27.128C110.956 26.792 111.58 26.568 112.332 26.456C113.084 26.344 113.892 26.368 114.756 26.528C114.756 26.064 114.732 25.616 114.684 25.184C114.636 24.736 114.54 24.288 114.396 23.84C114.348 23.664 114.22 23.56 114.012 23.528C113.804 23.496 113.628 23.544 113.484 23.672C113.196 23.944 112.916 24.232 112.644 24.536C112.372 24.84 112.108 25.128 111.852 25.4C111.612 25.496 111.372 25.552 111.132 25.568C110.908 25.584 110.7 25.576 110.508 25.544C110.332 25.512 110.188 25.456 110.076 25.376C109.964 25.296 109.908 25.208 109.908 25.112C109.94 24.808 110.06 24.472 110.268 24.104C110.476 23.72 110.764 23.36 111.132 23.024C111.516 22.688 111.98 22.408 112.524 22.184C113.084 21.96 113.716 21.848 114.42 21.848ZM113.22 30.848C113.46 30.688 113.692 30.536 113.916 30.392C114.14 30.248 114.348 30.104 114.54 29.96C114.508 29.752 114.476 29.544 114.444 29.336C114.428 29.112 114.396 28.896 114.348 28.688C114.3 28.464 114.228 28.256 114.132 28.064C114.036 27.856 113.9 27.664 113.724 27.488C113.468 27.68 113.26 27.92 113.1 28.208C112.956 28.48 112.86 28.776 112.812 29.096C112.764 29.4 112.772 29.712 112.836 30.032C112.9 30.336 113.028 30.608 113.22 30.848ZM128.201 15.416C130.265 15.048 131.985 15.032 133.361 15.368C134.753 15.704 135.809 16.24 136.529 16.976C137.249 17.696 137.657 18.528 137.753 19.472C137.849 20.4 137.641 21.288 137.129 22.136C136.617 22.968 135.817 23.664 134.729 24.224C133.641 24.784 132.289 25.048 130.673 25.016C130.705 26.232 130.737 27.248 130.769 28.064C130.801 28.864 130.809 29.52 130.793 30.032C130.793 30.528 130.769 30.912 130.721 31.184C130.673 31.44 130.577 31.624 130.433 31.736C130.305 31.832 130.121 31.896 129.881 31.928C129.641 31.944 129.337 31.96 128.969 31.976C128.681 31.992 128.401 32 128.129 32C127.873 31.984 127.649 31.952 127.457 31.904C127.265 31.84 127.113 31.744 127.001 31.616C126.889 31.472 126.833 31.28 126.833 31.04C126.833 29.504 126.817 28.088 126.785 26.792C126.769 25.48 126.753 24.248 126.737 23.096C126.737 21.944 126.737 20.856 126.737 19.832C126.753 18.792 126.793 17.784 126.857 16.808C126.889 16.44 127.033 16.136 127.289 15.896C127.545 15.64 127.849 15.48 128.201 15.416ZM130.313 16.52C130.281 17.24 130.289 18.248 130.337 19.544C130.385 20.84 130.465 22.28 130.577 23.864C131.057 23.816 131.497 23.624 131.897 23.288C132.297 22.952 132.633 22.552 132.905 22.088C133.193 21.608 133.401 21.112 133.529 20.6C133.673 20.072 133.737 19.6 133.721 19.184C133.705 18.832 133.625 18.48 133.481 18.128C133.353 17.776 133.145 17.472 132.857 17.216C132.585 16.96 132.241 16.768 131.825 16.64C131.409 16.496 130.905 16.456 130.313 16.52ZM141.63 21.848C142.446 21.848 143.118 21.992 143.646 22.28C144.174 22.568 144.582 23.048 144.87 23.72C145.174 24.376 145.382 25.248 145.494 26.336C145.622 27.424 145.686 28.76 145.686 30.344C145.686 30.76 145.606 31.08 145.446 31.304C145.302 31.512 145.118 31.648 144.894 31.712C144.67 31.76 144.43 31.736 144.174 31.64C143.934 31.544 143.726 31.384 143.55 31.16C143.102 31.432 142.566 31.648 141.942 31.808C141.318 31.952 140.694 32.008 140.07 31.976C139.446 31.944 138.854 31.792 138.294 31.52C137.75 31.248 137.334 30.824 137.046 30.248C136.694 29.576 136.59 28.976 136.734 28.448C136.878 27.904 137.19 27.464 137.67 27.128C138.166 26.792 138.79 26.568 139.542 26.456C140.294 26.344 141.102 26.368 141.966 26.528C141.966 26.064 141.942 25.616 141.894 25.184C141.846 24.736 141.75 24.288 141.606 23.84C141.558 23.664 141.43 23.56 141.222 23.528C141.014 23.496 140.838 23.544 140.694 23.672C140.406 23.944 140.126 24.232 139.854 24.536C139.582 24.84 139.318 25.128 139.062 25.4C138.822 25.496 138.582 25.552 138.342 25.568C138.118 25.584 137.91 25.576 137.718 25.544C137.542 25.512 137.398 25.456 137.286 25.376C137.174 25.296 137.118 25.208 137.118 25.112C137.15 24.808 137.27 24.472 137.478 24.104C137.686 23.72 137.974 23.36 138.342 23.024C138.726 22.688 139.19 22.408 139.734 22.184C140.294 21.96 140.926 21.848 141.63 21.848ZM140.43 30.848C140.67 30.688 140.902 30.536 141.126 30.392C141.35 30.248 141.558 30.104 141.75 29.96C141.718 29.752 141.686 29.544 141.654 29.336C141.638 29.112 141.606 28.896 141.558 28.688C141.51 28.464 141.438 28.256 141.342 28.064C141.246 27.856 141.11 27.664 140.934 27.488C140.678 27.68 140.47 27.92 140.31 28.208C140.166 28.48 140.07 28.776 140.022 29.096C139.974 29.4 139.982 29.712 140.046 30.032C140.11 30.336 140.238 30.608 140.43 30.848ZM154.044 22.112C154.38 22.016 154.66 22.2 154.884 22.664C155.108 23.128 155.284 23.736 155.412 24.488C155.556 25.224 155.652 26.04 155.7 26.936C155.764 27.832 155.788 28.656 155.772 29.408C155.756 30.16 155.708 30.784 155.628 31.28C155.548 31.76 155.452 31.968 155.34 31.904C154.46 32.032 153.828 32.072 153.444 32.024C153.06 31.992 152.812 31.888 152.7 31.712C152.588 31.536 152.556 31.312 152.604 31.04C152.652 30.752 152.668 30.432 152.652 30.08C152.7 29.168 152.716 28.28 152.7 27.416C152.684 26.536 152.636 25.64 152.556 24.728C152.54 24.728 152.524 24.728 152.508 24.728C152.492 24.712 152.476 24.704 152.46 24.704C151.74 25.952 151.212 27 150.876 27.848C150.556 28.68 150.332 29.36 150.204 29.888C150.092 30.4 150.028 30.792 150.012 31.064C150.012 31.336 149.964 31.528 149.868 31.64C149.772 31.752 149.588 31.816 149.316 31.832C149.06 31.848 148.612 31.856 147.972 31.856C147.844 31.84 147.708 31.824 147.564 31.808C147.42 31.792 147.292 31.768 147.18 31.736C147.068 31.688 146.98 31.624 146.916 31.544C146.852 31.448 146.836 31.32 146.868 31.16C146.852 30.344 146.836 29.56 146.82 28.808C146.82 28.056 146.82 27.312 146.82 26.576C146.836 25.84 146.868 25.104 146.916 24.368C146.98 23.616 147.068 22.84 147.18 22.04C147.996 21.864 148.588 21.784 148.956 21.8C149.34 21.8 149.596 21.896 149.724 22.088C149.868 22.28 149.932 22.56 149.916 22.928C149.9 23.28 149.908 23.704 149.94 24.2C149.956 24.2 149.964 24.208 149.964 24.224C149.964 24.224 149.972 24.224 149.988 24.224C150.372 23.712 150.684 23.304 150.924 23C151.164 22.696 151.404 22.472 151.644 22.328C151.9 22.168 152.204 22.08 152.556 22.064C152.924 22.048 153.42 22.064 154.044 22.112ZM165.968 25.808C165.952 26.896 165.976 27.8 166.04 28.52C166.104 29.224 166.16 29.8 166.208 30.248C166.272 30.696 166.304 31.04 166.304 31.28C166.304 31.504 166.24 31.672 166.112 31.784C165.84 31.864 165.536 31.92 165.2 31.952C164.88 31.984 164.56 31.992 164.24 31.976C163.936 31.96 163.656 31.92 163.4 31.856C163.144 31.792 162.952 31.696 162.824 31.568C161.688 31.936 160.704 32.056 159.872 31.928C159.056 31.784 158.392 31.456 157.88 30.944C157.384 30.416 157.04 29.736 156.848 28.904C156.672 28.072 156.656 27.144 156.8 26.12C156.896 25.368 157.088 24.64 157.376 23.936C157.68 23.216 158.08 22.664 158.576 22.28C159.088 21.88 159.704 21.704 160.424 21.752C161.16 21.8 162.024 22.216 163.016 23C163.048 22.904 163.064 22.664 163.064 22.28C163.08 21.88 163.096 21.416 163.112 20.888C163.128 20.344 163.136 19.768 163.136 19.16C163.152 18.552 163.168 17.984 163.184 17.456C163.2 16.928 163.224 16.472 163.256 16.088C163.304 15.688 163.36 15.44 163.424 15.344C163.6 15.28 163.816 15.232 164.072 15.2C164.328 15.168 164.576 15.16 164.816 15.176C165.072 15.176 165.296 15.2 165.488 15.248C165.68 15.296 165.808 15.36 165.872 15.44C165.904 15.632 165.928 16 165.944 16.544C165.96 17.072 165.968 17.688 165.968 18.392C165.968 19.08 165.968 19.816 165.968 20.6C165.968 21.384 165.968 22.128 165.968 22.832C165.968 23.52 165.96 24.136 165.944 24.68C165.944 25.224 165.952 25.6 165.968 25.808ZM160.592 30.584C161.184 29.944 161.656 29.28 162.008 28.592C162.376 27.888 162.592 27.224 162.656 26.6C162.72 25.96 162.608 25.392 162.32 24.896C162.032 24.4 161.528 24.032 160.808 23.792C160.504 23.952 160.264 24.2 160.088 24.536C159.928 24.872 159.816 25.256 159.752 25.688C159.688 26.12 159.664 26.576 159.68 27.056C159.696 27.536 159.744 28.008 159.824 28.472C159.904 28.92 160.008 29.336 160.136 29.72C160.28 30.088 160.432 30.376 160.592 30.584ZM172.029 21.848C172.845 21.848 173.517 21.992 174.045 22.28C174.573 22.568 174.981 23.048 175.269 23.72C175.573 24.376 175.781 25.248 175.893 26.336C176.021 27.424 176.085 28.76 176.085 30.344C176.085 30.76 176.005 31.08 175.845 31.304C175.701 31.512 175.517 31.648 175.293 31.712C175.069 31.76 174.829 31.736 174.573 31.64C174.333 31.544 174.125 31.384 173.949 31.16C173.501 31.432 172.965 31.648 172.341 31.808C171.717 31.952 171.093 32.008 170.469 31.976C169.845 31.944 169.253 31.792 168.693 31.52C168.149 31.248 167.733 30.824 167.445 30.248C167.093 29.576 166.989 28.976 167.133 28.448C167.277 27.904 167.589 27.464 168.069 27.128C168.565 26.792 169.189 26.568 169.941 26.456C170.693 26.344 171.501 26.368 172.365 26.528C172.365 26.064 172.341 25.616 172.293 25.184C172.245 24.736 172.149 24.288 172.005 23.84C171.957 23.664 171.829 23.56 171.621 23.528C171.413 23.496 171.237 23.544 171.093 23.672C170.805 23.944 170.525 24.232 170.253 24.536C169.981 24.84 169.717 25.128 169.461 25.4C169.221 25.496 168.981 25.552 168.741 25.568C168.517 25.584 168.309 25.576 168.117 25.544C167.941 25.512 167.797 25.456 167.685 25.376C167.573 25.296 167.517 25.208 167.517 25.112C167.549 24.808 167.669 24.472 167.877 24.104C168.085 23.72 168.373 23.36 168.741 23.024C169.125 22.688 169.589 22.408 170.133 22.184C170.693 21.96 171.325 21.848 172.029 21.848ZM170.829 30.848C171.069 30.688 171.301 30.536 171.525 30.392C171.749 30.248 171.957 30.104 172.149 29.96C172.117 29.752 172.085 29.544 172.053 29.336C172.037 29.112 172.005 28.896 171.957 28.688C171.909 28.464 171.837 28.256 171.741 28.064C171.645 27.856 171.509 27.664 171.333 27.488C171.077 27.68 170.869 27.92 170.709 28.208C170.565 28.48 170.469 28.776 170.421 29.096C170.373 29.4 170.381 29.712 170.445 30.032C170.509 30.336 170.637 30.608 170.829 30.848Z" fill="white"/>
</svg>
