<svg width="27" height="24" viewBox="0 0 27 24" fill="none" xmlns="http://www.w3.org/2000/svg">
<path fill-rule="evenodd" clip-rule="evenodd" d="M7.7373 21.9997L11.2477 22.9283V21.7139L11.5342 21.4282H13.5401V22.8568V23.8568H11.391L8.74025 22.7139L7.7373 21.9997Z" fill="#CDBDB2"/>
<path fill-rule="evenodd" clip-rule="evenodd" d="M19.1992 21.9997L15.7605 22.9283V21.7139L15.474 21.4282H13.4681V22.8568V23.8568H15.6173L18.2678 22.7139L19.1992 21.9997Z" fill="#CDBDB2"/>
<path fill-rule="evenodd" clip-rule="evenodd" d="M11.5341 19.3572L11.2476 21.7143L11.6057 21.4286H15.3309L15.7608 21.7143L15.4742 19.3572L14.9011 19L12.0355 19.0715L11.5341 19.3572Z" fill="#393939"/>
<path fill-rule="evenodd" clip-rule="evenodd" d="M9.59961 3.42822L11.3189 7.42822L12.107 19.0711H14.9009L15.7606 7.42822L17.3366 3.42822H9.59961Z" fill="#F89C35"/>
<path fill-rule="evenodd" clip-rule="evenodd" d="M2.07767 12.2141L0.0717773 17.9998L5.08652 17.7141H8.31021V15.2141L8.16693 10.0713L7.45054 10.6427L2.07767 12.2141Z" fill="#F89D35"/>
<path fill-rule="evenodd" clip-rule="evenodd" d="M5.87451 12.8569L11.7489 12.9998L11.1042 15.9998L8.31024 15.2855L5.87451 12.8569Z" fill="#D87C30"/>
<path fill-rule="evenodd" clip-rule="evenodd" d="M5.87451 12.9287L8.31024 15.2144V17.5001L5.87451 12.9287Z" fill="#EA8D3A"/>
<path fill-rule="evenodd" clip-rule="evenodd" d="M8.31006 15.2856L11.1756 15.9999L12.107 19.0714L11.4622 19.4285L8.31006 17.5714V15.2856Z" fill="#F89D35"/>
<path fill-rule="evenodd" clip-rule="evenodd" d="M8.31042 17.5713L7.7373 21.9999L11.5342 19.3571L8.31042 17.5713Z" fill="#EB8F35"/>
<path fill-rule="evenodd" clip-rule="evenodd" d="M11.7491 13L12.1074 19.0715L11.0327 15.9643L11.7491 13Z" fill="#EA8E3A"/>
<path fill-rule="evenodd" clip-rule="evenodd" d="M5.01465 17.6428L8.31005 17.5713L7.73694 21.9999L5.01465 17.6428Z" fill="#D87C30"/>
<path fill-rule="evenodd" clip-rule="evenodd" d="M1.64784 23.9283L7.7371 21.9997L5.01482 17.6426L0.0717773 17.9997L1.64784 23.9283Z" fill="#EB8F35"/>
<path fill-rule="evenodd" clip-rule="evenodd" d="M11.3191 7.42822L8.23867 9.99965L5.87451 12.8568L11.7489 13.0711L11.3191 7.42822Z" fill="#E8821E"/>
<path fill-rule="evenodd" clip-rule="evenodd" d="M7.7373 21.9997L11.5342 19.3569L11.2477 21.6426V22.9284L8.66868 22.4283L7.7373 21.9997Z" fill="#DFCEC3"/>
<path fill-rule="evenodd" clip-rule="evenodd" d="M19.1992 21.9997L15.474 19.3569L15.7605 21.6426V22.9284L18.3395 22.4283L19.1992 21.9997Z" fill="#DFCEC3"/>
<path fill-rule="evenodd" clip-rule="evenodd" d="M10.1728 14.2856L10.9609 15.9286L8.16695 15.2143L10.1728 14.2856Z" fill="#393939"/>
<path fill-rule="evenodd" clip-rule="evenodd" d="M1.57617 0.0712891L11.3191 7.42837L9.67146 3.42837L1.57617 0.0712891Z" fill="#E88F35"/>
<path fill-rule="evenodd" clip-rule="evenodd" d="M1.57613 0.0712891L0.286621 3.99986L1.00301 8.28557L0.501539 8.57129L1.21793 9.21415L0.644817 9.71415L1.43285 10.4284L0.931373 10.857L2.0776 12.2856L7.45054 10.6427C10.0773 8.54748 11.3668 7.47605 11.319 7.42843C11.2713 7.38081 8.02365 4.92843 1.57613 0.0712891Z" fill="#8E5A30"/>
<path fill-rule="evenodd" clip-rule="evenodd" d="M24.8589 12.2141L26.8647 17.9998L21.85 17.7141H18.6263V15.2141L18.7696 10.0713L19.486 10.6427L24.8589 12.2141Z" fill="#F89D35"/>
<path fill-rule="evenodd" clip-rule="evenodd" d="M21.062 12.8569L15.1876 12.9998L15.8323 15.9998L18.6263 15.2855L21.062 12.8569Z" fill="#D87C30"/>
<path fill-rule="evenodd" clip-rule="evenodd" d="M21.062 12.9287L18.6263 15.2144V17.5001L21.062 12.9287Z" fill="#EA8D3A"/>
<path fill-rule="evenodd" clip-rule="evenodd" d="M18.6265 15.2856L15.7609 15.9999L14.8295 19.0714L15.4743 19.4285L18.6265 17.5714V15.2856Z" fill="#F89D35"/>
<path fill-rule="evenodd" clip-rule="evenodd" d="M18.6261 17.5713L19.1992 21.9999L15.474 19.4284L18.6261 17.5713Z" fill="#EB8F35"/>
<path fill-rule="evenodd" clip-rule="evenodd" d="M15.1874 13L14.8292 19.0715L15.9038 15.9643L15.1874 13Z" fill="#EA8E3A"/>
<path fill-rule="evenodd" clip-rule="evenodd" d="M21.9219 17.6428L18.6265 17.5713L19.1996 21.9999L21.9219 17.6428Z" fill="#D87C30"/>
<path fill-rule="evenodd" clip-rule="evenodd" d="M25.2887 23.9283L19.1994 21.9997L21.9217 17.6426L26.8647 17.9997L25.2887 23.9283Z" fill="#EB8F35"/>
<path fill-rule="evenodd" clip-rule="evenodd" d="M15.6175 7.42822L18.6979 9.99965L21.062 12.8568L15.1876 13.0711L15.6175 7.42822Z" fill="#E8821E"/>
<path fill-rule="evenodd" clip-rule="evenodd" d="M16.7637 14.2856L15.9756 15.9286L18.7696 15.2143L16.7637 14.2856Z" fill="#393939"/>
<path fill-rule="evenodd" clip-rule="evenodd" d="M25.3604 0.0712891L15.6174 7.42837L17.2651 3.42837L25.3604 0.0712891Z" fill="#E88F35"/>
<path fill-rule="evenodd" clip-rule="evenodd" d="M25.3604 0.0712891L26.6499 3.99986L25.9335 8.28557L26.435 8.57129L25.7186 9.21415L26.2917 9.71415L25.5037 10.4284L26.0052 10.857L24.8589 12.2856L19.486 10.6427C16.8592 8.54748 15.5697 7.47605 15.6175 7.42843C15.6652 7.38081 18.9129 4.92843 25.3604 0.0712891Z" fill="#8E5A30"/>
</svg>
