<svg width="32" height="32" viewBox="0 0 32 32" fill="none" xmlns="http://www.w3.org/2000/svg">
<path d="M0.205504 15.0791C0.0490736 15.9478 -0.0291417 16.8166 0.00996595 17.6853C0.0490736 18.5146 0.0881812 19.3439 0.59658 20.0547C0.792118 20.3311 1.02676 20.568 1.30051 20.7655C1.49605 20.8839 1.69159 20.9629 1.88713 21.0814C1.92623 21.1209 1.96535 21.1209 1.96535 21.1998C1.96535 21.3183 1.7698 21.4368 1.69159 21.4763C1.53516 21.5947 1.41784 21.7527 1.33962 21.9106C1.26141 22.2266 1.41784 22.582 1.53516 22.8979C1.84802 23.5692 2.23909 24.2405 2.63017 24.8723C4.27269 27.3996 6.14985 30.0059 9.04382 31.1511C10.6863 31.8224 12.4462 31.8619 14.206 31.9408C16.0441 32.0198 17.8821 32.0198 19.7202 31.9408C21.3627 31.8619 23.1617 31.7039 24.5695 30.8746C25.6255 30.2428 26.4467 29.2556 27.0724 28.3079C28.1283 26.7283 29.0278 25.0303 29.81 23.2928C29.8882 23.1348 30.0055 22.9768 30.0055 22.7794C30.0055 22.7004 30.0055 22.6214 30.0055 22.5425C29.9664 22.3845 29.9273 22.2266 29.81 22.0686C30.1228 21.9106 30.3575 21.6342 30.5139 21.3183C30.5921 21.1604 30.6703 20.9629 30.7094 20.805C30.7486 20.647 30.7877 20.5285 30.8659 20.3706C31.0614 20.0942 31.1396 19.6993 31.2178 19.3833C31.4525 18.5936 31.6089 17.8038 31.7653 17.014C31.7653 16.8955 31.8045 16.7771 31.8045 16.6586C31.8827 16.1453 31.9218 15.6319 31.9218 15.1185C31.9218 15.079 31.9218 15.0001 31.9218 14.9606C31.8436 16.8955 31.1787 18.5541 30.4357 20.3311C29.6144 22.2266 28.6367 24.0036 27.5417 25.7411C26.916 26.6888 26.0948 27.676 25.0388 28.3079C23.631 29.1766 21.8711 29.2951 20.2286 29.4135C18.3905 29.532 16.5916 29.532 14.7535 29.4135C13.0328 29.3346 11.273 29.2951 9.63043 28.6238C7.87059 27.913 6.42361 26.6493 5.25038 25.2277C3.99894 23.6876 2.98214 21.9106 2.12178 20.2521C0.753008 17.6458 0.244607 14.9606 0.909437 12.2358C0.596575 13.1441 0.401042 14.1708 0.205504 15.0791Z" fill="url(#paint0_linear_25_1610)"/>
<path d="M31.9609 14.7631C31.9609 14.8025 31.9609 14.842 31.9609 14.921C31.9218 15.8687 31.7653 16.777 31.4916 17.6063C31.2178 18.5145 30.8659 19.3833 30.4748 20.2915C30.2401 20.8444 29.9664 21.4367 29.6926 21.9895C29.6926 22.029 29.6535 22.0685 29.6535 22.108C29.0278 23.3717 28.3239 24.5563 27.5808 25.741C27.3071 26.1359 26.9942 26.5703 26.6813 26.9651C26.2121 27.4785 25.7037 27.9524 25.117 28.3078C23.7092 29.1765 21.9493 29.295 20.3068 29.4135C18.4688 29.5319 16.6698 29.5319 14.8317 29.4135C13.111 29.3345 11.3512 29.295 9.70864 28.6237C7.9488 27.9129 6.50181 26.6492 5.32858 25.2276C5.32858 25.2276 5.32858 25.2276 5.32858 25.1881C4.46821 24.1219 3.72518 22.9768 3.09946 21.8316C2.90392 21.5157 2.74749 21.1998 2.55195 20.8838C2.43463 20.6864 2.3173 20.4495 2.19997 20.252C2.08265 19.9756 1.92622 19.7387 1.8089 19.4622C1.22228 18.1986 0.87032 16.935 0.752997 15.6713C0.674782 14.921 0.674782 14.2102 0.752997 13.4599C0.792105 13.065 0.870323 12.6307 0.987646 12.2358C1.10497 11.7619 1.26139 11.288 1.45693 10.7747C1.49604 10.6562 1.57425 10.4982 1.61336 10.3798C1.76979 9.9454 1.96534 9.55051 2.16087 9.11613C2.2782 8.8792 2.35641 8.64226 2.47373 8.44482C2.70838 7.97095 2.94302 7.49708 3.17766 7.0627C3.33409 6.74679 3.52964 6.47037 3.68607 6.15446C3.92072 5.75957 4.15536 5.40416 4.39 5.04876C4.39 5.00927 4.42911 5.00928 4.42911 4.96979C4.54643 4.77235 4.66376 4.61439 4.82019 4.41695C4.93751 4.25899 5.01572 4.10103 5.13304 3.98257C5.13304 3.94308 5.17215 3.94307 5.17215 3.90358C6.11074 2.63994 7.24486 1.53425 8.84827 1.02089C12.2506 -0.124288 15.7703 -0.124293 19.4464 0.15213C20.9325 0.270597 22.575 0.547027 23.7483 1.45527C26.173 3.39023 28.2848 5.68058 29.9664 8.20788C30.0055 8.24737 30.0055 8.24737 30.0055 8.28686C30.6703 9.27409 31.1787 10.3798 31.4916 11.525C31.5698 11.7224 31.6089 11.9593 31.648 12.1568C31.6871 12.3147 31.7262 12.4727 31.7653 12.6307C31.7653 12.6307 31.7653 12.6307 31.7653 12.6701C31.8436 13.144 31.8827 13.5784 31.9218 14.0523C31.9609 14.3287 31.9609 14.5656 31.9609 14.7631Z" fill="url(#paint1_linear_25_1610)"/>
<path d="M31.9609 14.7631C31.9609 14.8025 31.9609 14.842 31.9609 14.921C31.9218 15.8687 31.7654 16.777 31.4916 17.6063C30.5531 17.5668 29.6145 17.4878 28.6368 17.4483C24.8433 17.2114 21.0499 16.9744 17.2565 16.777C11.7032 16.4611 6.189 16.3031 0.713935 15.6713C0.63572 14.921 0.63572 14.2102 0.713935 13.4599C6.189 13.065 11.6641 13.223 17.2565 13.3414C17.3347 13.3414 17.4129 13.3414 17.4911 13.3414C17.1782 13.302 16.8654 13.223 16.5525 13.1835C11.7032 12.4332 6.38454 11.9198 1.61341 10.3798C1.76984 9.9454 1.96538 9.55051 2.16092 9.11613C2.27824 8.8792 2.35646 8.64226 2.47378 8.44482C2.70842 7.97095 2.94306 7.49708 3.17771 7.0627C3.33414 6.74679 3.52969 6.47037 3.68612 6.15446C8.30082 6.03599 13.0719 6.7073 17.4911 7.0627C21.1281 7.37861 24.8042 7.61555 28.4804 8.01044C28.9888 8.04992 29.5363 8.1289 30.0447 8.20788C30.0838 8.24737 30.0838 8.24737 30.0838 8.28686C30.7486 9.27409 31.257 10.3798 31.5699 11.525C31.6481 11.7224 31.6872 11.9593 31.7263 12.1568C31.7654 12.3147 31.8045 12.4727 31.8436 12.6307C31.8436 12.6307 31.8436 12.6307 31.8436 12.6701C31.9218 13.144 31.9609 13.5784 32 14.0523C31.9609 14.3287 31.9609 14.5656 31.9609 14.7631ZM29.5363 22.108C27.9328 21.9501 26.3294 21.7921 24.726 21.7131C21.5192 21.6341 18.3124 21.4762 15.1055 21.3182C11.8987 21.1208 8.73099 20.9628 5.52417 20.9628C4.58559 20.9628 3.52968 20.8838 2.47378 20.8444C2.63021 21.1603 2.82574 21.4762 3.02128 21.7921C3.68611 22.9373 4.42916 24.0825 5.25042 25.1487C8.37903 25.741 11.5076 26.0569 14.7145 26.2938C17.9213 26.5308 21.1281 26.7282 24.3349 26.8467C25.1171 26.8862 25.8601 26.8862 26.6032 26.8862C26.9552 26.4913 27.268 26.0964 27.5027 25.662C28.2848 24.5168 28.9496 23.2927 29.5754 22.029C29.5754 22.108 29.5754 22.108 29.5363 22.108Z" fill="url(#paint2_linear_25_1610)"/>
<path d="M30.0446 8.28692C30.7095 9.27415 31.2179 10.3798 31.5307 11.525C31.4525 11.3671 31.3743 11.2091 31.2961 11.0906C31.0223 10.5773 30.7486 10.1034 30.4748 9.62955C29.9273 8.7213 29.3016 7.85255 28.6368 6.98379C28.363 6.62839 28.011 6.31247 27.8546 5.87809C27.6982 5.52269 27.4244 5.20678 27.1507 4.93036C26.2512 4.02211 25.1953 3.27183 24.2176 2.44256C23.6701 1.96869 23.0835 1.45532 22.4187 1.09992C21.7538 0.784011 21.0499 0.665551 20.3069 0.626062C20.0331 0.626062 19.7985 0.586571 19.5247 0.586571C19.4074 0.586571 19.3292 0.586568 19.2118 0.547079C19.0945 0.50759 18.9772 0.507588 18.8599 0.507588C18.5079 0.468099 18.195 0.428617 17.8431 0.428617C15.0664 0.231172 12.2507 0.468101 9.55225 1.13941C9.04385 1.25788 8.57456 1.41584 8.10527 1.65278C8.02705 1.69227 7.98794 1.73175 7.90973 1.77124C7.47954 2.04766 7.12758 2.36357 6.7365 2.67948C6.54096 2.83744 6.34542 2.9954 6.14988 3.15335C6.07167 3.19284 5.99345 3.27182 5.91524 3.31131C5.75881 3.39029 5.6806 3.54824 5.60238 3.66671C5.40684 3.94313 5.28952 4.25905 5.17219 4.57496C5.13309 4.61445 5.13308 4.65394 5.13308 4.73291C5.09398 4.89087 5.05488 5.04882 5.05488 5.24627C4.85934 5.24627 4.6638 5.16729 4.46826 5.08831C4.46826 5.04882 4.50737 5.04883 4.50737 5.00934C4.62469 4.8119 4.74202 4.65393 4.89845 4.45649C5.01577 4.29853 5.09398 4.14058 5.2113 4.02212C5.2113 3.98263 5.25041 3.98262 5.25041 3.94313C6.189 2.67949 7.32312 1.5738 8.92653 1.06044C12.3289 -0.0847373 15.8486 -0.0847421 19.5247 0.191681C21.0108 0.310148 22.6533 0.586566 23.8265 1.49481C26.173 3.39028 28.3239 5.68065 30.0446 8.28692Z" fill="#EB924D"/>
<path d="M31.7653 12.6701C31.7653 12.7096 31.7262 12.7886 31.7262 12.8281C31.687 12.6306 31.6479 12.3937 31.6479 12.1962V12.1567C31.7262 12.3542 31.7653 12.5121 31.7653 12.6701Z" fill="#EB924D"/>
<path d="M29.7316 14.0127C30.1227 14.0127 30.5138 14.0127 30.8658 14.2101C31.4524 14.4866 31.7261 15.1579 31.8826 15.7897C31.9608 15.2369 31.9217 14.684 31.8435 14.1312C31.8435 14.0522 31.8043 13.9337 31.7652 13.8547C31.687 13.7758 31.6088 13.6968 31.4915 13.6573C30.6702 13.2624 29.6925 13.4993 28.7931 13.6178C28.2455 13.6968 27.6589 13.7758 27.1114 13.8152C26.5639 13.8547 25.9773 13.8942 25.4298 13.8547C25.3125 13.8547 25.1952 13.8153 25.0778 13.8942C24.9605 13.9732 25.1169 13.9732 25.1952 13.9732C25.4689 13.9732 25.7818 13.9732 26.0555 13.9732C26.6421 13.9732 27.1897 13.9732 27.7763 13.9732C28.3629 13.9732 28.9104 13.9732 29.497 13.9732C29.5752 14.0127 29.6534 14.0127 29.7316 14.0127Z" fill="#EB924D"/>
<path d="M27.5419 25.7013C26.9162 26.6886 26.0949 27.6363 25.039 28.2681C23.6311 29.1369 21.8713 29.2553 20.2288 29.3738C18.3907 29.4923 16.5917 29.4923 14.7537 29.3738C13.0329 29.2948 11.2731 29.2553 9.63058 28.584C7.87074 27.8732 6.42377 26.6096 5.25054 25.188C4.39017 24.1218 3.64712 22.9766 2.98229 21.7919C2.66943 21.2391 2.39568 20.7257 2.12193 20.2124C2.00461 19.9359 1.84817 19.699 1.73085 19.4226C0.635838 17.0532 0.283867 14.6444 0.909589 12.1961C1.02691 11.7222 1.18335 11.2484 1.37889 10.735C1.49621 10.4191 1.61353 10.1427 1.73085 9.82676C1.88728 9.47136 2.08281 9.11596 2.20014 8.76056C2.35657 8.40516 2.513 8.04976 2.66943 7.69436C3.0214 7.02304 3.45158 6.39122 3.95998 5.79889C4.03819 5.71991 4.11641 5.60144 4.23374 5.56195C4.35106 5.52246 4.42927 5.52246 4.54659 5.52246C4.89856 5.52246 5.25054 5.56195 5.6025 5.60144C6.73662 5.71991 7.87075 6.0753 9.00487 6.03581C9.59149 6.03581 10.139 5.91735 10.7256 5.87786C10.9994 5.87786 11.3122 5.87786 11.586 5.87786C11.7424 5.87786 11.8597 5.87786 12.0162 5.91735C12.0944 5.91735 12.1726 5.91735 12.2508 5.91735C12.2899 5.91735 12.329 5.91735 12.3681 5.91735C12.4072 5.91735 12.4463 5.91735 12.4854 5.95684C12.2117 6.03582 11.9379 6.07531 11.6642 6.1148C11.3904 6.15428 11.1167 6.19377 10.8429 6.23326C10.2954 6.31224 9.70881 6.31224 9.1613 6.31224C8.61379 6.31224 8.02717 6.31224 7.47966 6.31224C6.97127 6.31224 6.50198 6.27275 5.99358 6.27275C5.48518 6.27275 4.97679 6.23327 4.50749 6.39122C3.88177 6.58867 3.37336 7.10202 2.98229 7.65486C2.98229 7.69435 2.94319 7.69436 2.94319 7.73385C2.70854 8.08925 2.5521 8.44464 2.39567 8.83953C2.31746 9.03698 2.27836 9.23442 2.16104 9.39238C2.12193 9.43187 2.08282 9.47136 2.04371 9.55034C1.96549 9.62932 1.92639 9.74778 1.88728 9.86625C1.76996 10.1032 1.69175 10.3401 1.57442 10.577C1.41799 10.9719 1.26156 11.3273 1.18335 11.7222C1.06602 12.0381 0.909592 12.4725 0.948699 12.8279C0.987807 13.1043 0.909589 13.4203 0.909589 13.6967C0.909589 13.7757 0.870482 14.6049 0.909589 14.6049C1.4571 14.6444 2.00461 14.7629 2.513 14.9208C2.27836 14.9603 2.04371 14.9998 1.84817 15.0393C1.65263 15.0788 1.37888 15.1973 1.22245 15.3552C1.14423 15.4342 1.14424 15.5527 1.14424 15.6711C1.10513 15.9081 1.10513 16.145 1.14424 16.3424C1.26156 17.3297 1.57442 18.2774 1.9655 19.1857C2.04372 19.4226 2.16103 19.62 2.23925 19.857C2.31746 20.0544 2.39567 20.2519 2.59121 20.3703C2.70854 20.4493 2.90408 20.4888 3.06051 20.5283C3.37337 20.6073 3.68623 20.7257 3.99909 20.8047C4.66392 20.9232 5.28964 21.0416 5.95447 21.0416C7.1277 21.0811 8.34004 20.8442 9.51327 21.1601C9.31773 21.1601 9.12219 21.1996 8.96576 21.1996C7.79253 21.2786 6.61931 21.3575 5.48519 21.4365C4.89857 21.476 4.35105 21.5155 3.76444 21.5155C3.64712 21.5155 3.37337 21.476 3.29516 21.634C3.29516 21.6735 3.29516 21.7129 3.29516 21.7524C3.33426 21.9894 3.49069 22.1868 3.60801 22.3843C3.92087 22.9371 4.31196 23.4505 4.70303 23.9638C5.055 24.4772 5.48518 24.951 5.91536 25.4249C6.1109 25.6224 6.30644 25.8593 6.54108 26.0567C6.58019 26.0962 6.61931 26.0962 6.65841 26.1357C6.85395 26.2542 7.01038 26.4516 7.16681 26.5701C7.51878 26.886 7.90985 27.2019 8.34004 27.4388C8.92665 27.7942 9.59148 28.0707 10.2563 28.2681C11.586 28.663 12.9938 28.821 14.3626 28.8999C17.2566 29.0974 20.1896 29.0184 23.0054 28.3471C23.7875 28.1891 24.5306 27.9522 25.2345 27.5573C26.4078 26.886 27.229 25.7408 27.9721 24.6351C28.4414 23.9638 28.8715 23.2135 28.9498 22.3843C28.4023 22.2263 27.8547 22.0683 27.3072 21.9499C27.8547 21.9104 28.4413 21.8314 28.9889 21.7919C29.0671 21.7919 29.1062 21.7919 29.1844 21.7919C29.2235 21.7919 29.2626 21.8314 29.3408 21.7919C29.4191 21.7919 29.4973 21.7919 29.5364 21.7524C29.5755 21.7524 29.7319 21.7129 29.7319 21.7129C29.6537 22.0289 29.5364 22.3053 29.3799 22.5817C29.3017 22.7002 29.2235 22.8186 29.1453 22.9371C29.028 23.0951 28.9106 23.332 28.8324 23.5294C28.676 23.7664 28.5587 24.0033 28.4022 24.2797C28.1285 24.7931 27.8156 25.267 27.5419 25.7013Z" fill="#EB924D"/>
<path d="M24.022 13.9731C26.0556 13.9336 28.0892 13.8941 30.0837 13.8547C30.4747 13.8547 30.8658 13.8546 31.2569 13.9731C31.6089 14.1311 31.9217 14.447 31.9217 14.8419V14.8024C31.9217 14.5654 31.9217 14.3285 31.9217 14.0916C31.8826 13.6177 31.8435 13.1439 31.7653 12.7095C31.7262 12.7885 31.7262 12.8279 31.648 12.9069C31.4915 13.1044 31.1005 13.1044 30.8658 13.1438C30.6703 13.1833 30.4356 13.1833 30.2401 13.2228C28.2065 13.4598 26.1338 13.6967 24.022 13.9731Z" fill="url(#paint3_linear_25_1610)"/>
<path d="M2.78681 21.2394C2.86502 21.4369 2.94324 21.6343 3.02146 21.8317C2.7086 21.2789 2.43485 20.7655 2.1611 20.2522C2.04377 19.9758 1.88734 19.7388 1.77002 19.4624C1.80913 19.5019 1.84823 19.5414 1.88734 19.5414C2.08288 19.6993 2.27842 19.8573 2.51306 19.9758C3.217 20.3707 4.07737 20.4891 4.89863 20.6076C5.36792 20.6866 5.8372 20.7655 6.30649 20.7655C8.10545 20.963 9.90441 21.1209 11.7425 21.2789C8.69207 21.1999 5.75899 21.1999 2.78681 21.2394Z" fill="url(#paint4_linear_25_1610)"/>
<path d="M29.8099 20.9236C29.0278 21.5159 27.9719 21.7528 26.9551 21.9898C27.8546 21.9898 28.7149 21.9898 29.6144 22.0293C29.4971 22.1872 29.458 22.3847 29.5362 22.5426C29.6926 22.1477 29.8882 21.7133 30.0446 21.3185C30.201 20.9236 30.3574 20.4892 30.553 20.1338C30.553 20.2523 30.3183 20.4497 30.2401 20.5682C30.1228 20.6471 29.9664 20.8051 29.8099 20.9236Z" fill="url(#paint5_linear_25_1610)"/>
<path d="M13.5413 5.95706C10.9993 6.35195 8.30087 6.31245 5.75888 6.03603C5.32869 5.99654 4.74207 5.83859 4.351 6.11501C4.11635 6.27297 3.92082 6.43093 3.68618 6.5494C3.49064 6.70735 3.2951 6.8653 3.13867 7.06275C3.52975 6.35195 3.95992 5.64115 4.39011 4.96984C4.50743 4.77239 4.62475 4.61444 4.78118 4.41699C4.78118 4.45648 4.78118 4.49597 4.78118 4.53545C4.82029 4.81188 5.01584 5.0883 5.25048 5.24625C5.48513 5.40421 5.79799 5.48319 6.07174 5.52268C8.45731 5.99655 11.0775 5.72013 13.5413 5.95706Z" fill="url(#paint6_linear_25_1610)"/>
<path d="M0.6356 13.6968C0.518277 13.9337 0.674712 14.2496 0.909358 14.4076C1.144 14.5655 1.41776 14.605 1.69151 14.6445C2.70831 14.763 3.76421 14.8814 4.82012 14.763C3.64689 14.8025 2.35634 14.9209 1.18312 14.9999C1.1049 14.9999 1.02668 14.9999 0.948468 15.0394C0.792037 15.1184 0.75293 15.3158 0.75293 15.4738C0.75293 15.6317 0.792037 15.8292 0.75293 15.9871C0.596499 15.1974 0.596492 14.4866 0.6356 13.6968Z" fill="url(#paint7_linear_25_1610)"/>
<path d="M27.1508 13.539C26.9553 12.4333 26.5642 11.2881 26.0949 10.1825C25.6648 9.19523 25.0781 8.20801 24.3742 7.33926C23.7485 6.54948 22.7708 6.07561 21.9495 5.60174C21.5976 5.4043 21.2456 5.12787 20.8936 4.96992C13.2285 1.53437 4.23377 8.20801 5.01593 16.3427C5.13325 17.7249 5.56344 19.028 6.26738 20.2127C8.18365 23.4903 11.7033 25.5832 15.5359 25.9781C16.9438 26.0965 18.3907 26.057 19.7986 25.7016C22.6144 25.0303 24.9217 23.2138 26.2905 20.7655C27.3855 18.5936 27.581 15.8294 27.1508 13.539ZM23.7094 19.6203C22.6926 21.4763 20.9327 22.8189 18.8209 23.3323C17.765 23.5692 16.7091 23.6482 15.6141 23.5297C12.7201 23.2533 10.0999 21.6738 8.65293 19.2254C8.14453 18.3172 7.79257 17.33 7.71435 16.3032C7.67524 15.9873 7.67524 15.6714 7.67524 15.3555C7.67524 15.1976 7.71435 15.0791 7.67524 14.9211C7.67524 14.8422 7.63614 14.7632 7.63614 14.7237C7.55793 14.5262 7.59703 14.2893 7.63614 14.0524C7.67525 13.8155 7.79257 13.5785 7.98811 13.46C8.14454 13.3811 8.34007 13.3416 8.4965 13.3021C8.92669 13.2626 9.35688 13.2231 9.74795 13.2626C9.20045 13.1836 8.69204 13.1046 8.14454 13.0257C8.10543 13.0257 8.34008 12.3938 8.34008 12.3149C8.41829 12.0779 8.53561 11.8805 8.65293 11.683C8.80936 11.3276 9.04401 11.0117 9.27866 10.6958C9.74795 10.064 10.2955 9.51115 10.9212 9.03728C11.5469 8.56341 12.2117 8.12903 12.9157 7.81312C13.6196 7.4972 14.4018 7.26028 15.1448 7.14181C15.927 7.02334 16.7482 7.02334 17.5304 7.14181C18.2343 7.26028 18.9382 7.45772 19.6031 7.73415C19.8768 7.85261 20.1506 8.05005 20.4243 8.20801C21.0501 8.56341 21.7931 8.9583 22.2624 9.51115C22.7708 10.143 23.201 10.8933 23.5529 11.6436C23.944 12.4728 24.2178 13.3416 24.3742 14.1708C24.5306 15.1186 24.5697 16.0268 24.3742 16.9746C23.2792 17.0535 22.1842 17.0535 21.0892 17.0141C22.0669 17.1325 23.0837 17.251 24.0613 17.33C24.3742 17.3695 24.2178 17.6459 24.1396 17.8433C24.1004 18.0013 24.0613 18.1987 24.0613 18.3567C24.0613 18.5146 24.0613 18.6726 23.9831 18.8306C23.944 18.949 23.9049 19.0675 23.8267 19.186C23.7876 19.2254 23.7876 19.3044 23.7485 19.3439C23.7876 19.5019 23.7094 19.5808 23.7094 19.6203Z" fill="url(#paint8_linear_25_1610)"/>
<path d="M24.6867 22.3847C25.5862 21.4764 26.251 20.2917 26.603 19.0281C26.955 17.7645 27.0723 16.4613 27.0723 15.1582C27.0723 14.9607 27.0723 14.7633 26.9941 14.6053C26.9158 14.3684 26.7203 14.2499 26.4857 14.2104C26.1337 14.1315 25.7426 14.013 25.3906 13.934C26.251 13.9735 27.2287 13.934 28.0891 13.8945C27.9326 13.934 27.7762 14.013 27.6589 14.0525C27.6198 14.0525 27.5807 14.092 27.5416 14.092C27.5025 14.1315 27.5025 14.1709 27.5025 14.2104C27.4633 14.4079 27.4633 14.6448 27.5025 14.8818C27.5416 15.2372 27.5416 15.5926 27.5025 15.948C27.5025 16.1059 27.4633 16.3034 27.4633 16.4613C27.4242 16.8562 27.346 17.2116 27.2678 17.6065C27.1114 18.3173 27.0332 19.0281 26.8376 19.7389C26.6421 20.4497 26.3292 21.121 25.8208 21.6344C25.899 21.7923 25.9773 21.9108 26.1337 21.9898C25.9382 21.9898 25.7817 22.0293 25.6253 22.1082C25.5471 22.1477 25.4689 22.2267 25.3906 22.3057C25.156 22.5821 24.9214 22.819 24.6476 23.0955C24.5694 23.1744 24.4912 23.2534 24.3738 23.2929C24.1783 23.4114 24.0219 23.6483 23.8263 23.8457C23.0442 24.6355 21.9883 25.1489 20.9324 25.5043C20.8542 25.5438 20.7759 25.5438 20.6977 25.5833C19.9547 25.8202 19.2116 25.9387 18.4295 26.0176C17.6473 26.0966 16.9043 26.0966 16.1221 26.0571C15.7311 26.0176 15.34 25.9782 14.988 25.8992C14.7925 25.8597 14.5969 25.8202 14.4405 25.7807C13.8539 25.6622 13.2282 25.5438 12.6416 25.3463C10.9208 24.7935 9.43474 23.7273 8.02686 22.5821C7.87043 22.4636 7.67488 22.3057 7.51845 22.1477C7.44024 22.0687 7.36202 22.0293 7.28381 21.9503C7.2447 21.9108 7.20559 21.8318 7.12738 21.7528C7.01006 21.6344 6.85362 21.5949 6.69719 21.5554C6.46255 21.4764 6.18879 21.4764 5.91504 21.4369C5.95415 21.3579 6.03236 21.3185 6.14969 21.3185C6.34523 21.279 6.54076 21.2395 6.7363 21.2395C6.81452 21.2395 6.93185 21.2395 7.04917 21.2395C7.12739 21.2395 7.20559 21.2395 7.28381 21.2395C7.67488 21.279 8.06596 21.3579 8.45704 21.3974C8.69168 21.4369 8.92633 21.4369 9.16098 21.3974C8.61347 21.4369 8.02685 21.5159 7.47934 21.5554C7.67488 22.0687 8.22239 22.3847 8.73079 22.6611C8.84812 22.7006 8.92633 22.7401 9.04365 22.819C9.08276 22.8585 9.12187 22.898 9.16098 22.898C9.23919 22.977 9.31741 23.0165 9.39563 23.0955C9.55206 23.2139 9.70848 23.3324 9.86491 23.4509C10.1778 23.6878 10.4906 23.9247 10.8426 24.1222C11.3119 24.3986 11.8203 24.675 12.3287 24.8725C13.1109 25.1884 13.9712 25.3858 14.7925 25.4253C16.3177 25.5438 17.8038 25.7412 19.329 25.5043C19.5245 25.4648 19.6809 25.4648 19.8765 25.4253C21.0888 25.1884 22.1447 24.5565 23.1615 23.8457C23.7481 23.4114 24.1783 22.898 24.6867 22.3847Z" fill="#EB924D"/>
<path d="M6.18895 19.8968C5.9543 19.3835 5.75876 18.8306 5.52411 18.3173C5.40679 18.0014 5.28947 17.7249 5.21126 17.409C5.13304 17.1326 5.09394 16.8562 5.05483 16.5798C5.01572 16.3033 4.97661 16.0269 4.9375 15.7505C4.97661 16.0269 4.97661 16.3033 5.01572 16.5403C5.05483 16.8167 5.09393 17.0931 5.13304 17.33C5.21125 17.8434 5.36768 18.3963 5.52411 18.9096C5.60233 19.1465 5.68055 19.3835 5.75876 19.6204C5.79787 19.6994 5.83698 19.8179 5.83698 19.8968C5.83698 19.9758 5.83698 20.0153 5.87609 20.0943C5.9152 20.2917 6.03251 20.5287 6.11073 20.6866C6.30627 20.6866 6.5018 20.6471 6.69734 20.6471C6.65824 20.6471 6.54091 20.4892 6.54091 20.4497C6.50181 20.3707 6.42359 20.2917 6.38449 20.2128C6.26716 20.2128 6.26716 20.0548 6.18895 19.8968Z" fill="#EB924D"/>
<path d="M9.82598 6.47033C10.8819 6.54931 11.8987 6.47034 12.9546 6.39136C12.7199 6.35187 12.4462 6.31238 12.1724 6.27289C11.8987 6.2334 11.664 6.2334 11.3903 6.2334C11.1165 6.2334 10.8819 6.2334 10.6081 6.2334C10.3344 6.2334 10.0997 6.2334 9.82598 6.2334C9.55223 6.2334 9.31758 6.2334 9.04383 6.2334C9.00472 6.2334 8.96562 6.2334 8.96562 6.2334C8.96562 6.27289 8.92652 6.35187 8.96562 6.39136C9.00473 6.43085 9.04383 6.43084 9.08294 6.43084C9.23937 6.43084 9.39581 6.43085 9.55224 6.47033C9.66956 6.47033 9.74777 6.47033 9.82598 6.47033Z" fill="#EB924D"/>
<path d="M25.899 16.5794C25.899 16.9743 25.899 17.3692 25.8208 17.7246C25.7035 18.7118 25.3515 19.6201 24.9214 20.4493C22.9269 23.9244 18.234 25.5829 14.2059 24.5167C11.703 23.8454 9.59116 22.1079 8.30061 19.857C8.2224 19.699 8.10508 19.5016 8.02687 19.3436C7.40114 18.08 7.01006 16.6189 6.93185 15.1973C6.89274 14.6444 6.93185 14.0916 7.01007 13.5388C7.01007 13.3808 7.04917 13.2229 7.08827 13.1044C7.51846 10.7745 8.96545 8.95804 10.7644 7.57593C11.2337 7.22053 11.703 6.86512 12.2114 6.5887C15.0662 4.85119 18.5468 5.32505 21.2452 7.14155C23.0442 8.3657 24.2956 9.98475 25.0387 11.8802C25.1169 12.0777 25.1951 12.2356 25.2342 12.4331C25.2342 12.4726 25.2733 12.512 25.2733 12.5515C25.3124 12.67 25.3515 12.828 25.3906 12.9859C25.4298 13.1834 25.508 13.3808 25.5471 13.5782C25.5471 13.6572 25.5862 13.7362 25.5862 13.7757C25.5862 13.8547 25.6253 13.9336 25.6253 14.0126C25.6253 14.0916 25.6644 14.1706 25.6644 14.2496C25.6644 14.368 25.7035 14.4865 25.7035 14.605V14.6445C25.7035 14.7234 25.7426 14.8419 25.7426 14.9209V14.9604C25.7426 15.0788 25.7817 15.1973 25.7817 15.3158V15.3552C25.8599 15.7501 25.899 16.1845 25.899 16.5794Z" fill="url(#paint9_linear_25_1610)"/>
<path d="M13.4235 11.8408C14.0101 13.5388 15.2616 14.9604 16.8259 15.7897C18.5466 16.6585 21.7925 17.0928 23.2786 15.4738C24.0217 14.6445 24.0217 13.4993 24.0999 12.4331C24.3345 9.86635 21.7143 7.85241 19.6416 7.02314C18.4293 6.54927 16.0828 5.75949 14.8705 6.50978C14.2056 6.90467 13.619 7.69445 13.3453 8.40525C12.9542 9.39248 12.9933 10.4982 13.2671 11.4854C13.3453 11.6039 13.3844 11.7223 13.4235 11.8408Z" fill="url(#paint10_linear_25_1610)"/>
<path d="M25.8988 16.5792C25.8988 16.9741 25.8988 17.369 25.8206 17.7244C25.7033 18.7116 25.3513 19.6199 24.9212 20.4492C24.7647 20.1332 24.4519 19.8568 24.139 19.7384C23.6697 19.5804 23.2004 19.5804 22.7311 19.5804C19.1332 19.5804 15.5353 19.1855 12.0156 18.3957C11.429 18.2378 10.8033 18.1193 10.2167 18.1588C9.59096 18.1983 8.96524 18.4352 8.61328 18.9091C8.41774 19.1855 8.30041 19.5409 8.30041 19.8963C8.22219 19.7384 8.10488 19.5409 8.02666 19.383C7.40094 18.1193 7.00986 16.6582 6.93164 15.2366C6.93164 14.6838 6.93165 14.1309 7.00986 13.5781C7.00986 13.4201 7.04896 13.2622 7.08807 13.1437C7.51825 10.8138 8.96524 8.99735 10.7642 7.61523C10.2949 8.24706 9.86472 8.95786 9.51275 9.66867C9.08256 10.6164 8.73059 11.5641 8.92613 12.6303C9.08256 13.4596 9.47364 14.2494 10.0603 14.8417L10.0994 14.8812C11.1944 16.0264 12.7587 16.6582 14.2839 17.0926C15.4571 17.448 16.6303 17.7639 17.8036 18.0008C18.8986 18.2378 20.0718 18.3957 21.1668 18.3168C23.0831 18.1193 25.234 16.7767 25.0385 14.5653C24.9603 13.815 25.3122 12.6303 25.0385 11.9195C25.1167 12.117 25.1949 12.2749 25.234 12.4724C25.234 12.5119 25.2731 12.5514 25.2731 12.5908C25.3122 12.7093 25.3513 12.8673 25.3904 13.0252C25.4296 13.2227 25.5078 13.4201 25.5469 13.6176C25.5469 13.6965 25.586 13.7755 25.586 13.815C25.586 13.894 25.6251 13.973 25.6251 14.0519C25.6251 14.1309 25.6642 14.2099 25.6642 14.2889C25.6642 14.4074 25.7033 14.5258 25.7033 14.6443V14.6838C25.7033 14.7628 25.7424 14.8812 25.7424 14.9602V14.9997C25.7424 15.1181 25.7815 15.2366 25.7815 15.3551V15.3946C25.8597 15.75 25.8988 16.1844 25.8988 16.5792Z" fill="url(#paint11_linear_25_1610)"/>
<path d="M14.9488 23.0162C15.3008 22.9373 15.6918 22.7398 15.6918 22.3844C15.6918 22.2265 15.6136 22.108 15.5354 21.95C14.7533 20.5679 13.3063 19.6202 11.7811 19.4622C11.4682 19.4227 11.1945 19.4227 10.8816 19.4622C10.7252 19.5017 10.5687 19.5412 10.4514 19.6202C10.0603 19.9361 10.2559 20.4495 10.3732 20.8443C10.4905 21.1998 10.7252 21.4762 10.9598 21.7131C11.5855 22.3844 12.4459 22.8188 13.3845 22.9768C13.932 23.1347 14.4404 23.1347 14.9488 23.0162Z" fill="url(#paint12_linear_25_1610)"/>
<defs>
<linearGradient id="paint0_linear_25_1610" x1="15.8152" y1="-0.852547" x2="15.9766" y2="14.6517" gradientUnits="userSpaceOnUse">
<stop stop-color="#CF5C2B"/>
<stop offset="1" stop-color="#59173E"/>
</linearGradient>
<linearGradient id="paint1_linear_25_1610" x1="27.3221" y1="-5.94773" x2="-0.744618" y2="45.6122" gradientUnits="userSpaceOnUse">
<stop stop-color="#CF5C2B"/>
<stop offset="1" stop-color="#59173E"/>
</linearGradient>
<linearGradient id="paint2_linear_25_1610" x1="24.2121" y1="-0.122396" x2="-3.85464" y2="51.4375" gradientUnits="userSpaceOnUse">
<stop stop-color="#CF5C2B"/>
<stop offset="1" stop-color="#59173E"/>
</linearGradient>
<linearGradient id="paint3_linear_25_1610" x1="27.8386" y1="-0.97786" x2="28" y2="14.5263" gradientUnits="userSpaceOnUse">
<stop stop-color="#CF5C2B"/>
<stop offset="1" stop-color="#59173E"/>
</linearGradient>
<linearGradient id="paint4_linear_25_1610" x1="6.49555" y1="-0.755365" x2="6.65696" y2="14.7488" gradientUnits="userSpaceOnUse">
<stop stop-color="#CF5C2B"/>
<stop offset="1" stop-color="#59173E"/>
</linearGradient>
<linearGradient id="paint5_linear_25_1610" x1="28.5618" y1="-0.984983" x2="28.7232" y2="14.5192" gradientUnits="userSpaceOnUse">
<stop stop-color="#CF5C2B"/>
<stop offset="1" stop-color="#59173E"/>
</linearGradient>
<linearGradient id="paint6_linear_25_1610" x1="14.7785" y1="-4.82882" x2="10.5234" y2="2.49551" gradientUnits="userSpaceOnUse">
<stop stop-color="#CF5C2B"/>
<stop offset="1" stop-color="#59173E"/>
</linearGradient>
<linearGradient id="paint7_linear_25_1610" x1="5.63595" y1="3.20766" x2="2.62708" y2="14.4351" gradientUnits="userSpaceOnUse">
<stop stop-color="#CF5C2B"/>
<stop offset="1" stop-color="#59173E"/>
</linearGradient>
<linearGradient id="paint8_linear_25_1610" x1="17.0834" y1="45.5838" x2="16.1333" y2="15.8753" gradientUnits="userSpaceOnUse">
<stop stop-color="#CF5C2B"/>
<stop offset="1" stop-color="#59173E"/>
</linearGradient>
<linearGradient id="paint9_linear_25_1610" x1="6.9165" y1="5.50488" x2="26.2452" y2="24.4843" gradientUnits="userSpaceOnUse">
<stop stop-color="#65FDF0"/>
<stop offset="1" stop-color="#1D6FA3"/>
</linearGradient>
<linearGradient id="paint10_linear_25_1610" x1="13.0566" y1="6.2002" x2="23.4" y2="17.235" gradientUnits="userSpaceOnUse">
<stop stop-color="#65FDF0"/>
<stop offset="1" stop-color="#1D6FA3"/>
</linearGradient>
<linearGradient id="paint11_linear_25_1610" x1="6.93164" y1="7.61523" x2="18.8451" y2="25.222" gradientUnits="userSpaceOnUse">
<stop stop-color="#65FDF0"/>
<stop offset="1" stop-color="#1D6FA3"/>
</linearGradient>
<linearGradient id="paint12_linear_25_1610" x1="10.2192" y1="19.4326" x2="13.6121" y2="24.4946" gradientUnits="userSpaceOnUse">
<stop stop-color="#65FDF0"/>
<stop offset="1" stop-color="#1D6FA3"/>
</linearGradient>
</defs>
</svg>
