<svg width="32" height="32" viewBox="0 0 32 32" fill="none" xmlns="http://www.w3.org/2000/svg">
<path d="M0.205756 15.079C0.0491336 15.9478 -0.0291773 16.8166 0.00997815 17.6853C0.0491336 18.5146 0.0882891 19.3438 0.59731 20.0547C0.793088 20.3311 1.02802 20.568 1.3021 20.7654C1.49788 20.8839 1.69366 20.9629 1.88944 21.0814C1.92859 21.1209 1.96775 21.1209 1.96775 21.1998C1.96775 21.3183 1.77197 21.4368 1.69366 21.4763C1.53704 21.5947 1.41957 21.7527 1.34126 21.9106C1.26295 22.2265 1.41957 22.5819 1.53704 22.8979C1.85028 23.5692 2.24183 24.2405 2.63339 24.8723C4.27792 27.3996 6.15739 30.0059 9.0549 31.151C10.6994 31.8224 12.4614 31.8618 14.2234 31.9408C16.0637 32.0198 17.904 32.0198 19.7443 31.9408C21.3889 31.8618 23.19 31.7039 24.5996 30.8746C25.6568 30.2428 26.4791 29.2556 27.1056 28.3078C28.1628 26.7283 29.0633 25.0303 29.8464 23.2927C29.9248 23.1348 30.0422 22.9768 30.0422 22.7794C30.0422 22.7004 30.0422 22.6214 30.0422 22.5425C30.0031 22.3845 29.9639 22.2265 29.8464 22.0686C30.1597 21.9106 30.3946 21.6342 30.5513 21.3183C30.6296 21.1603 30.7079 20.9629 30.747 20.8049C30.7862 20.647 30.8253 20.5285 30.9036 20.3706C31.0994 20.0941 31.1777 19.6992 31.256 19.3833C31.491 18.5936 31.6476 17.8038 31.8042 17.014C31.8042 16.8955 31.8434 16.7771 31.8434 16.6586C31.9217 16.1452 31.9608 15.6319 31.9608 15.1185C31.9608 15.079 31.9608 15.0001 31.9608 14.9606C31.8825 16.8955 31.2169 18.5541 30.4729 20.3311C29.6507 22.2265 28.6718 24.0035 27.5754 25.7411C26.9489 26.6888 26.1267 27.676 25.0695 28.3078C23.6599 29.1766 21.8587 29.2951 20.2534 29.4135C18.413 29.532 16.6119 29.532 14.7716 29.4135C13.0487 29.3345 11.2868 29.2951 9.64223 28.6237C7.88023 27.9129 6.43147 26.6493 5.25681 25.2277C4.00383 23.6876 2.98579 21.9106 2.12437 20.2521C0.75393 17.6458 0.244906 14.9606 0.910549 12.2358C0.597306 13.1441 0.401533 14.1313 0.205756 15.079Z" fill="url(#paint0_linear_25_1613)"/>
<path d="M31.9611 14.763C31.9611 14.8025 31.9611 14.842 31.9611 14.921C31.9219 15.8687 31.7653 16.777 31.4912 17.6062C31.2171 18.5145 30.8647 19.3832 30.4731 20.2915C30.2382 20.8443 29.9641 21.4367 29.69 21.9895C29.69 22.029 29.6509 22.0685 29.6509 22.108C29.0244 23.3716 28.3196 24.5563 27.5756 25.741C27.3016 26.1359 26.9883 26.5702 26.6751 26.9651C26.2052 27.4785 25.6962 27.9523 25.1089 28.3077C23.6993 29.1765 21.9373 29.295 20.2927 29.4134C18.4524 29.5319 16.6513 29.5319 14.811 29.4134C13.0881 29.3345 11.3261 29.295 9.68158 28.6237C7.91959 27.9129 6.47084 26.6492 5.29618 25.2276C5.29618 25.2276 5.29618 25.2276 5.29618 25.1881C4.43476 24.1219 3.6908 22.9767 3.06431 21.8316C2.86853 21.5156 2.71191 21.1997 2.51614 20.8838C2.39867 20.6864 2.28121 20.4494 2.16374 20.252C2.04627 19.9756 1.88965 19.7386 1.77219 19.4622C1.18485 18.1986 0.83245 16.9349 0.714983 15.6713C0.636672 14.921 0.636672 14.2102 0.714983 13.4599C0.754139 13.065 0.832452 12.6306 0.949918 12.2357C1.06738 11.7619 1.22401 11.288 1.41979 10.7747C1.45894 10.6562 1.53725 10.4982 1.57641 10.3798C1.73303 9.94539 1.92881 9.5505 2.12458 9.11612C2.24205 8.87919 2.32036 8.64225 2.43782 8.44481C2.67275 7.97094 2.90769 7.49707 3.14263 7.0627C3.29925 6.74678 3.49502 6.47036 3.65164 6.15445C3.88658 5.75956 4.12152 5.40416 4.35645 5.04876C4.35645 5.00927 4.3956 5.00927 4.3956 4.96978C4.51306 4.77234 4.63053 4.61438 4.78715 4.41694C4.90462 4.25898 4.98293 4.10103 5.1004 3.98256C5.1004 3.94307 5.13956 3.94307 5.13956 3.90358C6.07929 2.63993 7.2148 1.53424 8.82017 1.02089C12.2267 -0.124291 15.7507 -0.124292 19.4313 0.152131C20.9192 0.270598 22.5637 0.54702 23.7384 1.45527C26.166 3.39022 28.2804 5.68058 29.9641 8.20787C30.0033 8.24736 30.0033 8.24736 30.0033 8.28685C30.6689 9.27407 31.1779 10.3798 31.4912 11.5249C31.5695 11.7224 31.6087 11.9593 31.6478 12.1568C31.687 12.3147 31.7261 12.4727 31.7653 12.6306C31.7653 12.6306 31.7653 12.6306 31.7653 12.6701C31.8436 13.144 31.8827 13.5784 31.9219 14.0522C31.9611 14.3287 31.9611 14.5656 31.9611 14.763Z" fill="url(#paint1_linear_25_1613)"/>
<path d="M31.9612 14.763C31.9612 14.8025 31.9612 14.842 31.9612 14.921C31.922 15.8687 31.7654 16.777 31.4913 17.6062C30.5516 17.5668 29.6118 17.4878 28.6329 17.4483C24.8349 17.2114 21.0368 16.9744 17.2387 16.777C11.6786 16.4611 6.15769 16.3031 0.675921 15.6713C0.59761 14.921 0.59761 14.2102 0.675921 13.4599C6.15769 13.065 11.6395 13.223 17.2387 13.3414C17.317 13.3414 17.3953 13.3414 17.4736 13.3414C17.1604 13.302 16.8471 13.223 16.5339 13.1835C11.6786 12.4332 6.35347 11.9198 1.5765 10.3798C1.73313 9.9454 1.9289 9.55051 2.12468 9.11613C2.24214 8.8792 2.32045 8.64226 2.43792 8.44482C2.67285 7.97095 2.90779 7.49708 3.14272 7.06271C3.29934 6.74679 3.49512 6.47037 3.65174 6.15446C8.27209 6.03599 13.0491 6.7073 17.4736 7.06271C21.1151 7.37862 24.7957 7.61555 28.4763 8.01044C28.9853 8.04993 29.5335 8.12891 30.0425 8.20789C30.0817 8.24737 30.0817 8.24737 30.0817 8.28686C30.7473 9.27409 31.2564 10.3798 31.5696 11.525C31.6479 11.7224 31.6871 11.9593 31.7262 12.1568C31.7654 12.3147 31.8045 12.4727 31.8437 12.6306C31.8437 12.6306 31.8437 12.6306 31.8437 12.6701C31.922 13.144 31.9611 13.5784 32.0003 14.0522C31.9611 14.3287 31.9612 14.5656 31.9612 14.763ZM29.5727 22.0685C27.9673 21.9105 26.3619 21.7526 24.7565 21.6736C21.5458 21.5946 18.3351 21.4367 15.1243 21.2787C11.9136 21.0813 8.74196 20.9233 5.53121 20.9233C4.59148 20.9233 3.53427 20.8443 2.47707 20.8049C2.6337 21.1208 2.82947 21.4367 3.02525 21.7526C3.69089 22.8978 4.43485 24.0429 5.25712 25.1091C8.38955 25.7015 11.522 26.0174 14.7327 26.2543C17.9435 26.4913 21.1542 26.6887 24.365 26.8072C25.1481 26.8467 25.8921 26.8467 26.636 26.8467C26.9884 26.4518 27.3016 26.0569 27.5366 25.6225C28.3197 24.4773 28.9853 23.2532 29.6118 21.9895C29.6118 22.0685 29.5727 22.0685 29.5727 22.0685Z" fill="url(#paint2_linear_25_1613)"/>
<path d="M30.0422 8.28691C30.7079 9.27414 31.2169 10.3798 31.5302 11.525C31.4519 11.3671 31.3735 11.2091 31.2952 11.0906C31.0211 10.5773 30.7471 10.1034 30.473 9.62954C29.9248 8.72129 29.2983 7.85254 28.6327 6.98378C28.3586 6.62838 28.0062 6.31247 27.8496 5.87809C27.6929 5.52269 27.4188 5.20678 27.1447 4.93035C26.2442 4.02211 25.187 3.27182 24.2081 2.44255C23.6599 1.96868 23.0726 1.45533 22.4069 1.09993C21.7413 0.784017 21.0365 0.66555 20.2925 0.626061C20.0185 0.626061 19.7835 0.586571 19.5094 0.586571C19.392 0.586571 19.3137 0.586572 19.1962 0.547083C19.0787 0.507594 18.9613 0.507594 18.8438 0.507594C18.4914 0.468106 18.1781 0.428616 17.8257 0.428616C15.0457 0.231172 12.2265 0.468105 9.52478 1.13942C9.01576 1.25788 8.5459 1.41584 8.07604 1.65277C7.99773 1.69226 7.95857 1.73175 7.88026 1.77124C7.44955 2.04766 7.09715 2.36357 6.7056 2.67949C6.50982 2.83744 6.31404 2.9954 6.11826 3.15335C6.03995 3.19284 5.96164 3.27182 5.88333 3.31131C5.72671 3.39029 5.64839 3.54824 5.57008 3.66671C5.3743 3.94313 5.25684 4.25904 5.13938 4.57495C5.10022 4.61444 5.10022 4.65393 5.10022 4.73291C5.06106 4.89086 5.0219 5.04882 5.0219 5.24627C4.82613 5.24627 4.63035 5.16729 4.43457 5.08831C4.43457 5.04882 4.47373 5.04882 4.47373 5.00933C4.59119 4.81189 4.70866 4.65393 4.86528 4.45649C4.98275 4.29853 5.06106 4.14058 5.17852 4.02211C5.17852 3.98262 5.21768 3.98262 5.21768 3.94313C6.15741 2.67948 7.29292 1.57379 8.89829 1.06044C12.3048 -0.0847404 15.8288 -0.0847407 19.5094 0.191682C20.9973 0.310149 22.6419 0.586572 23.8165 1.49482C26.205 3.39029 28.3586 5.68064 30.0422 8.28691Z" fill="#EB924D"/>
<path d="M31.804 12.6701C31.804 12.7096 31.7648 12.7886 31.7648 12.828C31.7257 12.6306 31.6865 12.3937 31.6865 12.1962V12.1567C31.7257 12.3542 31.7648 12.5121 31.804 12.6701Z" fill="#EB924D"/>
<path d="M29.7291 14.0127C30.1206 14.0127 30.5122 14.0127 30.8646 14.2101C31.4519 14.4866 31.726 15.1579 31.8826 15.7897C31.9609 15.2369 31.9218 14.684 31.8435 14.1312C31.8435 14.0522 31.8043 13.9337 31.7652 13.8547C31.6869 13.7758 31.6085 13.6968 31.4911 13.6573C30.6688 13.2624 29.6899 13.4993 28.7894 13.6178C28.2412 13.6968 27.6538 13.7758 27.1057 13.8152C26.5575 13.8547 25.9702 13.8942 25.422 13.8547C25.3045 13.8547 25.187 13.8153 25.0696 13.8942C24.9521 13.9732 25.1087 13.9732 25.187 13.9732C25.4611 13.9732 25.7744 13.9732 26.0485 13.9732C26.6358 13.9732 27.184 13.9732 27.7713 13.9732C28.3586 13.9732 28.9068 13.9732 29.4941 13.9732C29.6116 14.0127 29.6508 14.0127 29.7291 14.0127Z" fill="#EB924D"/>
<path d="M27.5363 25.7013C26.9098 26.6885 26.0875 27.6363 25.0303 28.2681C23.6207 29.1368 21.8587 29.2553 20.2142 29.3738C18.3739 29.4922 16.5727 29.4922 14.7324 29.3738C13.0096 29.2948 11.2476 29.2553 9.60307 28.584C7.84107 27.8732 6.39232 26.6096 5.21765 25.188C4.35623 24.1218 3.61228 22.9766 2.94664 21.7919C2.6334 21.2391 2.3593 20.7257 2.08521 20.2123C1.96775 19.9359 1.81113 19.699 1.69366 19.4226C0.597307 17.0532 0.244905 14.6444 0.871393 12.1961C0.988859 11.7222 1.14549 11.2484 1.34126 10.735C1.45873 10.4191 1.57619 10.1427 1.69366 9.82676C1.85028 9.47136 2.04606 9.11595 2.16353 8.76055C2.32015 8.40515 2.47677 8.04975 2.63339 7.69435C2.98579 7.02304 3.41651 6.39122 3.92553 5.79888C4.00384 5.71991 4.08214 5.60144 4.19961 5.56195C4.31707 5.52246 4.39539 5.52246 4.51286 5.52246C4.86526 5.52246 5.21765 5.56195 5.57005 5.60144C6.70556 5.71991 7.84107 6.07531 8.97658 6.03582C9.56391 6.03582 10.1121 5.91735 10.6994 5.87786C10.9735 5.87786 11.2868 5.87786 11.5608 5.87786C11.7175 5.87786 11.8349 5.87786 11.9916 5.91735C12.0699 5.91735 12.1482 5.91735 12.2265 5.91735C12.2656 5.91735 12.3048 5.91735 12.344 5.91735C12.3831 5.91735 12.4223 5.91735 12.4614 5.95684C12.1873 6.03582 11.9132 6.07531 11.6391 6.1148C11.3651 6.15428 11.091 6.19377 10.8169 6.23326C10.2687 6.31224 9.68138 6.31224 9.1332 6.31224C8.58502 6.31224 7.9977 6.31224 7.44952 6.31224C6.9405 6.31224 6.47063 6.27275 5.9616 6.27275C5.45258 6.27275 4.94357 6.23326 4.4737 6.39122C3.84721 6.58866 3.33819 7.10202 2.94664 7.65486C2.94664 7.69435 2.90748 7.69435 2.90748 7.73384C2.67255 8.08924 2.51593 8.44464 2.35931 8.83953C2.281 9.03698 2.24184 9.23442 2.12437 9.39238C2.08522 9.43187 2.04607 9.47136 2.00691 9.55033C1.9286 9.62931 1.88943 9.74778 1.85028 9.86624C1.73281 10.1032 1.65451 10.3401 1.53704 10.577C1.38042 10.9719 1.2238 11.3273 1.14549 11.7222C1.02802 12.0381 0.871395 12.4725 0.91055 12.8279C0.949706 13.1043 0.871393 13.4203 0.871393 13.6967C0.871393 13.7757 0.832237 14.6049 0.871393 14.6049C1.41957 14.6444 1.96775 14.7629 2.47677 14.9208C2.24184 14.9603 2.00691 14.9998 1.81113 15.0393C1.61536 15.0788 1.34127 15.1973 1.18464 15.3552C1.10633 15.4342 1.10633 15.5527 1.10633 15.6711C1.06717 15.9081 1.06717 16.145 1.10633 16.3424C1.22379 17.3297 1.53704 18.2774 1.9286 19.1856C2.00691 19.4226 2.12438 19.62 2.20269 19.8569C2.281 20.0544 2.35931 20.2518 2.55509 20.3703C2.67255 20.4493 2.86832 20.4888 3.02494 20.5283C3.33819 20.6072 3.65144 20.7257 3.96468 20.8047C4.63033 20.9232 5.25682 21.0416 5.92246 21.0416C7.09712 21.0811 8.31093 20.8442 9.4856 21.1601C9.28982 21.1601 9.09404 21.1996 8.93742 21.1996C7.76276 21.2786 6.5881 21.3575 5.45259 21.4365C4.86526 21.476 4.31708 21.5155 3.72975 21.5155C3.61228 21.5155 3.33819 21.476 3.25988 21.634C3.25988 21.6734 3.25988 21.7129 3.25988 21.7524C3.29903 21.9893 3.45566 22.1868 3.57313 22.3842C3.88637 22.9371 4.27792 23.4504 4.66948 23.9638C5.02188 24.4772 5.45259 24.951 5.8833 25.4249C6.07908 25.6223 6.27486 25.8593 6.50979 26.0567C6.54895 26.0962 6.5881 26.0962 6.62725 26.1357C6.82303 26.2542 6.97965 26.4516 7.13627 26.5701C7.48867 26.886 7.88022 27.2019 8.31093 27.4388C8.89826 27.7942 9.56392 28.0706 10.2296 28.2681C11.5608 28.663 12.9704 28.8209 14.3409 28.8999C17.2384 29.0974 20.175 29.0184 22.9942 28.3471C23.7773 28.1891 24.5213 27.9522 25.2261 27.5573C26.4008 26.886 27.223 25.7408 27.967 24.6351C28.4369 23.9638 28.8676 23.2135 28.9459 22.3842C28.3977 22.2263 27.8495 22.0683 27.3013 21.9499C27.8495 21.9104 28.4369 21.8314 28.985 21.7919C29.0633 21.7919 29.1025 21.7919 29.1808 21.7919C29.22 21.7919 29.2591 21.8314 29.3374 21.7919C29.4157 21.7919 29.4941 21.7919 29.5332 21.7524C29.5724 21.7524 29.729 21.7129 29.729 21.7129C29.6507 22.0288 29.5332 22.3053 29.3766 22.5817C29.2983 22.7002 29.22 22.8186 29.1417 22.9371C29.0242 23.095 28.9067 23.332 28.8284 23.5294C28.6718 23.7664 28.5543 24.0033 28.3977 24.2797C28.1236 24.7931 27.8495 25.2274 27.5363 25.7013Z" fill="#EB924D"/>
<path d="M24.0513 13.9341C26.0874 13.8946 28.1234 13.8551 30.1204 13.8156C30.5119 13.8156 30.9035 13.8156 31.295 13.9341C31.6474 14.092 31.9607 14.4079 31.9607 14.8028V14.7633C31.9607 14.5264 31.9607 14.2895 31.9607 14.0525C31.9215 13.5787 31.8824 13.1048 31.8041 12.6704C31.7649 12.7494 31.7649 12.7889 31.6866 12.8679C31.53 13.0653 31.1384 13.0653 30.9035 13.1048C30.7077 13.1443 30.4728 13.1443 30.277 13.1838C28.2409 13.4602 26.1265 13.6971 24.0513 13.9341Z" fill="url(#paint3_linear_25_1613)"/>
<path d="M2.79002 21.2394C2.86833 21.4369 2.94663 21.6343 3.02494 21.8317C2.7117 21.2789 2.43762 20.7655 2.16353 20.2522C2.04606 19.9758 1.88944 19.7388 1.77197 19.4624C1.81113 19.5019 1.85028 19.5414 1.88943 19.5414C2.08521 19.6993 2.28099 19.8573 2.51592 19.9758C3.22072 20.3706 4.08215 20.4891 4.90441 20.6076C5.37428 20.6866 5.84414 20.7655 6.31401 20.7655C8.11516 20.963 9.91631 21.1209 11.7566 21.2789C8.70249 21.1999 5.72668 21.1999 2.79002 21.2394Z" fill="url(#paint4_linear_25_1613)"/>
<path d="M29.8466 20.884C29.0635 21.4764 28.0063 21.7133 26.9883 21.9502C27.8889 21.9502 28.7503 21.9502 29.6508 21.9897C29.5334 22.1477 29.4942 22.3451 29.5725 22.5031C29.7292 22.1082 29.9249 21.6738 30.0816 21.2789C30.2382 20.884 30.3948 20.4496 30.5906 20.0942C30.5906 20.2127 30.3556 20.4101 30.2773 20.5286C30.1599 20.6471 30.0032 20.7656 29.8466 20.884Z" fill="url(#paint5_linear_25_1613)"/>
<path d="M13.5579 5.91751C11.0128 6.3124 8.31109 6.27291 5.76599 5.99649C5.33528 5.957 4.74795 5.79904 4.3564 6.07547C4.12147 6.23342 3.92569 6.39138 3.69075 6.50984C3.49498 6.6678 3.2992 6.82576 3.14258 7.0232C3.53413 6.3124 3.96484 5.6016 4.39555 4.93029C4.51301 4.73284 4.63048 4.57489 4.7871 4.37744C4.7871 4.41693 4.7871 4.45642 4.7871 4.49591C4.82626 4.77233 5.02204 5.04875 5.25697 5.20671C5.4919 5.36466 5.80515 5.44364 6.07924 5.48313C8.46772 5.957 11.0911 5.72006 13.5579 5.91751Z" fill="url(#paint6_linear_25_1613)"/>
<path d="M0.636329 13.6968C0.518863 13.9337 0.675477 14.2496 0.91041 14.4076C1.14534 14.5655 1.41943 14.605 1.69352 14.6445C2.71156 14.763 3.76876 14.8814 4.82596 14.763C3.65129 14.8025 2.35917 14.9209 1.1845 14.9999C1.10619 14.9999 1.02788 14.9999 0.949568 15.0394C0.792946 15.1184 0.753791 15.3158 0.753791 15.4738C0.753791 15.6317 0.792946 15.8292 0.753791 15.9871C0.558013 15.1974 0.558018 14.4471 0.636329 13.6968Z" fill="url(#paint7_linear_25_1613)"/>
<path d="M27.1838 13.4995C26.988 12.3938 26.5965 11.2486 26.1266 10.1429C25.6568 9.15568 25.1086 8.16846 24.4038 7.2997C23.7773 6.50992 22.7984 6.03605 21.9762 5.56219C21.6238 5.36474 21.2713 5.08832 20.9189 4.93036C13.2445 1.49483 4.23871 8.16846 4.98267 16.3032C5.10013 17.6853 5.53085 18.9884 6.23565 20.1731C8.15426 23.4507 11.6783 25.5436 15.5155 25.9385C16.9251 26.0569 18.3738 26.0175 19.7834 25.6621C22.6026 24.9907 24.9128 23.1743 26.2833 20.6865C27.3796 18.5935 27.5754 15.8293 27.1838 13.4995ZM23.7381 19.6203C22.7201 21.4762 20.9581 22.8583 18.8829 23.3322C17.8257 23.5691 16.7685 23.6481 15.6721 23.5297C12.7746 23.2532 10.1512 21.6737 8.70244 19.2254C8.19341 18.3171 7.84102 17.3299 7.76271 16.3032C7.72355 15.9873 7.72355 15.6714 7.72355 15.3554C7.72355 15.1975 7.7627 15.079 7.72355 14.9211C7.72355 14.8421 7.6844 14.7631 7.6844 14.7236C7.60609 14.5262 7.64525 14.2892 7.6844 14.0523C7.72356 13.8154 7.84102 13.5784 8.0368 13.46C8.19342 13.381 8.38919 13.3415 8.54582 13.302C8.97653 13.2625 9.40724 13.223 9.7988 13.2625C9.25062 13.1836 8.7416 13.1046 8.19342 13.0256C8.15426 13.0256 8.3892 12.3938 8.3892 12.3148C8.46751 12.0779 8.58497 11.8804 8.70244 11.683C8.85906 11.3276 9.09399 11.0117 9.32893 10.6957C9.79879 10.0639 10.347 9.51108 10.9735 9.03721C11.5999 8.56335 12.2656 8.12897 12.9704 7.81306C13.6752 7.49715 14.4583 7.26021 15.2022 7.14175C15.9854 7.02328 16.8076 7.02328 17.5907 7.14175C18.2955 7.26021 19.0003 7.45766 19.666 7.73408C19.9401 7.85255 20.175 8.04999 20.4491 8.20795C21.0756 8.56335 21.8195 8.95824 22.2894 9.51108C22.7984 10.1429 23.2291 10.8932 23.5815 11.6435C23.9731 12.4728 24.2472 13.3415 24.4038 14.1708C24.5604 15.1185 24.5996 16.0268 24.4038 16.9745C23.3074 17.0535 22.2111 17.0535 21.1147 17.014C22.0936 17.1324 23.1117 17.2509 24.0905 17.3299C24.4038 17.3694 24.2472 17.6458 24.1688 17.8432C24.1297 18.0012 24.0905 18.1986 24.0905 18.3566C24.0905 18.5146 24.0905 18.6725 24.0122 18.8305C23.9731 18.9489 23.9339 19.0674 23.8556 19.1859C23.8165 19.2254 23.8165 19.3043 23.7773 19.3438C23.7773 19.5018 23.7381 19.5808 23.7381 19.6203Z" fill="url(#paint8_linear_25_1613)"/>
<path d="M24.717 22.3451C25.6176 21.4369 26.2832 20.2522 26.6356 18.9885C26.988 17.7249 27.1055 16.4218 27.1055 15.1186C27.1055 14.9212 27.1055 14.7237 27.0272 14.5658C26.9488 14.3288 26.7531 14.2104 26.5181 14.1709C26.1657 14.0919 25.7742 13.9734 25.4218 13.8945C26.2832 13.934 27.2621 13.8945 28.1235 13.855C27.9669 13.8945 27.8103 13.9734 27.6928 14.0129C27.6536 14.0129 27.6145 14.0524 27.5753 14.0524C27.5362 14.0919 27.5362 14.1314 27.5362 14.1709C27.497 14.3683 27.497 14.6053 27.5362 14.8422C27.5753 15.1976 27.5753 15.553 27.5362 15.9084C27.5362 16.0664 27.497 16.2638 27.497 16.4218C27.4579 16.8167 27.3796 17.1721 27.3012 17.5669C27.1446 18.2777 27.0663 18.9885 26.8705 19.6993C26.6748 20.4101 26.3615 21.0815 25.8525 21.5948C25.9308 21.7528 26.0091 21.8712 26.1657 21.9502C25.97 21.9502 25.8133 21.9897 25.6567 22.0687C25.5784 22.1082 25.5001 22.1871 25.4218 22.2661C25.1868 22.5425 24.9519 22.7795 24.6778 23.0559C24.5995 23.1349 24.5212 23.2139 24.4037 23.2534C24.208 23.3718 24.0513 23.6088 23.8556 23.8062C23.0725 24.596 22.0153 25.1093 20.9581 25.4647C20.8798 25.5042 20.8014 25.5042 20.7231 25.5437C19.9792 25.7806 19.2352 25.8991 18.4521 25.9781C17.669 26.0571 16.925 26.0571 16.1419 26.0176C15.7504 25.9781 15.3588 25.9386 15.0064 25.8596C14.8106 25.8201 14.6149 25.7806 14.4583 25.7412C13.8709 25.6227 13.2444 25.5042 12.6571 25.3068C10.9343 24.7539 9.44635 23.6877 8.03676 22.5425C7.88013 22.4241 7.68435 22.2661 7.52773 22.1082C7.44942 22.0292 7.37112 21.9897 7.2928 21.9107C7.25365 21.8712 7.21448 21.7923 7.13617 21.7133C7.01871 21.5948 6.86209 21.5553 6.70547 21.5158C6.47054 21.4369 6.19645 21.4369 5.92236 21.3974C5.96152 21.3184 6.03982 21.2789 6.15729 21.2789C6.35306 21.2394 6.54884 21.1999 6.74462 21.1999C6.82293 21.1999 6.9404 21.1999 7.05787 21.1999C7.13618 21.1999 7.21449 21.1999 7.2928 21.1999C7.68436 21.2394 8.07591 21.3184 8.46747 21.3579C8.7024 21.3974 8.93733 21.3974 9.17226 21.3579C8.62409 21.3974 8.03676 21.4763 7.48858 21.5158C7.68436 22.0292 8.23253 22.3451 8.74155 22.6215C8.85902 22.661 8.93733 22.7005 9.0548 22.7795C9.09396 22.819 9.13311 22.8585 9.17226 22.8585C9.25057 22.9374 9.32889 22.9769 9.4072 23.0559C9.56382 23.1744 9.72043 23.2928 9.87706 23.4113C10.1903 23.6482 10.5035 23.8852 10.8559 24.0826C11.3258 24.359 11.8348 24.6355 12.3439 24.8329C13.127 25.1488 13.9884 25.3463 14.8106 25.3858C16.3377 25.5042 17.8256 25.7017 19.3527 25.4647C19.5485 25.4252 19.7051 25.4252 19.9009 25.3858C21.1147 25.1488 22.1719 24.517 23.1899 23.8062C23.7381 23.3718 24.208 22.8979 24.717 22.3451Z" fill="#EB924D"/>
<path d="M6.19633 19.8968C5.9614 19.3835 5.76562 18.8306 5.53069 18.3173C5.41323 18.0014 5.29575 17.7249 5.21744 17.409C5.13913 17.1326 5.09998 16.8562 5.06082 16.5798C5.02167 16.3033 4.98251 16.0269 4.94336 15.7505C4.98251 16.0269 4.98251 16.3033 5.02166 16.5403C5.06082 16.8167 5.09998 17.0931 5.13914 17.33C5.21745 17.8434 5.37407 18.3962 5.53069 18.9096C5.609 19.1465 5.6873 19.3835 5.76562 19.6204C5.80477 19.6994 5.84393 19.8178 5.84393 19.8968C5.84393 19.9758 5.84393 20.0153 5.88309 20.0943C5.92224 20.2917 6.03971 20.5286 6.11802 20.6866C6.3138 20.6866 6.50958 20.6471 6.70536 20.6471C6.6662 20.6471 6.54873 20.4892 6.54873 20.4497C6.50957 20.3707 6.43126 20.2917 6.39211 20.2127C6.27464 20.1732 6.23548 20.0548 6.19633 19.8968Z" fill="#EB924D"/>
<path d="M9.83781 6.47033C10.895 6.54931 11.9131 6.47033 12.9703 6.39135C12.7353 6.35186 12.4612 6.31238 12.1871 6.27289C11.9131 6.2334 11.6781 6.2334 11.404 6.2334C11.1299 6.2334 10.895 6.2334 10.6209 6.2334C10.3468 6.2334 10.1119 6.2334 9.83781 6.2334C9.56372 6.2334 9.32879 6.2334 9.0547 6.2334C9.01555 6.2334 8.97639 6.2334 8.97639 6.2334C8.97639 6.27289 8.93723 6.35186 8.97639 6.39135C9.01554 6.43084 9.05469 6.43084 9.09385 6.43084C9.25047 6.43084 9.4071 6.43084 9.56372 6.47033C9.68119 6.43084 9.7595 6.47033 9.83781 6.47033Z" fill="#EB924D"/>
<defs>
<linearGradient id="paint0_linear_25_1613" x1="15.8199" y1="-0.860509" x2="15.9811" y2="14.6437" gradientUnits="userSpaceOnUse">
<stop stop-color="#CF5C2B"/>
<stop offset="1" stop-color="#59173E"/>
</linearGradient>
<linearGradient id="paint1_linear_25_1613" x1="27.3411" y1="-5.9557" x2="-0.706905" y2="45.633" gradientUnits="userSpaceOnUse">
<stop stop-color="#CF5C2B"/>
<stop offset="1" stop-color="#59173E"/>
</linearGradient>
<linearGradient id="paint2_linear_25_1613" x1="24.2274" y1="-0.130361" x2="-3.82069" y2="51.4583" gradientUnits="userSpaceOnUse">
<stop stop-color="#CF5C2B"/>
<stop offset="1" stop-color="#59173E"/>
</linearGradient>
<linearGradient id="paint3_linear_25_1613" x1="27.8579" y1="-0.985416" x2="28.0191" y2="14.5188" gradientUnits="userSpaceOnUse">
<stop stop-color="#CF5C2B"/>
<stop offset="1" stop-color="#59173E"/>
</linearGradient>
<linearGradient id="paint4_linear_25_1613" x1="6.48864" y1="-0.763342" x2="6.64985" y2="14.7408" gradientUnits="userSpaceOnUse">
<stop stop-color="#CF5C2B"/>
<stop offset="1" stop-color="#59173E"/>
</linearGradient>
<linearGradient id="paint5_linear_25_1613" x1="28.5823" y1="-0.992989" x2="28.7435" y2="14.5112" gradientUnits="userSpaceOnUse">
<stop stop-color="#CF5C2B"/>
<stop offset="1" stop-color="#59173E"/>
</linearGradient>
<linearGradient id="paint6_linear_25_1613" x1="14.782" y1="-4.83691" x2="10.5295" y2="2.49194" gradientUnits="userSpaceOnUse">
<stop stop-color="#CF5C2B"/>
<stop offset="1" stop-color="#59173E"/>
</linearGradient>
<linearGradient id="paint7_linear_25_1613" x1="5.62806" y1="3.19984" x2="2.6224" y2="14.429" gradientUnits="userSpaceOnUse">
<stop stop-color="#CF5C2B"/>
<stop offset="1" stop-color="#59173E"/>
</linearGradient>
<linearGradient id="paint8_linear_25_1613" x1="17.0894" y1="45.5757" x2="16.1404" y2="15.8672" gradientUnits="userSpaceOnUse">
<stop stop-color="#CF5C2B"/>
<stop offset="1" stop-color="#59173E"/>
</linearGradient>
</defs>
</svg>
