<svg width="20" height="20" viewBox="0 0 20 20" fill="none" xmlns="http://www.w3.org/2000/svg">
<path d="M19.899 11.5794C19.899 11.9743 19.899 12.3692 19.8208 12.7246C19.7035 13.7118 19.3515 14.6201 18.9214 15.4493C16.9269 18.9244 12.234 20.5829 8.20587 19.5167C5.70298 18.8454 3.59116 17.1079 2.30061 14.857C2.2224 14.699 2.10508 14.5016 2.02687 14.3436C1.40114 13.08 1.01006 11.6189 0.931845 10.1973C0.892738 9.64445 0.93185 9.0916 1.01007 8.53875C1.01007 8.3808 1.04917 8.22285 1.08827 8.10438C1.51846 5.77453 2.96545 3.95804 4.7644 2.57593C5.23369 2.22053 5.70298 1.86512 6.21137 1.5887C9.06623 -0.148813 12.5468 0.325052 15.2452 2.14155C17.0442 3.3657 18.2956 4.98475 19.0387 6.88022C19.1169 7.07767 19.1951 7.23562 19.2342 7.43307C19.2342 7.47256 19.2733 7.51204 19.2733 7.55153C19.3124 7.67 19.3515 7.82795 19.3906 7.98591C19.4298 8.18335 19.508 8.3808 19.5471 8.57825C19.5471 8.65722 19.5862 8.7362 19.5862 8.77569C19.5862 8.85467 19.6253 8.93365 19.6253 9.01263C19.6253 9.0916 19.6644 9.17058 19.6644 9.24956C19.6644 9.36803 19.7035 9.48649 19.7035 9.60496V9.64445C19.7035 9.72343 19.7426 9.84189 19.7426 9.92087V9.96036C19.7426 10.0788 19.7817 10.1973 19.7817 10.3158V10.3552C19.8599 10.7501 19.899 11.1845 19.899 11.5794Z" fill="url(#paint0_linear_254_22)"/>
<path d="M7.42349 6.8408C8.01011 8.53882 9.26156 9.96043 10.8259 10.7897C12.5466 11.6585 15.7925 12.0928 17.2786 10.4738C18.0217 9.64452 18.0217 8.49933 18.0999 7.43313C18.3345 4.86635 15.7143 2.85241 13.6416 2.02314C12.4293 1.54927 10.0828 0.759494 8.87048 1.50978C8.20565 1.90467 7.61903 2.69445 7.34527 3.40525C6.9542 4.39248 6.99331 5.49817 7.26706 6.4854C7.34528 6.60387 7.38438 6.72233 7.42349 6.8408Z" fill="url(#paint1_linear_254_22)"/>
<path d="M19.8988 11.5792C19.8988 11.9741 19.8988 12.369 19.8206 12.7244C19.7033 13.7116 19.3513 14.6199 18.9212 15.4492C18.7647 15.1332 18.4519 14.8568 18.139 14.7384C17.6697 14.5804 17.2004 14.5804 16.7311 14.5804C13.1332 14.5804 9.53532 14.1855 6.01563 13.3957C5.42902 13.2378 4.80329 13.1193 4.21668 13.1588C3.59096 13.1983 2.96524 13.4352 2.61328 13.9091C2.41774 14.1855 2.30041 14.5409 2.30041 14.8963C2.22219 14.7384 2.10488 14.5409 2.02666 14.383C1.40094 13.1193 1.00986 11.6582 0.931641 10.2366C0.931641 9.68377 0.931645 9.13092 1.00986 8.57807C1.00986 8.42012 1.04896 8.26216 1.08807 8.14369C1.51825 5.81384 2.96524 3.99735 4.7642 2.61523C4.2949 3.24706 3.86472 3.95786 3.51275 4.66867C3.08256 5.6164 2.73059 6.56414 2.92613 7.63034C3.08256 8.45961 3.47364 9.24939 4.06025 9.84173L4.09936 9.88122C5.19438 11.0264 6.75869 11.6582 8.28388 12.0926C9.45711 12.448 10.6303 12.7639 11.8036 13.0008C12.8986 13.2378 14.0718 13.3957 15.1668 13.3168C17.0831 13.1193 19.234 11.7767 19.0385 9.5653C18.9603 8.81501 19.3122 7.63035 19.0385 6.91954C19.1167 7.11699 19.1949 7.27494 19.234 7.47239C19.234 7.51188 19.2731 7.55136 19.2731 7.59085C19.3122 7.70932 19.3513 7.86727 19.3904 8.02523C19.4296 8.22268 19.5078 8.42012 19.5469 8.61757C19.5469 8.69654 19.586 8.77552 19.586 8.81501C19.586 8.89399 19.6251 8.97297 19.6251 9.05195C19.6251 9.13092 19.6642 9.20991 19.6642 9.28888C19.6642 9.40735 19.7033 9.52581 19.7033 9.64428V9.68377C19.7033 9.76275 19.7424 9.88121 19.7424 9.96019V9.99968C19.7424 10.1181 19.7815 10.2366 19.7815 10.3551V10.3946C19.8597 10.75 19.8988 11.1844 19.8988 11.5792Z" fill="url(#paint2_linear_254_22)"/>
<path d="M8.94879 18.0162C9.30076 17.9373 9.69184 17.7398 9.69184 17.3844C9.69184 17.2265 9.61362 17.108 9.53541 16.95C8.75325 15.5679 7.30627 14.6202 5.78107 14.4622C5.46821 14.4227 5.19446 14.4227 4.8816 14.4622C4.72517 14.5017 4.56874 14.5412 4.45142 14.6202C4.06034 14.9361 4.25588 15.4495 4.37321 15.8443C4.49053 16.1998 4.72518 16.4762 4.95982 16.7131C5.58554 17.3844 6.4459 17.8188 7.38449 17.9768C7.93199 18.1347 8.44039 18.1347 8.94879 18.0162Z" fill="url(#paint3_linear_254_22)"/>
<defs>
<linearGradient id="paint0_linear_254_22" x1="0.916504" y1="0.504883" x2="20.2452" y2="19.4843" gradientUnits="userSpaceOnUse">
<stop stop-color="#65FDF0"/>
<stop offset="1" stop-color="#1D6FA3"/>
</linearGradient>
<linearGradient id="paint1_linear_254_22" x1="7.05664" y1="1.2002" x2="17.4" y2="12.235" gradientUnits="userSpaceOnUse">
<stop stop-color="#65FDF0"/>
<stop offset="1" stop-color="#1D6FA3"/>
</linearGradient>
<linearGradient id="paint2_linear_254_22" x1="0.931641" y1="2.61523" x2="12.8451" y2="20.222" gradientUnits="userSpaceOnUse">
<stop stop-color="#65FDF0"/>
<stop offset="1" stop-color="#1D6FA3"/>
</linearGradient>
<linearGradient id="paint3_linear_254_22" x1="4.21924" y1="14.4326" x2="7.61213" y2="19.4946" gradientUnits="userSpaceOnUse">
<stop stop-color="#65FDF0"/>
<stop offset="1" stop-color="#1D6FA3"/>
</linearGradient>
</defs>
</svg>
